<svg width="550" height="160" viewBox="0 0 550 160" fill="none" xmlns="http://www.w3.org/2000/svg">
<path d="M60.142 19.912C60.0567 24.008 60.0993 28.0613 60.27 32.072C60.526 36.0827 60.5687 40.136 60.398 44.232C60.2273 48.4987 60.142 52.7653 60.142 57.032C60.2273 61.2133 60.27 65.48 60.27 69.832C60.27 70.856 60.1847 71.9227 60.014 73.032C59.8433 74.056 59.374 74.9093 58.606 75.592C57.9233 76.1893 57.1553 76.616 56.302 76.872C55.4487 77.0427 54.5527 77.128 53.614 77.128C52.6753 77.128 51.7367 77.0853 50.798 77C49.8593 76.9147 49.006 76.872 48.238 76.872C47.5553 76.872 46.7873 76.9147 45.934 77C45.0807 77.1707 44.27 77.2133 43.502 77.128C42.734 77.0427 42.0087 76.8293 41.326 76.488C40.6433 76.1467 40.174 75.592 39.918 74.824C39.7473 74.3973 39.6193 73.928 39.534 73.416C39.534 72.904 39.534 72.4347 39.534 72.008C39.4487 70.1307 39.3633 68.296 39.278 66.504C39.1927 64.712 39.15 62.92 39.15 61.128C39.15 59.6773 39.1927 58.2693 39.278 56.904C39.4487 55.4533 39.4487 54.0027 39.278 52.552C39.1073 50.8453 39.0647 49.1387 39.15 47.432C39.3207 45.64 39.406 43.8907 39.406 42.184C39.406 41.7573 39.3633 41.4587 39.278 41.288C38.9367 40.8613 38.51 40.776 37.998 41.032C37.5713 41.2027 37.1447 41.544 36.718 42.056C36.2913 42.4827 35.9073 42.952 35.566 43.464C35.2247 43.976 35.0113 44.36 34.926 44.616C34.2433 45.896 33.4753 47.176 32.622 48.456C32.1953 49.1387 31.6833 49.608 31.086 49.864C30.4887 50.0347 29.934 49.992 29.422 49.736C28.91 49.3947 28.4407 48.968 28.014 48.456C27.758 48.2 27.4167 47.56 26.99 46.536C26.5633 45.4267 26.0513 44.3173 25.454 43.208C24.8567 42.0987 24.2593 41.2027 23.662 40.52C23.0647 39.8373 22.51 39.752 21.998 40.264C21.9127 40.3493 21.7847 40.6907 21.614 41.288C21.4433 42.9947 21.4433 44.6587 21.614 46.28C21.87 47.9013 21.9553 49.5653 21.87 51.272C21.7847 52.9787 21.7847 54.6427 21.87 56.264C22.0407 57.8 22.126 59.4213 22.126 61.128C22.126 64.712 21.998 68.3387 21.742 72.008C21.742 72.4347 21.6993 72.904 21.614 73.416C21.614 73.928 21.5287 74.3973 21.358 74.824C21.102 75.592 20.6327 76.1467 19.95 76.488C19.2673 76.8293 18.542 77.0427 17.774 77.128C17.006 77.2133 16.1953 77.1707 15.342 77C14.4887 76.9147 13.7207 76.872 13.038 76.872C12.27 76.872 11.4167 76.9147 10.478 77C9.53933 77.0853 8.60067 77.128 7.662 77.128C6.72333 77.128 5.78467 77.0427 4.846 76.872C3.99267 76.616 3.26733 76.1893 2.67 75.592C1.902 74.9093 1.43267 74.056 1.262 73.032C1.17667 71.9227 1.134 70.856 1.134 69.832C1.134 65.48 1.134 61.2133 1.134 57.032C1.134 52.7653 1.04867 48.4987 0.878 44.232C0.707333 40.136 0.75 36.0827 1.006 32.072C1.262 28.0613 1.30467 24.008 1.134 19.912C1.134 17.9493 1.17667 16.0293 1.262 14.152C1.43267 12.2747 1.60333 10.3547 1.774 8.392C1.85933 7.70933 1.98733 7.02666 2.158 6.34399C2.32867 5.66133 2.67 5.10667 3.182 4.68C3.60867 4.25333 4.12067 4.03999 4.718 4.03999C5.31533 3.95466 5.91267 3.91199 6.51 3.91199C8.64333 3.91199 10.734 3.91199 12.782 3.91199C14.83 3.91199 16.9207 4.12533 19.054 4.55199C19.7367 4.72266 20.334 4.936 20.846 5.19199C21.4433 5.448 21.9553 5.832 22.382 6.34399C22.638 6.6 22.766 6.856 22.766 7.112C23.1927 7.53867 23.534 8.008 23.79 8.52C24.046 8.94666 24.302 9.416 24.558 9.92799C25.07 10.8667 25.582 11.8053 26.094 12.744C26.6913 13.6827 27.246 14.6213 27.758 15.56C27.9287 15.9867 28.1847 16.4987 28.526 17.096C28.9527 17.608 29.5073 17.864 30.19 17.864C30.7873 17.864 31.3847 17.5227 31.982 16.84C32.5793 16.1573 33.006 15.6027 33.262 15.176C33.9447 14.2373 34.4993 13.256 34.926 12.232C35.3527 11.208 35.8647 10.184 36.462 9.16C37.0593 8.22133 37.742 7.32533 38.51 6.472C39.278 5.61866 40.2167 5.02133 41.326 4.68C43.374 3.99733 45.5927 3.69866 47.982 3.784C50.3713 3.86933 52.6753 3.91199 54.894 3.91199C55.406 3.91199 55.9607 3.95466 56.558 4.03999C57.1553 4.03999 57.6673 4.25333 58.094 4.68C58.606 5.10667 58.9473 5.66133 59.118 6.34399C59.2887 7.02666 59.4167 7.70933 59.502 8.392C59.6727 10.3547 59.8007 12.2747 59.886 14.152C60.0567 16.0293 60.142 17.9493 60.142 19.912ZM124.347 65.864C124.432 66.5467 124.475 67.2293 124.475 67.912C124.475 68.5947 124.475 69.2773 124.475 69.96C124.56 70.8987 124.56 71.88 124.475 72.904C124.475 73.8427 124.176 74.696 123.579 75.464C122.982 76.4027 122.427 76.872 121.915 76.872C121.403 76.7867 120.678 76.7013 119.739 76.616C117.264 76.4453 114.832 76.4453 112.443 76.616C110.054 76.7013 107.622 76.6587 105.147 76.488C104.294 76.488 103.654 76.3173 103.227 75.976C102.8 75.5493 102.544 75.08 102.459 74.568C102.374 74.056 102.331 73.5013 102.331 72.904C102.331 72.7333 102.288 72.6053 102.203 72.52C101.008 73.8853 99.6003 74.9947 97.979 75.848C95.7603 76.9573 93.371 77.4693 90.811 77.384C88.3363 77.2987 85.9043 77 83.515 76.488C81.1257 75.976 78.8217 75.2507 76.603 74.312C74.3843 73.3733 72.5497 71.9227 71.099 69.96C69.9897 68.424 69.179 66.632 68.667 64.584C67.0457 59.208 66.491 53.704 67.003 48.072C67.515 42.44 69.051 37.1493 71.611 32.2C72.8057 29.9813 74.171 27.8907 75.707 25.928C77.243 23.88 79.1203 22.216 81.339 20.936C84.0697 19.2293 87.099 18.376 90.427 18.376C93.8403 18.2907 96.9977 18.9733 99.899 20.424C100.326 20.5947 100.71 20.808 101.051 21.064C101.392 21.2347 101.776 21.448 102.203 21.704C102.8 19.144 104.422 17.8213 107.067 17.736C111.59 17.48 116.027 17.608 120.379 18.12C120.976 18.2053 121.531 18.3333 122.043 18.504C122.64 18.5893 123.152 18.888 123.579 19.4C124.603 20.7653 124.987 22.5147 124.731 24.648C124.56 26.696 124.432 28.488 124.347 30.024C124.347 32.2427 124.304 34.504 124.219 36.808C124.219 39.0267 124.219 41.2453 124.219 43.464C124.134 47.2187 124.091 50.9307 124.091 54.6C124.176 58.2693 124.262 62.024 124.347 65.864ZM99.643 52.04C100.326 51.272 100.71 50.3333 100.795 49.224C100.966 48.1147 101.008 47.048 100.923 46.024C100.838 45.6827 100.752 45.384 100.667 45.128C100.667 44.7867 100.582 44.4453 100.411 44.104C100.24 43.7627 100.027 43.464 99.771 43.208C99.515 42.952 99.259 42.7387 99.003 42.568C97.2963 41.544 95.5043 41.0747 93.627 41.16C91.835 41.16 90.2137 41.8427 88.763 43.208C88.1657 43.8053 87.6537 44.488 87.227 45.256C86.8857 45.9387 86.715 46.7067 86.715 47.56C86.715 49.096 87.1843 50.4187 88.123 51.528C89.147 52.552 90.3843 53.2773 91.835 53.704C93.7123 54.1307 95.547 54.0027 97.339 53.32C97.7657 53.1493 98.1497 53.0213 98.491 52.936C98.8323 52.7653 99.1737 52.5093 99.515 52.168L99.643 52.04ZM152.754 54.856C151.474 54.1733 150.151 53.576 148.786 53.064C147.506 52.552 146.183 51.9973 144.818 51.4C140.893 49.5227 137.65 47.048 135.09 43.976C133.469 42.0987 132.487 40.0933 132.146 37.96C131.89 35.7413 132.103 33.608 132.786 31.56C133.469 29.4267 134.621 27.464 136.242 25.672C137.863 23.88 139.783 22.3867 142.002 21.192C143.111 20.5947 144.263 20.1253 145.458 19.784C146.738 19.4427 148.018 19.144 149.298 18.888C152.114 18.376 154.973 18.1627 157.874 18.248C160.861 18.248 163.719 18.632 166.45 19.4C168.327 19.912 170.077 20.68 171.698 21.704C173.405 22.6427 174.898 23.7947 176.178 25.16C177.458 26.44 178.482 27.8907 179.25 29.512C180.018 31.1333 180.487 32.7547 180.658 34.376C180.829 35.144 180.658 35.784 180.146 36.296C179.89 36.4667 179.421 36.6373 178.738 36.808C177.373 37.1493 176.007 37.448 174.642 37.704C173.362 37.96 172.039 38.2587 170.674 38.6C170.247 38.6853 169.735 38.7707 169.138 38.856C168.626 38.9413 168.029 39.0267 167.346 39.112C166.749 39.1973 166.151 39.24 165.554 39.24C165.042 39.1547 164.615 39.0267 164.274 38.856C164.018 38.7707 163.719 38.472 163.378 37.96C162.695 36.7653 161.714 35.912 160.434 35.4C159.239 34.8027 157.959 34.8027 156.594 35.4C156.167 35.5707 155.826 35.8267 155.57 36.168C155.143 36.8507 155.229 37.576 155.826 38.344C156.253 38.9413 156.893 39.368 157.746 39.624C158.514 40.0507 159.282 40.4347 160.05 40.776C160.903 41.1173 161.757 41.416 162.61 41.672C163.463 41.928 164.274 42.2267 165.042 42.568C165.895 42.9093 166.749 43.2507 167.602 43.592C169.65 44.1893 171.527 45.1707 173.234 46.536C173.917 46.9627 174.557 47.4747 175.154 48.072C175.751 48.6693 176.306 49.2667 176.818 49.864C176.989 50.12 177.202 50.504 177.458 51.016C177.714 51.528 177.97 52.1253 178.226 52.808C178.567 53.4053 178.823 54.0027 178.994 54.6C179.25 55.1973 179.378 55.624 179.378 55.88C179.719 57.928 179.719 59.8907 179.378 61.768C179.122 63.56 178.482 65.4373 177.458 67.4C176.605 68.936 175.538 70.344 174.258 71.624C173.063 72.904 171.613 74.0133 169.906 74.952C168.797 75.5493 167.602 76.0187 166.322 76.36C165.127 76.7013 163.89 77 162.61 77.256C156.807 78.28 151.09 78.1093 145.458 76.744C141.618 75.72 138.375 73.8 135.73 70.984C133.085 68.168 131.591 65.096 131.25 61.768C131.25 61.4267 131.25 61.0853 131.25 60.744C131.335 60.3173 131.549 60.0187 131.89 59.848C132.061 59.6773 132.231 59.592 132.402 59.592C132.658 59.5067 132.914 59.4213 133.17 59.336C134.535 58.9947 135.858 58.696 137.138 58.44C138.503 58.0987 139.869 57.8 141.234 57.544C142.002 57.3733 143.069 57.16 144.434 56.904C145.885 56.648 146.951 56.7333 147.634 57.16C147.89 57.3307 148.189 57.672 148.53 58.184C149.298 59.3787 150.279 60.36 151.474 61.128C152.669 61.896 153.991 62.024 155.442 61.512C156.637 61.0853 157.277 60.36 157.362 59.336C157.533 58.3973 157.234 57.6293 156.466 57.032C156.125 56.6907 155.783 56.4347 155.442 56.264C155.101 56.008 154.717 55.7947 154.29 55.624L152.754 54.856ZM229.669 50.12C230.693 51.0587 231.504 52.168 232.101 53.448C232.698 54.6427 233.21 55.88 233.637 57.16C234.149 58.696 234.576 60.2747 234.917 61.896C235.258 63.5173 235.344 65.1813 235.173 66.888C235.002 68.0827 234.576 69.4907 233.893 71.112C233.21 72.648 232.229 73.7573 230.949 74.44C228.73 75.6347 226.341 76.36 223.781 76.616C221.221 76.7867 218.661 76.8293 216.101 76.744C213.37 76.6587 210.64 76.488 207.909 76.232C205.264 75.976 202.704 75.3787 200.229 74.44C197.925 73.5013 195.962 72.392 194.341 71.112C190.928 68.4667 188.496 65.3093 187.045 61.64C185.594 57.8853 184.954 54.0453 185.125 50.12C185.21 48.9253 185.253 47.7307 185.253 46.536C185.338 45.256 185.509 44.0187 185.765 42.824C186.192 40.3493 186.832 37.8747 187.685 35.4C188.538 32.84 189.818 30.4933 191.525 28.36C192.976 26.568 194.725 25.032 196.773 23.752C198.906 22.3867 201.168 21.2773 203.557 20.424C207.909 18.888 212.517 18.1627 217.381 18.248C222.245 18.248 226.853 19.016 231.205 20.552C231.632 20.7227 232.058 20.936 232.485 21.192C232.912 21.3627 233.338 21.576 233.765 21.832C234.533 22.4293 235.045 23.1547 235.301 24.008C235.557 24.776 235.642 25.6293 235.557 26.568C235.557 27.4213 235.429 28.3173 235.173 29.256C235.002 30.1093 234.832 30.92 234.661 31.688C234.234 33.6507 233.68 35.528 232.997 37.32C232.314 39.112 231.589 40.9467 230.821 42.824C230.48 43.7627 230.053 44.4453 229.541 44.872C228.944 45.384 228.304 45.64 227.621 45.64C226.938 45.64 226.256 45.4693 225.573 45.128C224.89 44.7867 224.208 44.4027 223.525 43.976C222.842 43.5493 222.245 43.208 221.733 42.952C220.965 42.6107 220.197 42.312 219.429 42.056C218.661 41.8 217.85 41.6293 216.997 41.544C215.12 41.288 213.584 41.7573 212.389 42.952C211.877 43.5493 211.493 44.232 211.237 45C211.066 45.6827 210.938 46.3653 210.853 47.048C210.768 48.4133 210.938 49.7787 211.365 51.144C211.792 52.424 212.602 53.4053 213.797 54.088C214.821 54.6853 215.93 54.8987 217.125 54.728C218.32 54.472 219.472 54.088 220.581 53.576C221.093 53.32 221.733 52.8933 222.501 52.296C223.269 51.6987 224.08 51.144 224.933 50.632C225.786 50.12 226.64 49.7787 227.493 49.608C228.346 49.352 229.072 49.5227 229.669 50.12ZM283.696 30.152C283.781 30.3227 283.867 30.4933 283.952 30.664C284.037 30.7493 284.123 30.8773 284.208 31.048C285.147 33.1813 285.829 35.3573 286.256 37.576C286.683 39.7947 286.939 42.056 287.024 44.36C287.109 46.5787 287.067 48.84 286.896 51.144C286.725 53.3627 286.512 55.5813 286.256 57.8C286.085 59.7627 285.744 61.7253 285.232 63.688C284.805 65.5653 284.08 67.3147 283.056 68.936C282.032 70.472 280.667 71.88 278.96 73.16C277.339 74.3547 275.291 75.2933 272.816 75.976C269.403 76.744 266.075 77.0853 262.832 77C260.699 77.0853 258.523 76.872 256.304 76.36C255.024 76.1893 253.787 75.9333 252.592 75.592C251.397 75.2507 250.245 74.7813 249.136 74.184C247.515 73.2453 246.107 72.136 244.912 70.856C243.717 69.576 242.736 68.2107 241.968 66.76C240.773 64.712 239.877 62.5787 239.28 60.36C238.683 58.056 238.299 55.752 238.128 53.448C237.957 51.2293 237.915 49.0107 238 46.792C238.085 44.488 238.384 42.2693 238.896 40.136C239.749 36.9787 240.816 33.8213 242.096 30.664C243.461 27.5067 245.637 24.904 248.624 22.856C250.416 21.6613 252.464 20.7653 254.768 20.168C257.072 19.4853 259.376 19.1013 261.68 19.016C264.155 18.9307 266.501 19.016 268.72 19.272C270.939 19.4427 273.157 20.1253 275.376 21.32C277.253 22.4293 278.875 23.752 280.24 25.288C281.605 26.824 282.757 28.4453 283.696 30.152ZM259.632 40.904C259.461 41.928 259.376 42.9947 259.376 44.104C259.376 45.128 259.419 46.152 259.504 47.176V53.96C259.589 54.3867 259.632 54.8133 259.632 55.24C259.632 55.6667 259.717 56.0933 259.888 56.52C260.229 57.4587 260.869 58.056 261.808 58.312C262.32 58.4827 262.875 58.568 263.472 58.568C264.155 58.4827 264.709 58.2693 265.136 57.928L265.904 57.16C266.501 56.392 266.885 55.496 267.056 54.472C267.227 53.448 267.355 52.4667 267.44 51.528C267.781 48.1147 267.696 44.4453 267.184 40.52C267.013 39.6667 266.8 39.0693 266.544 38.728C266.203 38.1307 265.733 37.7467 265.136 37.576C264.539 37.32 263.899 37.2347 263.216 37.32C262.619 37.4053 262.021 37.6187 261.424 37.96C260.912 38.3013 260.528 38.728 260.272 39.24C259.931 39.9227 259.717 40.4773 259.632 40.904Z" fill="#FFAF45"/>
<path d="M340.676 70.984C339.055 73.2027 337.007 75.08 334.532 76.616C332.313 77.896 329.881 78.792 327.236 79.304C324.676 79.816 322.031 79.944 319.3 79.688C316.655 79.432 314.095 78.7493 311.62 77.64C309.231 76.616 307.14 75.208 305.348 73.416C302.959 70.9413 301.337 68.1253 300.484 64.968C299.631 61.7253 299.076 58.4827 298.82 55.24C298.735 54.216 298.649 53.0213 298.564 51.656C298.479 50.2053 298.393 48.7547 298.308 47.304C298.308 45.768 298.265 44.3173 298.18 42.952C298.18 41.5013 298.18 40.264 298.18 39.24C297.071 39.24 295.961 39.1973 294.852 39.112C293.828 39.0267 292.889 38.6 292.036 37.832C291.524 37.4053 291.183 36.8933 291.012 36.296C290.841 35.6133 290.713 34.9307 290.628 34.248C290.543 33.3947 290.5 32.712 290.5 32.2C290.5 31.6027 290.5 31.0907 290.5 30.664C290.5 30.2373 290.5 29.768 290.5 29.256C290.5 28.6587 290.5 27.9333 290.5 27.08C290.5 25.8853 290.585 24.4773 290.756 22.856C291.012 21.2347 291.695 20.04 292.804 19.272C293.401 18.8453 294.127 18.5893 294.98 18.504C295.919 18.3333 296.857 18.248 297.796 18.248C297.796 16.6267 297.796 15.0053 297.796 13.384C297.796 11.6773 297.881 9.58666 298.052 7.112C298.052 6.42933 298.137 5.704 298.308 4.936C298.479 4.168 298.905 3.656 299.588 3.39999C300.356 3.05866 301.167 2.93066 302.02 3.016C302.873 3.016 303.727 3.016 304.58 3.016C306.799 3.10133 309.017 3.05866 311.236 2.88799C313.54 2.71733 315.801 2.71733 318.02 2.88799C319.044 2.97333 319.855 3.272 320.452 3.784C321.135 4.296 321.647 4.93599 321.988 5.70399C322.329 6.472 322.543 7.32533 322.628 8.264C322.713 9.20266 322.756 10.1413 322.756 11.08C322.671 12.36 322.628 13.64 322.628 14.92C322.628 16.2 322.628 17.48 322.628 18.76H325.828C326.34 18.76 326.852 18.8027 327.364 18.888C327.876 18.9733 328.345 19.1867 328.772 19.528C329.199 19.9547 329.497 20.4667 329.668 21.064C329.839 21.576 329.924 22.1733 329.924 22.856C330.009 23.7947 330.052 24.6053 330.052 25.288C330.137 25.8853 330.18 26.4827 330.18 27.08C330.18 27.592 330.18 28.1893 330.18 28.872C330.18 29.4693 330.18 30.2373 330.18 31.176C330.18 32.1147 330.095 33.0533 329.924 33.992C329.839 34.9307 329.54 35.784 329.028 36.552C328.089 37.7467 327.065 38.472 325.956 38.728C324.932 38.984 323.695 39.112 322.244 39.112V43.848C322.244 44.36 322.244 45.0427 322.244 45.896C322.244 46.664 322.244 47.5173 322.244 48.456C322.329 49.3093 322.372 50.1627 322.372 51.016C322.457 51.8693 322.5 52.552 322.5 53.064C322.585 53.7467 322.585 54.5147 322.5 55.368C322.5 56.136 322.799 56.7333 323.396 57.16C324.164 57.8427 324.804 57.8853 325.316 57.288C325.913 56.6053 326.511 56.0507 327.108 55.624C327.791 55.112 328.559 54.9413 329.412 55.112C330.265 55.1973 331.076 55.368 331.844 55.624C333.124 56.0507 334.361 56.52 335.556 57.032C336.836 57.4587 338.073 57.928 339.268 58.44C340.121 58.7813 341.103 59.1653 342.212 59.592C343.407 59.9333 344.132 60.616 344.388 61.64C344.473 62.0667 344.431 62.6213 344.26 63.304C343.577 66.12 342.383 68.68 340.676 70.984ZM405.347 65.864C405.432 66.5467 405.475 67.2293 405.475 67.912C405.475 68.5947 405.475 69.2773 405.475 69.96C405.56 70.8987 405.56 71.88 405.475 72.904C405.475 73.8427 405.176 74.696 404.579 75.464C403.982 76.4027 403.427 76.872 402.915 76.872C402.403 76.7867 401.678 76.7013 400.739 76.616C398.264 76.4453 395.832 76.4453 393.443 76.616C391.054 76.7013 388.622 76.6587 386.147 76.488C385.294 76.488 384.654 76.3173 384.227 75.976C383.8 75.5493 383.544 75.08 383.459 74.568C383.374 74.056 383.331 73.5013 383.331 72.904C383.331 72.7333 383.288 72.6053 383.203 72.52C382.008 73.8853 380.6 74.9947 378.979 75.848C376.76 76.9573 374.371 77.4693 371.811 77.384C369.336 77.2987 366.904 77 364.515 76.488C362.126 75.976 359.822 75.2507 357.603 74.312C355.384 73.3733 353.55 71.9227 352.099 69.96C350.99 68.424 350.179 66.632 349.667 64.584C348.046 59.208 347.491 53.704 348.003 48.072C348.515 42.44 350.051 37.1493 352.611 32.2C353.806 29.9813 355.171 27.8907 356.707 25.928C358.243 23.88 360.12 22.216 362.339 20.936C365.07 19.2293 368.099 18.376 371.427 18.376C374.84 18.2907 377.998 18.9733 380.899 20.424C381.326 20.5947 381.71 20.808 382.051 21.064C382.392 21.2347 382.776 21.448 383.203 21.704C383.8 19.144 385.422 17.8213 388.067 17.736C392.59 17.48 397.027 17.608 401.379 18.12C401.976 18.2053 402.531 18.3333 403.043 18.504C403.64 18.5893 404.152 18.888 404.579 19.4C405.603 20.7653 405.987 22.5147 405.731 24.648C405.56 26.696 405.432 28.488 405.347 30.024C405.347 32.2427 405.304 34.504 405.219 36.808C405.219 39.0267 405.219 41.2453 405.219 43.464C405.134 47.2187 405.091 50.9307 405.091 54.6C405.176 58.2693 405.262 62.024 405.347 65.864ZM380.643 52.04C381.326 51.272 381.71 50.3333 381.795 49.224C381.966 48.1147 382.008 47.048 381.923 46.024C381.838 45.6827 381.752 45.384 381.667 45.128C381.667 44.7867 381.582 44.4453 381.411 44.104C381.24 43.7627 381.027 43.464 380.771 43.208C380.515 42.952 380.259 42.7387 380.003 42.568C378.296 41.544 376.504 41.0747 374.627 41.16C372.835 41.16 371.214 41.8427 369.763 43.208C369.166 43.8053 368.654 44.488 368.227 45.256C367.886 45.9387 367.715 46.7067 367.715 47.56C367.715 49.096 368.184 50.4187 369.123 51.528C370.147 52.552 371.384 53.2773 372.835 53.704C374.712 54.1307 376.547 54.0027 378.339 53.32C378.766 53.1493 379.15 53.0213 379.491 52.936C379.832 52.7653 380.174 52.5093 380.515 52.168L380.643 52.04ZM436.186 78.152C433.797 78.0667 431.407 77.9813 429.018 77.896C426.714 77.896 424.41 77.8533 422.106 77.768C421.253 77.768 420.357 77.6827 419.418 77.512C418.565 77.4267 417.711 77.256 416.858 77C416.005 76.744 415.237 76.36 414.554 75.848C413.871 75.336 413.359 74.6533 413.018 73.8C412.506 72.6053 412.25 71.4107 412.25 70.216C412.335 68.936 412.421 67.6987 412.506 66.504C412.591 65.3093 412.549 64.1573 412.378 63.048C412.293 61.9387 412.25 60.7867 412.25 59.592C412.335 56.8613 412.378 54.088 412.378 51.272C412.463 48.456 412.549 45.6827 412.634 42.952C412.805 37.4053 412.975 31.944 413.146 26.568C413.317 21.1067 413.487 15.6027 413.658 10.056C413.658 9.288 413.701 8.52 413.786 7.752C413.871 6.89867 414.085 6.17333 414.426 5.576C414.853 4.97867 415.322 4.59467 415.834 4.424C416.431 4.25333 417.029 4.12533 417.626 4.03999C419.845 3.69866 422.063 3.48533 424.282 3.39999C426.586 3.31466 428.847 3.35733 431.066 3.528C432.943 3.69866 434.223 4.46666 434.906 5.83199C435.674 7.19733 436.101 9.24533 436.186 11.976C436.271 14.9627 436.314 17.864 436.314 20.68C436.399 23.4107 436.357 26.2693 436.186 29.256C436.015 32.6693 435.887 36.0827 435.802 39.496C435.802 42.9093 435.845 46.3227 435.93 49.736C435.93 50.5893 435.973 51.4 436.058 52.168C436.229 52.936 436.527 53.6613 436.954 54.344C437.466 54.9413 438.063 55.368 438.746 55.624C439.514 55.7947 440.239 55.9227 440.922 56.008C441.69 56.0933 442.415 56.0933 443.098 56.008C443.866 55.9227 444.634 55.88 445.402 55.88C446.085 55.9653 446.725 56.136 447.322 56.392C448.005 56.5627 448.517 56.9467 448.858 57.544C449.029 57.8 449.114 58.0987 449.114 58.44C449.114 58.696 449.157 58.9947 449.242 59.336C449.669 63.7733 449.455 68.2107 448.602 72.648C448.431 73.5013 448.133 74.312 447.706 75.08C447.365 75.848 446.853 76.488 446.17 77C445.231 77.6827 444.207 78.0667 443.098 78.152C442.074 78.2373 441.007 78.2373 439.898 78.152H436.186ZM460.507 25.416C464.859 24.9893 469.296 24.8613 473.819 25.032C475.696 25.2027 476.976 25.7573 477.659 26.696C478.427 27.6347 478.854 29.0853 478.939 31.048C479.622 45.384 479.494 59.6773 478.555 73.928C478.555 74.44 478.512 74.952 478.427 75.464C478.342 75.8907 478.086 76.2747 477.659 76.616C477.403 76.7867 477.104 76.9147 476.763 77C476.422 77 476.08 77.0427 475.739 77.128C472.667 77.2987 469.595 77.3413 466.523 77.256C463.451 77.256 460.422 77.128 457.435 76.872C456.838 76.872 456.411 76.7867 456.155 76.616C455.899 76.4453 455.728 76.232 455.643 75.976C455.558 75.6347 455.43 75.2933 455.259 74.952C455.003 73.7573 454.875 72.5627 454.875 71.368C454.875 70.088 454.875 68.808 454.875 67.528C455.131 61.2133 455.387 54.9413 455.643 48.712C455.899 42.3973 456.155 36.0827 456.411 29.768C456.411 29.1707 456.454 28.616 456.539 28.104C456.624 27.5067 456.88 26.9947 457.307 26.568C457.734 26.1413 458.203 25.8853 458.715 25.8C459.312 25.6293 459.91 25.5013 460.507 25.416ZM459.227 4.03999C460.592 3.61333 461.915 3.39999 463.195 3.39999C464.56 3.31466 465.968 3.31466 467.419 3.39999C468.699 3.48533 469.936 3.48533 471.131 3.39999C472.411 3.31466 473.648 3.35733 474.843 3.528C475.611 3.61333 476.336 3.784 477.019 4.03999C477.787 4.21066 478.384 4.63733 478.811 5.32C478.982 5.66133 479.067 6.04533 479.067 6.472C479.152 6.81333 479.238 7.19733 479.323 7.62399C479.323 8.64799 479.323 9.71466 479.323 10.824C479.323 11.848 479.366 12.9147 479.451 14.024C479.451 14.8773 479.366 15.5173 479.195 15.944C478.768 16.712 478.043 17.1813 477.019 17.352C476.08 17.5227 475.142 17.5653 474.203 17.48C472.155 17.3093 470.107 17.2667 468.059 17.352C466.011 17.352 463.963 17.4373 461.915 17.608C461.403 17.6933 460.848 17.736 460.251 17.736C459.739 17.736 459.27 17.608 458.843 17.352C457.99 16.9253 457.392 16.2853 457.051 15.432C456.795 14.5787 456.667 13.6827 456.667 12.744C456.582 11.6347 456.539 10.568 456.539 9.544C456.539 8.52 456.624 7.496 456.795 6.472C456.795 6.216 456.88 5.832 457.051 5.32C457.307 4.89333 457.606 4.59467 457.947 4.424C458.374 4.25333 458.8 4.12533 459.227 4.03999ZM543.347 65.864C543.432 66.5467 543.475 67.2293 543.475 67.912C543.475 68.5947 543.475 69.2773 543.475 69.96C543.56 70.8987 543.56 71.88 543.475 72.904C543.475 73.8427 543.176 74.696 542.579 75.464C541.982 76.4027 541.427 76.872 540.915 76.872C540.403 76.7867 539.678 76.7013 538.739 76.616C536.264 76.4453 533.832 76.4453 531.443 76.616C529.054 76.7013 526.622 76.6587 524.147 76.488C523.294 76.488 522.654 76.3173 522.227 75.976C521.8 75.5493 521.544 75.08 521.459 74.568C521.374 74.056 521.331 73.5013 521.331 72.904C521.331 72.7333 521.288 72.6053 521.203 72.52C520.008 73.8853 518.6 74.9947 516.979 75.848C514.76 76.9573 512.371 77.4693 509.811 77.384C507.336 77.2987 504.904 77 502.515 76.488C500.126 75.976 497.822 75.2507 495.603 74.312C493.384 73.3733 491.55 71.9227 490.099 69.96C488.99 68.424 488.179 66.632 487.667 64.584C486.046 59.208 485.491 53.704 486.003 48.072C486.515 42.44 488.051 37.1493 490.611 32.2C491.806 29.9813 493.171 27.8907 494.707 25.928C496.243 23.88 498.12 22.216 500.339 20.936C503.07 19.2293 506.099 18.376 509.427 18.376C512.84 18.2907 515.998 18.9733 518.899 20.424C519.326 20.5947 519.71 20.808 520.051 21.064C520.392 21.2347 520.776 21.448 521.203 21.704C521.8 19.144 523.422 17.8213 526.067 17.736C530.59 17.48 535.027 17.608 539.379 18.12C539.976 18.2053 540.531 18.3333 541.043 18.504C541.64 18.5893 542.152 18.888 542.579 19.4C543.603 20.7653 543.987 22.5147 543.731 24.648C543.56 26.696 543.432 28.488 543.347 30.024C543.347 32.2427 543.304 34.504 543.219 36.808C543.219 39.0267 543.219 41.2453 543.219 43.464C543.134 47.2187 543.091 50.9307 543.091 54.6C543.176 58.2693 543.262 62.024 543.347 65.864ZM518.643 52.04C519.326 51.272 519.71 50.3333 519.795 49.224C519.966 48.1147 520.008 47.048 519.923 46.024C519.838 45.6827 519.752 45.384 519.667 45.128C519.667 44.7867 519.582 44.4453 519.411 44.104C519.24 43.7627 519.027 43.464 518.771 43.208C518.515 42.952 518.259 42.7387 518.003 42.568C516.296 41.544 514.504 41.0747 512.627 41.16C510.835 41.16 509.214 41.8427 507.763 43.208C507.166 43.8053 506.654 44.488 506.227 45.256C505.886 45.9387 505.715 46.7067 505.715 47.56C505.715 49.096 506.184 50.4187 507.123 51.528C508.147 52.552 509.384 53.2773 510.835 53.704C512.712 54.1307 514.547 54.0027 516.339 53.32C516.766 53.1493 517.15 53.0213 517.491 52.936C517.832 52.7653 518.174 52.5093 518.515 52.168L518.643 52.04Z" fill="white"/>
<path d="M61.3963 140.44C60.8363 141 60.2363 141.56 59.5963 142.12C58.9963 142.68 58.3163 143.18 57.5563 143.62C56.7963 144.06 55.9563 144.44 55.0363 144.76C54.1163 145.08 53.0763 145.26 51.9163 145.3C49.5563 145.42 47.3963 145.18 45.4363 144.58C43.4763 143.94 41.7363 142.72 40.2163 140.92C39.1763 139.64 38.4163 138.12 37.9363 136.36C37.4563 134.56 37.1563 132.64 37.0363 130.6L37.5163 109.72C37.5163 108.68 37.8563 107.9 38.5363 107.38C39.2163 106.86 39.9563 106.6 40.7563 106.6C41.5563 106.6 42.2763 106.86 42.9163 107.38C43.5563 107.9 43.8363 108.68 43.7563 109.72V131.56C43.7563 133.28 44.1163 134.7 44.8363 135.82C45.5563 136.94 46.4763 137.78 47.5963 138.34C48.7563 138.86 50.0163 139.12 51.3763 139.12C52.7763 139.12 54.1363 138.86 55.4563 138.34C56.7763 137.82 57.9563 137.08 58.9963 136.12C60.0763 135.16 60.8763 133.98 61.3963 132.58V106.6C61.3963 105.56 61.7163 104.78 62.3563 104.26C63.0363 103.74 63.7563 103.48 64.5163 103.48C65.3163 103.48 66.0363 103.74 66.6763 104.26C67.3563 104.78 67.6963 105.56 67.6963 106.6V141.94C67.6963 142.98 67.3563 143.76 66.6763 144.28C66.0363 144.8 65.3163 145.06 64.5163 145.06C63.7563 145.06 63.0363 144.8 62.3563 144.28C61.7163 143.76 61.3963 142.98 61.3963 141.94V140.44ZM93.3337 141.1C93.3337 141.86 93.1137 142.5 92.6737 143.02C92.2337 143.54 91.7137 143.9 91.1137 144.1C90.5137 144.3 89.8937 144.3 89.2537 144.1C88.6537 143.9 88.1537 143.48 87.7537 142.84C87.3937 141.56 87.2537 140.24 87.3337 138.88C87.4137 137.48 87.5137 136.1 87.6337 134.74C87.7937 133.34 87.8937 131.96 87.9337 130.6C87.9737 129.24 87.7737 127.94 87.3337 126.7C87.0937 125.98 86.6937 125.48 86.1337 125.2C85.6137 124.92 85.0137 124.8 84.3337 124.84C83.6537 124.88 82.9537 125.02 82.2337 125.26C81.5137 125.5 80.8337 125.78 80.1937 126.1C79.5537 126.42 78.9937 126.76 78.5137 127.12C78.0737 127.44 77.7737 127.68 77.6137 127.84V141.94C77.6137 142.94 77.2937 143.68 76.6537 144.16C76.0137 144.64 75.2937 144.88 74.4937 144.88C73.7337 144.88 73.0337 144.64 72.3937 144.16C71.7537 143.68 71.4337 142.94 71.4337 141.94V139C71.3937 138 71.3537 137.08 71.3137 136.24C71.3137 135.4 71.3537 134.6 71.4337 133.84V122.14C71.4337 121.22 71.6937 120.52 72.2137 120.04C72.7737 119.52 73.3937 119.22 74.0737 119.14C74.7937 119.06 75.4737 119.2 76.1137 119.56C76.7937 119.88 77.2537 120.42 77.4937 121.18C77.7337 120.94 77.9337 120.76 78.0937 120.64C78.7337 120.16 79.5337 119.8 80.4937 119.56C81.4937 119.28 82.5337 119.14 83.6137 119.14C84.6937 119.1 85.7737 119.2 86.8537 119.44C87.9337 119.64 88.8737 119.98 89.6737 120.46C90.5937 120.98 91.3137 121.62 91.8337 122.38C92.3937 123.14 92.8137 123.98 93.0937 124.9C93.3737 125.78 93.5537 126.72 93.6337 127.72C93.7137 128.72 93.7537 129.72 93.7537 130.72C93.7537 132.52 93.6537 134.32 93.4537 136.12C93.2937 137.88 93.2537 139.54 93.3337 141.1ZM128.134 127.3C127.134 127.58 125.714 127.02 123.874 125.62C123.234 125.1 122.454 124.86 121.534 124.9C120.654 124.9 119.774 125.06 118.894 125.38C118.054 125.66 117.274 126.04 116.554 126.52C115.834 126.96 115.354 127.38 115.114 127.78V141.94C115.114 142.94 114.794 143.68 114.154 144.16C113.514 144.64 112.794 144.88 111.994 144.88C111.234 144.88 110.534 144.64 109.894 144.16C109.254 143.68 108.934 142.94 108.934 141.94V139C108.894 138 108.854 137.08 108.814 136.24C108.814 135.4 108.854 134.6 108.934 133.84V122.14C108.934 121.22 109.194 120.52 109.714 120.04C110.274 119.52 110.894 119.22 111.574 119.14C112.294 119.06 112.974 119.2 113.614 119.56C114.294 119.88 114.754 120.42 114.994 121.18C115.234 120.94 115.434 120.76 115.594 120.64C116.234 120.16 117.034 119.8 117.994 119.56C118.994 119.28 120.034 119.14 121.114 119.14C122.194 119.1 123.274 119.2 124.354 119.44C125.434 119.64 126.374 119.98 127.174 120.46C128.454 121.22 129.414 122.26 130.054 123.58C130.414 124.34 130.414 125.08 130.054 125.8C129.694 126.48 129.054 126.98 128.134 127.3ZM138.193 133.12C138.313 134.72 138.713 136 139.393 136.96C140.113 137.88 140.953 138.52 141.913 138.88C142.873 139.24 143.913 139.32 145.033 139.12C146.153 138.88 147.193 138.4 148.153 137.68C148.513 137.4 148.853 137.08 149.173 136.72C149.533 136.36 149.893 136.02 150.253 135.7C150.613 135.38 150.993 135.12 151.393 134.92C151.793 134.68 152.233 134.54 152.713 134.5C154.033 134.78 154.893 135.24 155.293 135.88C155.733 136.48 155.853 137.18 155.653 137.98C155.453 138.74 155.013 139.52 154.333 140.32C153.653 141.12 152.873 141.86 151.993 142.54C151.113 143.22 150.193 143.78 149.233 144.22C148.273 144.62 147.413 144.82 146.653 144.82C145.293 145.1 143.973 145.14 142.693 144.94C141.413 144.74 140.213 144.36 139.093 143.8C137.973 143.24 136.933 142.52 135.973 141.64C135.053 140.72 134.273 139.72 133.633 138.64C132.753 137.12 132.193 135.48 131.953 133.72C131.753 131.96 131.993 130.18 132.673 128.38C133.353 126.58 134.133 125.08 135.013 123.88C135.933 122.64 136.893 121.66 137.893 120.94C138.893 120.18 139.913 119.66 140.953 119.38C142.033 119.06 143.073 118.9 144.073 118.9C145.513 118.9 146.853 119.22 148.093 119.86C149.373 120.46 150.493 121.24 151.453 122.2C152.413 123.12 153.153 124.16 153.673 125.32C154.233 126.48 154.473 127.62 154.393 128.74C154.353 129.62 154.133 130.34 153.733 130.9C153.333 131.46 152.753 131.9 151.993 132.22C151.233 132.54 150.293 132.78 149.173 132.94C148.053 133.06 146.753 133.14 145.273 133.18C144.273 133.22 143.193 133.26 142.033 133.3C140.873 133.3 139.593 133.24 138.193 133.12ZM139.273 128.32C140.833 128.36 142.453 128.4 144.133 128.44C145.813 128.44 147.193 128.38 148.273 128.26C148.073 127.06 147.573 126.22 146.773 125.74C146.013 125.26 145.153 125.08 144.193 125.2C143.233 125.28 142.293 125.62 141.373 126.22C140.453 126.78 139.753 127.48 139.273 128.32ZM168.094 142.3C168.094 143.3 167.774 144.06 167.134 144.58C166.494 145.1 165.774 145.36 164.974 145.36C164.214 145.36 163.514 145.1 162.874 144.58C162.234 144.06 161.914 143.3 161.914 142.3C161.914 139.5 161.814 136.58 161.614 133.54C161.414 130.5 161.294 127.46 161.254 124.42H160.894C159.894 124.18 159.134 123.7 158.614 122.98C158.094 122.22 157.854 121.46 157.894 120.7C157.934 119.94 158.234 119.3 158.794 118.78C159.394 118.22 160.274 118.02 161.434 118.18C161.594 116.14 161.854 114.16 162.214 112.24C162.614 110.32 163.214 108.5 164.014 106.78C164.374 105.98 164.814 105.34 165.334 104.86C165.854 104.38 166.414 104 167.014 103.72C167.614 103.44 168.234 103.26 168.874 103.18C169.514 103.1 170.134 103.1 170.734 103.18C171.894 103.3 172.954 103.68 173.914 104.32C174.874 104.92 175.674 105.72 176.314 106.72C176.954 107.68 177.374 108.78 177.574 110.02C177.814 111.26 177.754 112.58 177.394 113.98C177.114 115.02 176.694 115.68 176.134 115.96C175.614 116.24 175.014 116.28 174.334 116.08C173.614 115.88 173.074 115.64 172.714 115.36C172.394 115.08 172.174 114.76 172.054 114.4C171.934 114.04 171.874 113.66 171.874 113.26C171.914 112.82 171.934 112.36 171.934 111.88C171.934 111.36 171.814 110.9 171.574 110.5C171.374 110.06 171.134 109.76 170.854 109.6C170.574 109.44 170.274 109.46 169.954 109.66C169.634 109.86 169.374 110.32 169.174 111.04C168.854 112.2 168.574 113.38 168.334 114.58C168.134 115.74 167.974 116.96 167.854 118.24H173.254C175.334 118.24 176.374 119.24 176.374 121.24C176.374 122.16 175.954 122.8 175.114 123.16C174.274 123.52 173.234 123.74 171.994 123.82C171.314 123.86 170.594 123.86 169.834 123.82C169.114 123.78 168.374 123.72 167.614 123.64C167.574 126.76 167.634 129.9 167.794 133.06C167.994 136.18 168.094 139.26 168.094 142.3ZM178.844 123.22C178.844 122.46 179.064 121.82 179.504 121.3C179.944 120.78 180.464 120.42 181.064 120.22C181.664 120.02 182.264 120.02 182.864 120.22C183.504 120.38 184.024 120.8 184.424 121.48C184.784 122.76 184.924 124.1 184.844 125.5C184.764 126.86 184.644 128.24 184.484 129.64C184.364 131 184.284 132.36 184.244 133.72C184.204 135.04 184.404 136.34 184.844 137.62C185.084 138.34 185.464 138.84 185.984 139.12C186.544 139.4 187.164 139.52 187.844 139.48C188.524 139.44 189.224 139.3 189.944 139.06C190.664 138.82 191.344 138.54 191.984 138.22C192.624 137.9 193.164 137.58 193.604 137.26C194.084 136.9 194.404 136.64 194.564 136.48V122.38C194.564 121.38 194.884 120.64 195.524 120.16C196.164 119.64 196.864 119.38 197.624 119.38C198.424 119.38 199.144 119.64 199.784 120.16C200.424 120.64 200.744 121.38 200.744 122.38V125.32C200.864 127.4 200.864 129.2 200.744 130.72V142.18C200.744 143.1 200.464 143.82 199.904 144.34C199.384 144.82 198.764 145.1 198.044 145.18C197.364 145.26 196.684 145.14 196.004 144.82C195.364 144.46 194.924 143.9 194.684 143.14C194.444 143.38 194.244 143.56 194.084 143.68C193.444 144.16 192.624 144.54 191.624 144.82C190.664 145.06 189.644 145.18 188.564 145.18C187.484 145.22 186.404 145.14 185.324 144.94C184.244 144.7 183.304 144.34 182.504 143.86C181.624 143.34 180.904 142.7 180.344 141.94C179.784 141.18 179.364 140.36 179.084 139.48C178.804 138.56 178.624 137.6 178.544 136.6C178.464 135.6 178.424 134.6 178.424 133.6C178.424 131.8 178.504 130.02 178.664 128.26C178.864 126.46 178.924 124.78 178.844 123.22ZM214.639 148.36C214.639 148.84 214.659 149.4 214.699 150.04C214.739 150.72 214.839 151.34 214.999 151.9C215.159 152.5 215.399 152.98 215.719 153.34C216.079 153.7 216.579 153.84 217.219 153.76C218.139 153.64 218.859 153.16 219.379 152.32C219.939 151.48 220.379 150.5 220.699 149.38C221.019 148.3 221.239 147.18 221.359 146.02C221.519 144.9 221.619 143.98 221.659 143.26C221.139 143.58 220.639 143.86 220.159 144.1C219.719 144.3 219.319 144.44 218.959 144.52C217.519 144.84 216.239 145.04 215.119 145.12C214.039 145.2 213.059 145.16 212.179 145C211.299 144.84 210.499 144.58 209.779 144.22C209.099 143.82 208.439 143.34 207.799 142.78C206.839 141.94 206.079 140.96 205.519 139.84C204.959 138.72 204.559 137.52 204.319 136.24C204.119 134.92 204.079 133.58 204.199 132.22C204.359 130.86 204.659 129.52 205.099 128.2C205.539 126.92 206.119 125.72 206.839 124.6C207.559 123.48 208.399 122.5 209.359 121.66C210.359 120.82 211.459 120.16 212.659 119.68C213.899 119.2 215.239 119 216.679 119.08C217.559 119.12 218.479 119.26 219.439 119.5C220.399 119.74 221.399 120.14 222.439 120.7C222.839 120.18 223.339 119.84 223.939 119.68C224.579 119.52 225.199 119.52 225.799 119.68C226.399 119.84 226.919 120.16 227.359 120.64C227.799 121.12 228.019 121.78 228.019 122.62C227.979 122.82 227.939 123.02 227.899 123.22C227.899 123.38 227.899 123.56 227.899 123.76C227.939 123.92 227.959 124.08 227.959 124.24C227.999 124.36 228.019 124.52 228.019 124.72V137.08C228.059 138.24 228.079 139.4 228.079 140.56C228.079 141.72 228.039 142.88 227.959 144.04C227.839 146.44 227.519 148.7 226.999 150.82C226.479 152.94 225.439 154.9 223.879 156.7C222.959 157.78 221.959 158.56 220.879 159.04C219.799 159.56 218.739 159.82 217.699 159.82C216.619 159.82 215.579 159.6 214.579 159.16C213.579 158.72 212.659 158.08 211.819 157.24C210.979 156.44 210.259 155.46 209.659 154.3C209.099 153.14 208.699 151.86 208.459 150.46C208.299 149.42 208.479 148.58 208.999 147.94C209.519 147.3 210.139 146.88 210.859 146.68C211.619 146.52 212.359 146.56 213.079 146.8C213.839 147.08 214.359 147.6 214.639 148.36ZM221.839 133.6C221.799 132.32 221.759 131.1 221.719 129.94C221.719 128.78 221.699 127.72 221.659 126.76C220.899 126.4 220.079 126.08 219.199 125.8C218.359 125.52 217.539 125.38 216.739 125.38C215.939 125.38 215.159 125.54 214.399 125.86C213.639 126.14 212.959 126.66 212.359 127.42C211.199 128.9 210.479 130.32 210.199 131.68C209.919 133.04 209.939 134.28 210.259 135.4C210.619 136.48 211.219 137.38 212.059 138.1C212.899 138.78 213.859 139.22 214.939 139.42C216.019 139.58 217.159 139.42 218.359 138.94C219.599 138.46 220.759 137.58 221.839 136.3V133.6ZM234.865 115.36C233.865 115.36 233.105 115.08 232.585 114.52C232.065 113.92 231.785 113.26 231.745 112.54C231.665 111.74 231.885 111 232.405 110.32C232.925 109.6 233.745 109.24 234.865 109.24C235.945 109.24 236.745 109.6 237.265 110.32C237.825 111 238.065 111.74 237.985 112.54C237.945 113.26 237.665 113.92 237.145 114.52C236.625 115.08 235.865 115.36 234.865 115.36ZM231.685 122.62C231.685 121.58 232.005 120.82 232.645 120.34C233.325 119.82 234.045 119.56 234.805 119.56C235.605 119.56 236.325 119.82 236.965 120.34C237.605 120.82 237.925 121.58 237.925 122.62V142.3C237.925 144.3 236.885 145.3 234.805 145.3C234.285 145.3 233.825 145.2 233.425 145C233.065 144.76 232.745 144.48 232.465 144.16C232.225 143.84 232.025 143.52 231.865 143.2C231.745 142.84 231.685 142.54 231.685 142.3V122.62ZM261.986 121.84C262.066 121.88 262.186 121.98 262.346 122.14C263.786 123.66 264.706 125.4 265.106 127.36C265.546 129.28 265.586 131.22 265.226 133.18C264.866 135.1 264.146 136.94 263.066 138.7C262.026 140.46 260.746 141.92 259.226 143.08C257.706 144.2 255.986 144.92 254.066 145.24C252.186 145.56 250.206 145.28 248.126 144.4C246.126 143.36 244.586 142.08 243.506 140.56C242.466 139.04 241.806 137.4 241.526 135.64C241.246 133.88 241.306 132.1 241.706 130.3C242.146 128.5 242.826 126.84 243.746 125.32C244.706 123.76 245.846 122.4 247.166 121.24C248.526 120.08 250.006 119.28 251.606 118.84C253.246 118.4 254.946 118.4 256.706 118.84C258.466 119.24 260.226 120.24 261.986 121.84ZM258.086 127C257.806 126.76 257.546 126.44 257.306 126.04C257.306 126.04 257.226 126 257.066 125.92L256.526 125.56C256.486 125.52 256.446 125.5 256.406 125.5C256.366 125.5 256.306 125.48 256.226 125.44C256.146 125.4 255.946 125.34 255.626 125.26C255.306 125.14 255.046 125.06 254.846 125.02H254.786C254.706 124.98 254.486 124.98 254.126 125.02C253.766 125.02 253.546 125.02 253.466 125.02C252.146 125.26 251.086 125.82 250.286 126.7C249.486 127.54 248.866 128.38 248.426 129.22C248.386 129.3 248.326 129.44 248.246 129.64C248.166 129.84 248.086 130.06 248.006 130.3C247.966 130.54 247.906 130.76 247.826 130.96C247.786 131.12 247.766 131.22 247.766 131.26C247.686 132.14 247.706 132.9 247.826 133.54C248.346 136.54 249.626 138.34 251.666 138.94C251.746 138.98 251.886 139 252.086 139C252.326 139 252.306 139 252.026 139C252.106 139.04 252.286 139.06 252.566 139.06C252.886 139.02 253.066 139 253.106 139C253.706 138.84 254.146 138.68 254.426 138.52C254.706 138.36 255.166 138.08 255.806 137.68C256.126 137.36 256.546 136.9 257.066 136.3C257.626 135.7 258.066 135.02 258.386 134.26C258.346 134.38 258.346 134.36 258.386 134.2C258.466 134.04 258.546 133.82 258.626 133.54C258.706 133.26 258.786 132.98 258.866 132.7C258.946 132.38 259.006 132.12 259.046 131.92C259.086 131.52 259.106 131.16 259.106 130.84C259.106 130.56 259.106 130.3 259.106 130.06C259.106 129.78 259.086 129.6 259.046 129.52V129.46L258.986 129.28C258.986 129.16 258.906 128.88 258.746 128.44C258.626 128 258.546 127.76 258.506 127.72C258.346 127.4 258.206 127.16 258.086 127ZM259.046 131.86V131.74V131.92V131.86ZM286.439 156.76C286.439 158.84 285.399 159.88 283.319 159.88C281.279 159.88 280.259 158.84 280.259 156.76V122.68C280.259 121.4 280.619 120.48 281.339 119.92C282.059 119.36 282.819 119.08 283.619 119.08C284.259 119.12 284.819 119.3 285.299 119.62C285.819 119.9 286.159 120.32 286.319 120.88C287.439 120.2 288.419 119.76 289.259 119.56C290.699 119.24 291.959 119.04 293.039 118.96C294.159 118.88 295.159 118.92 296.039 119.08C296.919 119.24 297.699 119.52 298.379 119.92C299.099 120.28 299.779 120.74 300.419 121.3C301.379 122.14 302.139 123.12 302.699 124.24C303.259 125.36 303.639 126.58 303.839 127.9C304.079 129.18 304.119 130.5 303.959 131.86C303.839 133.22 303.559 134.56 303.119 135.88C302.679 137.16 302.099 138.36 301.379 139.48C300.659 140.6 299.799 141.58 298.799 142.42C297.839 143.26 296.739 143.92 295.499 144.4C294.299 144.88 292.979 145.08 291.539 145C289.859 144.92 288.139 144.48 286.379 143.68L286.439 156.76ZM286.379 137.26C287.179 137.66 287.999 138 288.839 138.28C289.719 138.56 290.559 138.72 291.359 138.76C292.199 138.76 292.999 138.6 293.759 138.28C294.559 137.96 295.259 137.42 295.859 136.66C297.019 135.18 297.739 133.76 298.019 132.4C298.299 131 298.259 129.76 297.899 128.68C297.579 127.6 296.999 126.7 296.159 125.98C295.319 125.26 294.339 124.82 293.219 124.66C292.139 124.5 290.979 124.66 289.739 125.14C288.539 125.62 287.399 126.5 286.319 127.78L286.379 137.26ZM324.608 143.32C323.568 143.92 322.668 144.32 321.908 144.52C320.468 144.84 319.188 145.04 318.068 145.12C316.988 145.2 316.008 145.16 315.128 145C314.248 144.84 313.448 144.58 312.728 144.22C312.048 143.82 311.388 143.34 310.748 142.78C309.788 141.94 309.028 140.96 308.468 139.84C307.908 138.72 307.508 137.52 307.268 136.24C307.068 134.92 307.028 133.58 307.148 132.22C307.308 130.86 307.608 129.52 308.048 128.2C308.488 126.92 309.068 125.72 309.788 124.6C310.508 123.48 311.348 122.5 312.308 121.66C313.308 120.82 314.408 120.16 315.608 119.68C316.848 119.2 318.188 119 319.628 119.08C320.748 119.16 321.908 119.4 323.108 119.8C324.348 120.2 325.648 120.82 327.008 121.66C327.168 121.62 327.448 121.6 327.848 121.6C329.888 121.6 330.908 122.64 330.908 124.72V142.3C330.908 143.5 330.588 144.38 329.948 144.94C329.308 145.5 328.608 145.78 327.848 145.78C327.088 145.82 326.368 145.62 325.688 145.18C325.048 144.74 324.688 144.12 324.608 143.32ZM324.728 126.76C323.928 126.36 323.108 126.04 322.268 125.8C321.428 125.52 320.588 125.38 319.748 125.38C318.908 125.34 318.108 125.48 317.348 125.8C316.588 126.08 315.908 126.62 315.308 127.42C314.148 128.9 313.428 130.32 313.148 131.68C312.868 133.04 312.888 134.26 313.208 135.34C313.528 136.42 314.108 137.32 314.948 138.04C315.788 138.76 316.748 139.22 317.828 139.42C318.908 139.58 320.048 139.44 321.248 139C322.488 138.52 323.648 137.66 324.728 136.42V126.76ZM353.837 127.3C352.837 127.58 351.417 127.02 349.577 125.62C348.937 125.1 348.157 124.86 347.237 124.9C346.357 124.9 345.477 125.06 344.597 125.38C343.757 125.66 342.977 126.04 342.257 126.52C341.537 126.96 341.057 127.38 340.817 127.78V141.94C340.817 142.94 340.497 143.68 339.857 144.16C339.217 144.64 338.497 144.88 337.697 144.88C336.937 144.88 336.237 144.64 335.597 144.16C334.957 143.68 334.637 142.94 334.637 141.94V139C334.597 138 334.557 137.08 334.517 136.24C334.517 135.4 334.557 134.6 334.637 133.84V122.14C334.637 121.22 334.897 120.52 335.417 120.04C335.977 119.52 336.597 119.22 337.277 119.14C337.997 119.06 338.677 119.2 339.317 119.56C339.997 119.88 340.457 120.42 340.697 121.18C340.937 120.94 341.137 120.76 341.297 120.64C341.937 120.16 342.737 119.8 343.697 119.56C344.697 119.28 345.737 119.14 346.817 119.14C347.897 119.1 348.977 119.2 350.057 119.44C351.137 119.64 352.077 119.98 352.877 120.46C354.157 121.22 355.117 122.26 355.757 123.58C356.117 124.34 356.117 125.08 355.757 125.8C355.397 126.48 354.757 126.98 353.837 127.3ZM374.53 143.32C373.49 143.92 372.59 144.32 371.83 144.52C370.39 144.84 369.11 145.04 367.99 145.12C366.91 145.2 365.93 145.16 365.05 145C364.17 144.84 363.37 144.58 362.65 144.22C361.97 143.82 361.31 143.34 360.67 142.78C359.71 141.94 358.95 140.96 358.39 139.84C357.83 138.72 357.43 137.52 357.19 136.24C356.99 134.92 356.95 133.58 357.07 132.22C357.23 130.86 357.53 129.52 357.97 128.2C358.41 126.92 358.99 125.72 359.71 124.6C360.43 123.48 361.27 122.5 362.23 121.66C363.23 120.82 364.33 120.16 365.53 119.68C366.77 119.2 368.11 119 369.55 119.08C370.67 119.16 371.83 119.4 373.03 119.8C374.27 120.2 375.57 120.82 376.93 121.66C377.09 121.62 377.37 121.6 377.77 121.6C379.81 121.6 380.83 122.64 380.83 124.72V142.3C380.83 143.5 380.51 144.38 379.87 144.94C379.23 145.5 378.53 145.78 377.77 145.78C377.01 145.82 376.29 145.62 375.61 145.18C374.97 144.74 374.61 144.12 374.53 143.32ZM374.65 126.76C373.85 126.36 373.03 126.04 372.19 125.8C371.35 125.52 370.51 125.38 369.67 125.38C368.83 125.34 368.03 125.48 367.27 125.8C366.51 126.08 365.83 126.62 365.23 127.42C364.07 128.9 363.35 130.32 363.07 131.68C362.79 133.04 362.81 134.26 363.13 135.34C363.45 136.42 364.03 137.32 364.87 138.04C365.71 138.76 366.67 139.22 367.75 139.42C368.83 139.58 369.97 139.44 371.17 139C372.41 138.52 373.57 137.66 374.65 136.42V126.76ZM400.604 124.6C399.884 124.6 399.184 124.54 398.504 124.42C397.264 124.18 396.344 123.7 395.744 122.98C395.184 122.26 394.944 121.54 395.024 120.82C395.104 120.14 395.424 119.54 395.984 119.02C396.544 118.5 397.384 118.24 398.504 118.24H400.604V106.12C400.604 105.08 400.924 104.3 401.564 103.78C402.204 103.26 402.904 103 403.664 103C404.464 103 405.184 103.26 405.824 103.78C406.464 104.3 406.784 105.08 406.784 106.12V118.24H409.844C410.884 118.24 411.644 118.6 412.124 119.32C412.644 120 412.904 120.74 412.904 121.54C412.904 122.34 412.644 123.06 412.124 123.7C411.644 124.34 410.884 124.58 409.844 124.42C409.404 124.34 408.924 124.3 408.404 124.3C407.884 124.26 407.344 124.26 406.784 124.3V142.3C406.784 143.3 406.464 144.06 405.824 144.58C405.184 145.1 404.464 145.36 403.664 145.36C402.904 145.36 402.204 145.1 401.564 144.58C400.924 144.06 400.604 143.3 400.604 142.3V124.6ZM433.607 121.84C433.687 121.88 433.807 121.98 433.967 122.14C435.407 123.66 436.327 125.4 436.727 127.36C437.167 129.28 437.207 131.22 436.847 133.18C436.487 135.1 435.767 136.94 434.687 138.7C433.647 140.46 432.367 141.92 430.847 143.08C429.327 144.2 427.607 144.92 425.687 145.24C423.807 145.56 421.827 145.28 419.747 144.4C417.747 143.36 416.207 142.08 415.127 140.56C414.087 139.04 413.427 137.4 413.147 135.64C412.867 133.88 412.927 132.1 413.327 130.3C413.767 128.5 414.447 126.84 415.367 125.32C416.327 123.76 417.467 122.4 418.787 121.24C420.147 120.08 421.627 119.28 423.227 118.84C424.867 118.4 426.567 118.4 428.327 118.84C430.087 119.24 431.847 120.24 433.607 121.84ZM429.707 127C429.427 126.76 429.167 126.44 428.927 126.04C428.927 126.04 428.847 126 428.687 125.92L428.147 125.56C428.107 125.52 428.067 125.5 428.027 125.5C427.987 125.5 427.927 125.48 427.847 125.44C427.767 125.4 427.567 125.34 427.247 125.26C426.927 125.14 426.667 125.06 426.467 125.02H426.407C426.327 124.98 426.107 124.98 425.747 125.02C425.387 125.02 425.167 125.02 425.087 125.02C423.767 125.26 422.707 125.82 421.907 126.7C421.107 127.54 420.487 128.38 420.047 129.22C420.007 129.3 419.947 129.44 419.867 129.64C419.787 129.84 419.707 130.06 419.627 130.3C419.587 130.54 419.527 130.76 419.447 130.96C419.407 131.12 419.387 131.22 419.387 131.26C419.307 132.14 419.327 132.9 419.447 133.54C419.967 136.54 421.247 138.34 423.287 138.94C423.367 138.98 423.507 139 423.707 139C423.947 139 423.927 139 423.647 139C423.727 139.04 423.907 139.06 424.187 139.06C424.507 139.02 424.687 139 424.727 139C425.327 138.84 425.767 138.68 426.047 138.52C426.327 138.36 426.787 138.08 427.427 137.68C427.747 137.36 428.167 136.9 428.687 136.3C429.247 135.7 429.687 135.02 430.007 134.26C429.967 134.38 429.967 134.36 430.007 134.2C430.087 134.04 430.167 133.82 430.247 133.54C430.327 133.26 430.407 132.98 430.487 132.7C430.567 132.38 430.627 132.12 430.667 131.92C430.707 131.52 430.727 131.16 430.727 130.84C430.727 130.56 430.727 130.3 430.727 130.06C430.727 129.78 430.707 129.6 430.667 129.52V129.46L430.607 129.28C430.607 129.16 430.527 128.88 430.367 128.44C430.247 128 430.167 127.76 430.127 127.72C429.967 127.4 429.827 127.16 429.707 127ZM430.667 131.86V131.74V131.92V131.86ZM457.794 106.12C457.794 104.04 458.834 103 460.914 103C462.954 103 463.974 104.04 463.974 106.12V141.4C463.974 142.68 463.614 143.6 462.894 144.16C462.174 144.72 461.414 145 460.614 145C459.974 144.96 459.394 144.8 458.874 144.52C458.394 144.2 458.074 143.76 457.914 143.2C456.794 143.88 455.814 144.32 454.974 144.52C453.534 144.84 452.254 145.04 451.134 145.12C450.054 145.2 449.074 145.16 448.194 145C447.314 144.84 446.514 144.58 445.794 144.22C445.114 143.82 444.454 143.34 443.814 142.78C442.854 141.94 442.094 140.96 441.534 139.84C440.974 138.72 440.574 137.52 440.334 136.24C440.134 134.92 440.094 133.58 440.214 132.22C440.374 130.86 440.674 129.52 441.114 128.2C441.554 126.92 442.134 125.72 442.854 124.6C443.574 123.48 444.414 122.5 445.374 121.66C446.374 120.82 447.474 120.16 448.674 119.68C449.914 119.2 451.254 119 452.694 119.08C454.374 119.16 456.094 119.6 457.854 120.4L457.794 106.12ZM457.854 126.82C457.054 126.42 456.214 126.08 455.334 125.8C454.494 125.52 453.654 125.38 452.814 125.38C452.014 125.34 451.214 125.48 450.414 125.8C449.654 126.08 448.974 126.62 448.374 127.42C447.214 128.9 446.494 130.34 446.214 131.74C445.934 133.1 445.954 134.32 446.274 135.4C446.634 136.48 447.234 137.38 448.074 138.1C448.914 138.82 449.874 139.26 450.954 139.42C452.074 139.58 453.234 139.44 454.434 139C455.674 138.52 456.834 137.62 457.914 136.3L457.854 126.82ZM487.923 121.84C488.003 121.88 488.123 121.98 488.283 122.14C489.723 123.66 490.643 125.4 491.043 127.36C491.483 129.28 491.523 131.22 491.163 133.18C490.803 135.1 490.083 136.94 489.003 138.7C487.963 140.46 486.683 141.92 485.163 143.08C483.643 144.2 481.923 144.92 480.003 145.24C478.123 145.56 476.143 145.28 474.063 144.4C472.063 143.36 470.523 142.08 469.443 140.56C468.403 139.04 467.743 137.4 467.463 135.64C467.183 133.88 467.243 132.1 467.643 130.3C468.083 128.5 468.763 126.84 469.683 125.32C470.643 123.76 471.783 122.4 473.103 121.24C474.463 120.08 475.943 119.28 477.543 118.84C479.183 118.4 480.883 118.4 482.643 118.84C484.403 119.24 486.163 120.24 487.923 121.84ZM484.023 127C483.743 126.76 483.483 126.44 483.243 126.04C483.243 126.04 483.163 126 483.003 125.92L482.463 125.56C482.423 125.52 482.383 125.5 482.343 125.5C482.303 125.5 482.243 125.48 482.163 125.44C482.083 125.4 481.883 125.34 481.563 125.26C481.243 125.14 480.983 125.06 480.783 125.02H480.723C480.643 124.98 480.423 124.98 480.063 125.02C479.703 125.02 479.483 125.02 479.403 125.02C478.083 125.26 477.023 125.82 476.223 126.7C475.423 127.54 474.803 128.38 474.363 129.22C474.323 129.3 474.263 129.44 474.183 129.64C474.103 129.84 474.023 130.06 473.943 130.3C473.903 130.54 473.843 130.76 473.763 130.96C473.723 131.12 473.703 131.22 473.703 131.26C473.623 132.14 473.643 132.9 473.763 133.54C474.283 136.54 475.563 138.34 477.603 138.94C477.683 138.98 477.823 139 478.023 139C478.263 139 478.243 139 477.963 139C478.043 139.04 478.223 139.06 478.503 139.06C478.823 139.02 479.003 139 479.043 139C479.643 138.84 480.083 138.68 480.363 138.52C480.643 138.36 481.103 138.08 481.743 137.68C482.063 137.36 482.483 136.9 483.003 136.3C483.563 135.7 484.003 135.02 484.323 134.26C484.283 134.38 484.283 134.36 484.323 134.2C484.403 134.04 484.483 133.82 484.563 133.54C484.643 133.26 484.723 132.98 484.803 132.7C484.883 132.38 484.943 132.12 484.983 131.92C485.023 131.52 485.043 131.16 485.043 130.84C485.043 130.56 485.043 130.3 485.043 130.06C485.043 129.78 485.023 129.6 484.983 129.52V129.46L484.923 129.28C484.923 129.16 484.843 128.88 484.683 128.44C484.563 128 484.483 127.76 484.443 127.72C484.283 127.4 484.143 127.16 484.023 127ZM484.983 131.86V131.74V131.92V131.86ZM501.265 128.2C502.385 128.6 503.605 128.96 504.925 129.28C506.245 129.56 507.505 129.96 508.705 130.48C509.945 130.96 511.025 131.6 511.945 132.4C512.905 133.16 513.565 134.22 513.925 135.58C514.285 136.9 514.325 138.08 514.045 139.12C513.765 140.16 513.285 141.08 512.605 141.88C511.925 142.64 511.085 143.26 510.085 143.74C509.085 144.22 508.025 144.54 506.905 144.7C505.105 145.02 503.305 144.88 501.505 144.28C499.705 143.68 498.145 142.72 496.825 141.4C496.225 140.8 495.905 140.16 495.865 139.48C495.825 138.8 495.965 138.2 496.285 137.68C496.605 137.16 497.065 136.78 497.665 136.54C498.305 136.3 499.025 136.32 499.825 136.6C500.385 136.8 500.925 137.06 501.445 137.38C501.965 137.7 502.485 138 503.005 138.28C503.565 138.56 504.105 138.76 504.625 138.88C505.185 139 505.765 138.96 506.365 138.76C507.365 138.4 507.905 138.08 507.985 137.8C508.065 137.48 507.845 137.18 507.325 136.9C506.805 136.62 506.045 136.32 505.045 136C504.085 135.68 503.045 135.32 501.925 134.92C500.925 134.56 499.925 134.16 498.925 133.72C497.965 133.24 497.085 132.72 496.285 132.16C495.485 131.56 494.825 130.88 494.305 130.12C493.825 129.36 493.585 128.5 493.585 127.54C493.585 125.38 494.145 123.64 495.265 122.32C496.425 121 497.845 120.06 499.525 119.5C501.085 118.98 502.745 118.8 504.505 118.96C506.305 119.12 507.965 119.6 509.485 120.4C510.165 120.76 510.865 121.28 511.585 121.96C512.305 122.6 512.925 123.3 513.445 124.06C513.965 124.78 514.305 125.5 514.465 126.22C514.665 126.9 514.545 127.48 514.105 127.96C513.865 128.28 513.485 128.56 512.965 128.8C512.485 129.04 511.825 129.08 510.985 128.92C510.385 128.8 509.825 128.56 509.305 128.2C508.785 127.84 508.265 127.46 507.745 127.06C507.225 126.62 506.705 126.2 506.185 125.8C505.665 125.4 505.065 125.12 504.385 124.96C503.825 124.8 503.145 124.82 502.345 125.02C501.545 125.18 500.885 125.44 500.365 125.8C499.845 126.16 499.585 126.56 499.585 127C499.625 127.44 500.185 127.84 501.265 128.2Z" fill="white"/>
</svg>
