<svg width="160" height="40" viewBox="0 0 160 40" fill="none" xmlns="http://www.w3.org/2000/svg">
<path d="M50.4432 37.6944C50.4721 37.6992 50.5023 37.7028 50.5325 37.7076C50.4468 34.6669 50.3611 28.5046 50.2755 25.9329C50.261 25.5133 49.9944 25.1431 49.5974 25.0033C49.0581 24.8128 48.3294 24.4474 47.6984 23.7385C47.1832 23.1586 46.9093 22.5497 46.7633 22.0855C46.6584 21.7551 46.7307 21.3946 46.9527 21.127L46.9853 21.0872C47.2532 20.7628 47.2966 20.3083 47.0939 19.9406L43.7446 13.8494C43.5661 13.5251 43.1004 13.5251 42.923 13.8494L39.5737 19.9406C39.4338 20.195 39.4121 20.4892 39.5001 20.7532C39.5592 20.9329 39.7064 21.0691 39.8826 21.1342C39.914 21.1463 39.9441 21.1571 39.9731 21.1668C40.9636 21.5176 41.626 22.4195 41.6598 23.4636L42.0784 36.0293C42.0833 36.1885 42.0724 36.3452 42.0483 36.4983C41.7201 36.4634 41.3931 36.4308 41.065 36.3995C41.0855 36.2897 41.0963 36.1776 41.0927 36.0607C40.9528 31.8721 40.8128 27.6835 40.6741 23.4949C40.6523 22.8511 40.2361 22.2905 39.6292 22.0746C38.81 21.7841 37.7073 21.227 36.7517 20.154C35.9638 19.269 35.5488 18.3394 35.3256 17.6317C35.1675 17.1313 35.281 16.5839 35.6152 16.18L35.6658 16.1197C36.0736 15.6266 36.14 14.9345 35.8311 14.3739L30.7324 5.10212C30.6998 5.04304 30.66 4.9912 30.6166 4.94538V2.47733C30.6166 2.47733 31.5203 2.92344 32.2418 2.71968C32.9633 2.51591 33.8802 1.38377 34.9106 1.87087C34.9455 1.88775 34.9166 0.202191 33.9647 0.100913C33.0127 -0.000365303 32.2466 0.501202 31.4057 0.137084C30.0242 -0.360867 29.5621 0.657942 29.5621 0.657942V4.98517C29.5331 5.02013 29.5054 5.05751 29.4825 5.09971L24.3838 14.3715C24.0749 14.9321 24.1413 15.6242 24.5491 16.1173L24.5997 16.1776C24.9351 16.5815 25.0473 17.1289 24.8893 17.6293C24.6661 18.337 24.251 19.2678 23.4632 20.1516C22.5076 21.2246 21.4061 21.7817 20.5857 22.0722C19.9776 22.288 19.5613 22.8487 19.5408 23.4925C19.4009 27.6811 19.2609 31.8697 19.1222 36.0583C19.1186 36.1595 19.1258 36.2584 19.1415 36.3549C18.835 36.3826 18.5298 36.4127 18.2233 36.4429C18.2052 36.3054 18.1956 36.1668 18.2004 36.0257L18.6191 23.46C18.654 22.4146 19.3164 21.514 20.3058 21.1631C20.3359 21.1523 20.3661 21.1414 20.3962 21.1306C20.5736 21.0643 20.7196 20.928 20.7787 20.7496C20.8668 20.4855 20.8451 20.1901 20.7051 19.937L17.3558 13.8458C17.1773 13.5215 16.7116 13.5215 16.5342 13.8458L13.1849 19.937C12.9822 20.3059 13.0257 20.7604 13.2935 21.0836L13.3261 21.1234C13.5469 21.391 13.6193 21.7503 13.5155 22.0819C13.3683 22.5461 13.0957 23.1549 12.5805 23.7349C11.9495 24.4438 11.2207 24.8104 10.6814 24.9997C10.2857 25.1395 10.0178 25.5097 10.0034 25.9292C9.91891 28.4757 9.83325 34.5403 9.74879 37.6112C6.51293 38.1803 3.30241 38.8856 0.130493 39.732C13.9233 37.2169 28.0021 36.3042 41.9819 37.4267C45.3782 37.6932 48.8192 38.0693 52.1974 38.5468C54.6684 38.8892 57.1297 39.3028 59.5933 39.732C56.5747 38.9254 53.521 38.2454 50.4444 37.6908L50.4432 37.6944ZM23.6924 28.6951C23.6888 28.712 23.6852 28.7276 23.6816 28.7445H23.6804C23.5271 29.3052 23.0156 29.7175 22.4063 29.7175C21.6764 29.7175 21.084 29.1255 21.084 28.3961C21.084 28.3491 21.0864 28.3032 21.0912 28.2574C21.0996 28.1779 21.1153 28.1007 21.137 28.0259C21.248 27.3978 21.5328 26.4055 22.3062 25.4687C23.6297 23.8651 25.4539 23.5516 26.0487 23.4841C26.0536 23.4841 26.0596 23.4841 26.0644 23.4817C26.1055 23.4769 26.1392 23.4732 26.167 23.4708C26.4903 23.4708 26.7521 23.7325 26.7521 24.0556C26.7521 24.2449 26.6604 24.4113 26.5217 24.5174H26.5229C26.5145 24.5246 26.506 24.5318 26.4976 24.5379C26.4952 24.5391 26.4939 24.5403 26.4915 24.5427C26.0113 24.8839 25.4322 25.3638 24.8362 26.1909C24.0978 27.2157 23.8457 28.0199 23.7009 28.6493C23.6985 28.665 23.6936 28.6794 23.69 28.6939L23.6924 28.6951ZM36.1038 36.0317C35.2062 35.9835 34.3073 35.9461 33.4085 35.9184L32.8764 34.1967C32.7956 33.935 32.8716 33.6529 33.0658 33.46C33.6208 32.909 33.9538 32.2 33.9538 31.426C33.9538 30.7641 33.7101 30.0394 33.2926 29.392C33.2359 29.3052 33.2468 29.1894 33.318 29.1135C33.7306 28.677 33.9236 27.8342 33.6932 27.2386C33.5931 26.9782 33.3433 26.5888 33.0417 26.5936C32.9427 26.5948 32.7895 26.6394 32.3902 27.2386C32.243 27.4593 32.1175 27.6461 32.0174 27.8101C31.9534 27.915 31.8183 27.95 31.7097 27.8909C31.2271 27.6269 30.6914 27.4689 30.1255 27.4689C29.6007 27.4689 29.1 27.6052 28.6452 27.8354C28.539 27.8885 28.4099 27.8523 28.3471 27.7522C28.253 27.6027 28.1408 27.4327 28.0105 27.2386C27.61 26.6394 27.4579 26.5948 27.359 26.5936C27.0574 26.5888 26.8076 26.9794 26.7075 27.2386C26.4915 27.7957 26.6472 28.5685 27.0067 29.023C27.0719 29.105 27.0767 29.2184 27.0176 29.3052C26.5651 29.9731 26.2985 30.7339 26.2985 31.426C26.2985 32.2531 26.6798 33.0067 27.3047 33.5721C27.5171 33.7638 27.6027 34.058 27.5183 34.3305L27.0333 35.8991C26.0717 35.922 25.1089 35.9582 24.1485 36.0052V29.0942C24.4875 25.8846 27.2709 23.4974 30.3777 23.6264C33.3059 23.7481 35.7889 26.0751 36.1026 29.0942V36.0317H36.1038ZM37.805 29.7175C37.1957 29.7175 36.6841 29.3052 36.5309 28.7433H36.5297C36.5261 28.7276 36.5225 28.7108 36.5188 28.6939C36.5152 28.6794 36.5116 28.6637 36.508 28.6493C36.3632 28.0199 36.111 27.2157 35.3727 26.1909C34.7766 25.3638 34.1975 24.8839 33.7173 24.5427C33.7149 24.5415 33.7137 24.5403 33.7113 24.5379C33.7029 24.5318 33.6944 24.5258 33.686 24.5198H33.6872C33.5484 24.4113 33.4567 24.2449 33.4567 24.0556C33.4567 23.7325 33.7185 23.4708 34.0419 23.4708C34.0696 23.4732 34.1046 23.4769 34.1444 23.4817C34.1493 23.4817 34.1553 23.4817 34.1601 23.4841C34.7561 23.5516 36.5792 23.8651 37.9027 25.4687C38.6761 26.4055 38.9608 27.399 39.0718 28.0259C39.0935 28.1007 39.1092 28.1779 39.1177 28.2574C39.1225 28.3032 39.1249 28.3491 39.1249 28.3961C39.1249 29.1255 38.5325 29.7175 37.8026 29.7175H37.805Z" fill="#FFAF45"/>
<path d="M70.4869 18.8515C70.4705 19.6101 70.4832 20.3596 70.5233 21.1017C70.5615 21.8439 70.5669 22.5934 70.5342 23.3519C70.5032 24.1415 70.4905 24.9274 70.4996 25.7079C70.5069 26.4902 70.5105 27.2834 70.5105 28.0876C70.5105 28.2772 70.4941 28.4705 70.4632 28.6675C70.4323 28.8644 70.3449 29.0267 70.203 29.1525C70.0774 29.2637 69.9354 29.3385 69.7771 29.3768C69.6187 29.4169 69.4531 29.437 69.2802 29.437C69.1073 29.437 68.9326 29.4297 68.7597 29.4133C68.5868 29.3987 68.4285 29.3896 68.2865 29.3896C68.1609 29.3896 68.019 29.4005 67.8606 29.426C67.7023 29.4497 67.5531 29.4534 67.4111 29.437C67.2691 29.4206 67.1345 29.3823 67.0089 29.3184C66.8833 29.2565 66.7959 29.1525 66.7486 29.0103C66.7177 28.9319 66.6977 28.8443 66.6886 28.7495C66.6813 28.6547 66.6758 28.569 66.6758 28.4888C66.6594 28.1423 66.6449 27.8013 66.6285 27.4712C66.6121 27.1394 66.6048 26.8075 66.6048 26.4756C66.6048 26.2075 66.6176 25.9431 66.6412 25.6824C66.6649 25.4216 66.6613 25.1572 66.6285 24.8891C66.5976 24.5737 66.5939 24.2546 66.6176 23.93C66.6412 23.6072 66.6522 23.2863 66.6522 22.9708C66.6522 22.8924 66.6449 22.8359 66.6285 22.8049C66.5648 22.7265 66.4902 22.7064 66.4046 22.7447C66.3173 22.7848 66.2354 22.8468 66.1571 22.9344C66.0789 23.0219 66.0079 23.1112 65.9442 23.2061C65.8805 23.3009 65.8423 23.372 65.8259 23.4194C65.7003 23.6565 65.5584 23.8935 65.4 24.1306C65.3218 24.2564 65.2271 24.3439 65.1161 24.3913C65.0051 24.4223 64.9032 24.4114 64.8085 24.3549C64.7139 24.3002 64.6265 24.2254 64.5483 24.1306C64.5009 24.0832 64.4372 23.961 64.359 23.764C64.2807 23.5671 64.1861 23.3647 64.0751 23.1605C63.9641 22.9562 63.8549 22.7903 63.7438 22.6626C63.6328 22.5368 63.5309 22.5204 63.4363 22.6152C63.4199 22.6316 63.3962 22.6936 63.3653 22.8049C63.3343 23.1203 63.338 23.4285 63.3762 23.7294C63.4162 24.0303 63.4272 24.3366 63.4126 24.6539C63.3962 24.9694 63.3999 25.2739 63.4235 25.5657C63.4472 25.8574 63.4599 26.162 63.4599 26.4774C63.4599 27.1412 63.4363 27.8122 63.3889 28.4906C63.3889 28.569 63.3853 28.6565 63.3762 28.7513C63.3689 28.8462 63.3489 28.9337 63.318 29.0121C63.2706 29.1543 63.1833 29.2565 63.0577 29.3203C62.9321 29.3841 62.7974 29.4224 62.6555 29.4388C62.5135 29.4534 62.3643 29.4516 62.2059 29.4279C62.0476 29.4042 61.9057 29.3914 61.7801 29.3914C61.6381 29.3914 61.4798 29.3987 61.3069 29.4151C61.134 29.4297 60.9593 29.4388 60.7864 29.4388C60.6135 29.4388 60.4442 29.4187 60.2786 29.3786C60.113 29.3403 59.9747 29.2637 59.8655 29.1543C59.7235 29.0285 59.6416 28.8662 59.6179 28.6693C59.5943 28.4723 59.5815 28.2791 59.5815 28.0894V25.7097C59.5815 24.9274 59.5652 24.1433 59.5342 23.3538C59.5033 22.5952 59.5106 21.8457 59.5579 21.1035C59.6052 20.3614 59.6125 19.6119 59.5815 18.8533C59.5815 18.4905 59.5943 18.1349 59.6179 17.7884C59.6416 17.4419 59.6689 17.0864 59.6998 16.7217C59.7144 16.5958 59.7381 16.47 59.7708 16.3424C59.8018 16.2165 59.8655 16.1144 59.9601 16.0342C60.0383 15.9558 60.133 15.912 60.244 15.9047C60.3532 15.8974 60.4642 15.892 60.5752 15.892H61.7328C62.1113 15.892 62.4971 15.9321 62.8921 16.0105C63.0177 16.0415 63.1323 16.0816 63.2342 16.129C63.3362 16.1764 63.4272 16.2475 63.5054 16.3424C63.5527 16.3898 63.5764 16.4372 63.5764 16.4846C63.6547 16.563 63.7184 16.6469 63.7657 16.7326C63.813 16.8201 63.8603 16.9095 63.9076 17.0043C64.0023 17.1775 64.1005 17.3526 64.2025 17.5258C64.3044 17.6991 64.4027 17.8741 64.4973 18.0473C64.5282 18.1258 64.581 18.2169 64.6502 18.319C64.7212 18.4212 64.8194 18.4722 64.945 18.4722C65.0542 18.4722 65.1652 18.4084 65.2763 18.2826C65.3873 18.1568 65.4655 18.0546 65.5129 17.9744C65.6384 17.8012 65.7404 17.6188 65.8204 17.4292C65.8987 17.2395 65.9933 17.0499 66.1044 16.8602C66.2154 16.687 66.3409 16.5211 66.4829 16.3624C66.6249 16.2056 66.7978 16.0944 67.0034 16.0305C67.382 15.9047 67.7915 15.85 68.2319 15.8646C68.6723 15.881 69.0982 15.8883 69.5077 15.8883C69.6024 15.8883 69.7043 15.892 69.8153 15.9011C69.9245 15.9084 70.0191 15.9521 70.0992 16.0305C70.1939 16.109 70.2576 16.2129 70.2885 16.3387C70.3194 16.4645 70.3431 16.5922 70.3595 16.718C70.3904 17.0809 70.4195 17.4365 70.4432 17.7848C70.4668 18.133 70.4778 18.4868 70.4778 18.8497L70.4869 18.8515Z" fill="#FFAF45"/>
<path d="M82.3531 27.3541C82.3677 27.48 82.3768 27.6076 82.3768 27.7334V28.1127C82.3913 28.2859 82.3968 28.4647 82.3895 28.6452C82.3822 28.8275 82.3222 28.988 82.213 29.1302C82.102 29.3035 82.0001 29.3873 81.9054 29.3782C81.8108 29.3709 81.6761 29.3582 81.5032 29.3436C81.0464 29.3126 80.5968 29.3071 80.1564 29.3308C79.7142 29.3545 79.2664 29.3509 78.8096 29.3199C78.6513 29.3199 78.533 29.2889 78.4547 29.2251C78.3765 29.1466 78.3291 29.0591 78.3128 28.9643C78.2964 28.8695 78.2891 28.7674 78.2891 28.6561C78.2891 28.6251 78.2818 28.6014 78.2655 28.585C78.0452 28.8385 77.785 29.0427 77.4847 29.2014C77.0752 29.4074 76.6366 29.5004 76.1725 29.4858C75.7084 29.4694 75.2552 29.4147 74.8129 29.3199C74.3707 29.2251 73.9466 29.0919 73.5371 28.9169C73.1276 28.7437 72.7891 28.4756 72.5216 28.1109C72.3159 27.8264 72.1667 27.4945 72.072 27.1153C71.7718 26.1196 71.6698 25.1021 71.7645 24.0591C71.8591 23.016 72.143 22.0386 72.6162 21.1214C72.8364 20.7111 73.0894 20.3209 73.3733 19.9489C73.6573 19.5787 74.0031 19.2742 74.4144 19.0371C74.9185 18.7216 75.4827 18.5594 76.1051 18.5521C76.7276 18.5448 77.3063 18.6742 77.8432 18.9423C77.9215 18.9733 77.9925 19.0098 78.0562 19.0481C78.1199 19.0882 78.1908 19.1319 78.2691 19.1775C78.3801 18.7034 78.6786 18.4591 79.1682 18.4427C80.0035 18.3952 80.8225 18.4189 81.627 18.5138C81.7362 18.5302 81.8435 18.5484 81.9455 18.5721C82.0474 18.5958 82.1384 18.656 82.2166 18.749C82.4059 19.0025 82.4805 19.3216 82.4405 19.7082C82.4004 20.0948 82.3731 20.4303 82.3568 20.7147C82.3568 21.125 82.3531 21.5408 82.3459 21.9584C82.3386 22.376 82.3331 22.7917 82.3331 23.202C82.3167 23.8968 82.3131 24.5842 82.3222 25.2626C82.3295 25.9409 82.3422 26.6357 82.3568 27.3468L82.3531 27.3541ZM77.7923 24.7958C77.9178 24.6535 77.9925 24.4803 78.0161 24.2742C78.0398 24.07 78.0434 23.8712 78.027 23.6816C78.0107 23.6196 77.9997 23.5594 77.9925 23.5047C77.9852 23.45 77.9652 23.3898 77.9324 23.3278C77.9015 23.264 77.8614 23.2093 77.8141 23.1619C77.7668 23.1145 77.7195 23.0744 77.6721 23.0434C77.3573 22.8537 77.0297 22.7625 76.6912 22.7717C76.3526 22.779 76.0487 22.9102 75.7812 23.1619C75.6702 23.2731 75.581 23.3953 75.51 23.5284C75.439 23.6634 75.4044 23.8092 75.4044 23.9661C75.4044 24.2505 75.4954 24.4912 75.6756 24.6882C75.8576 24.8851 76.0815 25.0237 76.349 25.1021C76.6948 25.1805 77.0351 25.1568 77.3646 25.031C77.4428 25 77.5138 24.9726 77.5775 24.9489C77.6412 24.9252 77.7031 24.8815 77.7668 24.8195L77.7904 24.7958H77.7923Z" fill="#FFAF45"/>
<path d="M86.8814 24.9849C86.6375 24.89 86.3882 24.7879 86.137 24.6767C85.4126 24.3302 84.8139 23.8707 84.3407 23.3036C84.0404 22.9571 83.8638 22.5815 83.8092 22.1785C83.7546 21.7755 83.7892 21.3816 83.9148 20.995C84.0404 20.6084 84.2533 20.2492 84.5536 19.9173C84.8521 19.5854 85.207 19.3101 85.6165 19.0876C85.8203 18.9782 86.0387 18.8907 86.2662 18.8269C86.4937 18.7649 86.7267 18.7083 86.9633 18.6609C87.4838 18.5661 88.0152 18.5223 88.5594 18.5315C89.1036 18.5387 89.6277 18.6153 90.1319 18.7557C90.4776 18.8506 90.8052 18.9892 91.1128 19.1697C91.4204 19.352 91.6916 19.5654 91.9282 19.8097C92.1648 20.0541 92.3541 20.3276 92.496 20.6267C92.638 20.9275 92.7235 21.2266 92.7563 21.5275C92.7872 21.6697 92.7563 21.7882 92.6616 21.8831C92.6143 21.9141 92.5269 21.9469 92.4014 21.9779C92.1484 22.0417 91.9009 22.0964 91.657 22.1438C91.4131 22.1912 91.1638 22.2459 90.9126 22.3098C90.8344 22.3262 90.7434 22.3408 90.6414 22.3572C90.5395 22.3736 90.4285 22.3882 90.3102 22.4046C90.1919 22.421 90.0809 22.4246 89.979 22.4155C89.8771 22.4082 89.7933 22.3882 89.7315 22.3572C89.6841 22.3408 89.6295 22.2861 89.5658 22.1912C89.4403 21.9706 89.2619 21.8083 89.0344 21.7062C88.8051 21.6041 88.5648 21.6077 88.3137 21.7171C88.2354 21.7481 88.1717 21.7955 88.1244 21.8594C88.0462 21.9852 88.0607 22.1201 88.1717 22.2623C88.25 22.3736 88.3683 22.452 88.5266 22.4994C88.6686 22.5778 88.8142 22.6489 88.9634 22.7128C89.1127 22.7766 89.2674 22.8313 89.4239 22.8787C89.5822 22.9261 89.7351 22.9808 89.8843 23.0446C90.0336 23.1085 90.1883 23.1705 90.3448 23.2343C90.7233 23.3455 91.0691 23.526 91.3858 23.7795C91.5114 23.8579 91.6297 23.9527 91.7407 24.064C91.8499 24.1752 91.9537 24.2846 92.0483 24.3959C92.0792 24.4433 92.1193 24.5144 92.1666 24.6092C92.2139 24.704 92.2649 24.8098 92.3195 24.9283C92.3741 25.0468 92.4214 25.1617 92.4614 25.2711C92.5015 25.3824 92.5215 25.4608 92.5215 25.5082C92.5834 25.8875 92.5888 26.2467 92.5324 26.5859C92.4778 26.9251 92.3559 27.277 92.1666 27.6399C92.0083 27.9243 91.8153 28.1851 91.5878 28.4222C91.3585 28.6592 91.0873 28.8635 90.7725 29.0385C90.5668 29.1497 90.3503 29.2354 90.1228 29.2993C89.8934 29.3631 89.6623 29.4178 89.4257 29.4652C88.3537 29.6549 87.2981 29.622 86.2589 29.3704C85.5491 29.1807 84.9504 28.8252 84.4626 28.3055C83.9749 27.7839 83.6982 27.2168 83.6345 26.6005C83.6345 26.5385 83.6382 26.471 83.6473 26.3999C83.6545 26.3288 83.6909 26.2777 83.7528 26.2467C83.7838 26.2157 83.8202 26.1957 83.8584 26.1884C83.8966 26.1811 83.9403 26.1683 83.9876 26.1519C84.2388 26.0899 84.4881 26.0297 84.732 25.975C84.9758 25.9203 85.2252 25.8693 85.4763 25.8218C85.6183 25.7908 85.8185 25.7507 86.0788 25.7033C86.339 25.6559 86.5319 25.6723 86.6575 25.7507C86.7048 25.7817 86.7594 25.8455 86.8231 25.9404C86.9651 26.161 87.1453 26.3434 87.3673 26.4856C87.5875 26.6278 87.8314 26.6515 88.1008 26.5567C88.321 26.4783 88.4393 26.3434 88.4557 26.1537C88.4866 25.9805 88.432 25.8382 88.29 25.727C88.2263 25.665 88.1645 25.6121 88.1008 25.5738C88.0371 25.5337 87.9661 25.4991 87.8878 25.4681L87.6039 25.3258C87.3673 25.2 87.1271 25.0888 86.8832 24.994L86.8814 24.9849Z" fill="#FFAF45"/>
<path d="M101.809 24.4398C101.998 24.6131 102.147 24.8155 102.258 25.0434C102.368 25.2732 102.462 25.5048 102.542 25.7418C102.637 26.0263 102.715 26.3181 102.779 26.6189C102.841 26.9198 102.857 27.2262 102.826 27.5435C102.795 27.7641 102.715 28.0212 102.59 28.313C102.464 28.6047 102.282 28.8144 102.045 28.9403C101.636 29.1609 101.194 29.2922 100.722 29.3305C100.249 29.3706 99.7759 29.3815 99.3045 29.367C98.8004 29.3524 98.2999 29.3195 97.803 29.2721C97.3062 29.2247 96.8293 29.1153 96.3725 28.9403C95.9467 28.767 95.5845 28.561 95.2842 28.3239C94.6545 27.8352 94.2049 27.2462 93.9374 26.5588C93.6699 25.8713 93.5516 25.1656 93.5825 24.4398C93.5971 24.2192 93.6098 23.9931 93.6189 23.7651C93.6262 23.5372 93.6535 23.3111 93.7008 23.0904C93.7791 22.6327 93.8974 22.1714 94.0557 21.7046C94.2122 21.2396 94.4488 20.8092 94.7655 20.4135C95.033 20.0817 95.3606 19.7935 95.7465 19.5492C96.1323 19.3048 96.5454 19.1024 96.9877 18.9456C97.7921 18.6611 98.642 18.5226 99.5411 18.5317C100.44 18.539 101.29 18.6848 102.095 18.9693C102.173 19.0003 102.251 19.0368 102.331 19.0751C102.409 19.1152 102.488 19.159 102.568 19.2045C102.71 19.3158 102.804 19.4452 102.852 19.5948C102.899 19.7443 102.919 19.9029 102.91 20.0689C102.903 20.2348 102.879 20.4008 102.839 20.5667C102.799 20.7326 102.764 20.8858 102.733 21.0281C102.655 21.3909 102.551 21.7392 102.426 22.0693C102.3 22.4012 102.166 22.7403 102.024 23.0886C101.96 23.2619 101.882 23.3895 101.787 23.4679C101.676 23.5627 101.558 23.6101 101.432 23.6101C101.306 23.6101 101.179 23.5791 101.054 23.5153C100.928 23.4515 100.801 23.3804 100.675 23.302C100.549 23.2236 100.438 23.1597 100.344 23.1123C100.202 23.0485 100.06 22.9938 99.9179 22.9464C99.7759 22.899 99.6267 22.868 99.4683 22.8516C99.1207 22.8042 98.8386 22.8917 98.6166 23.1123C98.5219 23.2236 98.4546 23.3457 98.4164 23.4789C98.3763 23.6138 98.349 23.7433 98.3326 23.8691C98.3163 24.1225 98.3472 24.3705 98.4273 24.6149C98.5055 24.8592 98.6548 25.0452 98.8768 25.1711C99.0661 25.2823 99.2699 25.3169 99.492 25.2768C99.7122 25.2367 99.9251 25.1711 100.131 25.0762C100.225 25.0288 100.344 24.9504 100.486 24.8392C100.628 24.7298 100.777 24.6258 100.935 24.531C101.092 24.4362 101.25 24.3687 101.408 24.3304C101.565 24.2921 101.7 24.3268 101.811 24.4362L101.809 24.4398Z" fill="#FFAF45"/>
<path d="M111.784 20.7455C111.799 20.7765 111.815 20.8057 111.831 20.8294C111.846 20.8531 111.862 20.8804 111.879 20.9114C112.052 21.3071 112.177 21.7083 112.257 22.1186C112.336 22.5289 112.383 22.9446 112.399 23.3622C112.414 23.7816 112.407 24.1992 112.376 24.6168C112.345 25.0344 112.305 25.4501 112.257 25.8604C112.226 26.2233 112.166 26.5825 112.081 26.9381C111.993 27.2937 111.857 27.6165 111.668 27.91C111.478 28.2018 111.231 28.4626 110.923 28.6923C110.616 28.9221 110.234 29.099 109.777 29.2248C109.147 29.367 108.532 29.429 107.933 29.4144C107.538 29.429 107.138 29.3907 106.728 29.2959C106.492 29.2649 106.262 29.2175 106.042 29.1537C105.822 29.0917 105.609 29.0042 105.403 28.8929C105.103 28.7197 104.845 28.5136 104.623 28.2766C104.402 28.0395 104.22 27.7879 104.078 27.518C103.858 27.1387 103.693 26.7412 103.581 26.3218C103.47 25.9042 103.399 25.4811 103.369 25.0544C103.338 24.6441 103.33 24.2302 103.345 23.8108C103.359 23.3932 103.416 22.9866 103.511 22.5909C103.667 22.0074 103.869 21.422 104.113 20.8385C104.357 20.255 104.755 19.7736 105.307 19.3943C105.638 19.1736 106.017 19.004 106.443 18.8855C106.868 18.767 107.294 18.6995 107.718 18.6849C108.175 18.6703 108.608 18.6813 109.018 18.7196C109.427 18.7597 109.837 18.8892 110.246 19.1098C110.592 19.3159 110.892 19.5602 111.145 19.8447C111.396 20.1291 111.609 20.43 111.784 20.7455ZM107.342 22.7349C107.311 22.9246 107.294 23.1179 107.294 23.3148C107.294 23.5118 107.302 23.705 107.318 23.8947V25.1493C107.332 25.2277 107.342 25.3079 107.342 25.3863C107.342 25.4647 107.356 25.545 107.389 25.6234C107.451 25.7966 107.569 25.9078 107.744 25.9552C107.838 25.9862 107.944 25.999 108.062 25.9917C108.181 25.9844 108.279 25.948 108.357 25.886L108.499 25.7437C108.608 25.6015 108.679 25.4356 108.712 25.2459C108.743 25.0563 108.767 24.8757 108.783 24.7007C108.845 24.0697 108.83 23.3896 108.736 22.6638C108.705 22.5052 108.665 22.3958 108.617 22.3319C108.554 22.2207 108.468 22.1459 108.357 22.1076C108.246 22.0694 108.133 22.0566 108.015 22.0712C107.897 22.0876 107.786 22.1259 107.684 22.1897C107.582 22.2535 107.507 22.3319 107.46 22.4268C107.396 22.5526 107.358 22.6565 107.342 22.7349Z" fill="#FFAF45"/>
<path d="M122.327 28.3004C122.027 28.7107 121.65 29.059 121.193 29.3417C120.784 29.5787 120.338 29.7447 119.858 29.8395C119.377 29.9343 118.887 29.958 118.392 29.9106C117.897 29.8632 117.422 29.741 116.975 29.5441C116.525 29.3471 116.136 29.0827 115.804 28.7509C115.362 28.2932 115.064 27.768 114.905 27.1753C114.747 26.5827 114.645 25.9882 114.598 25.3865C114.581 25.1968 114.567 24.9725 114.55 24.7118C114.534 24.451 114.523 24.183 114.516 23.9058C114.509 23.6304 114.5 23.3606 114.492 23.0998C114.485 22.839 114.479 22.6147 114.479 22.4251C114.274 22.4251 114.074 22.4178 113.877 22.4014C113.681 22.385 113.502 22.3066 113.346 22.1643C113.251 22.0859 113.187 21.9875 113.156 21.8689C113.125 21.7504 113.102 21.6282 113.085 21.5024C113.069 21.3456 113.062 21.2143 113.062 21.1122V20.1767C113.062 19.9561 113.082 19.6953 113.122 19.3944C113.16 19.0954 113.284 18.8729 113.488 18.7307C113.597 18.6523 113.735 18.6012 113.901 18.5775C114.066 18.5538 114.236 18.5429 114.409 18.5429V17.6311C114.409 17.3229 114.425 16.94 114.456 16.4823C114.456 16.3565 114.472 16.2215 114.503 16.0793C114.534 15.9371 114.614 15.8422 114.74 15.7948C114.882 15.7328 115.031 15.7037 115.189 15.7128C115.348 15.7201 115.504 15.7237 115.662 15.7237C116.072 15.7401 116.485 15.731 116.904 15.7C117.32 15.669 117.735 15.669 118.145 15.7C118.334 15.7164 118.487 15.7711 118.605 15.8659C118.724 15.9608 118.815 16.0793 118.877 16.2215C118.94 16.3638 118.978 16.5224 118.995 16.6956C119.011 16.8689 119.019 17.0439 119.019 17.2172C119.002 17.4542 118.995 17.6913 118.995 17.9283V18.6395H119.586C119.681 18.6395 119.776 18.6468 119.87 18.6632C119.965 18.6796 120.052 18.7179 120.131 18.7817C120.209 18.8601 120.265 18.9513 120.296 19.0534C120.327 19.1556 120.343 19.2704 120.343 19.3963C120.358 19.5695 120.371 19.7154 120.378 19.8339C120.385 19.9524 120.391 20.0637 120.391 20.1658V20.9353C120.391 21.1085 120.378 21.2836 120.354 21.4568C120.331 21.6301 120.271 21.7887 120.178 21.9309C120.005 22.1516 119.819 22.2865 119.623 22.3339C119.426 22.3813 119.193 22.405 118.926 22.405V23.6487C118.926 23.7982 118.929 23.9569 118.938 24.1228C118.946 24.2887 118.953 24.451 118.962 24.6078C118.969 24.7665 118.973 24.8923 118.973 24.9871C118.989 25.113 118.993 25.2515 118.986 25.4011C118.978 25.5506 119.029 25.6655 119.139 25.7439C119.281 25.8697 119.403 25.8734 119.504 25.7567C119.606 25.6381 119.714 25.5397 119.823 25.4612C119.949 25.3664 120.091 25.3318 120.249 25.3555C120.407 25.3792 120.556 25.4138 120.698 25.4612C120.935 25.5397 121.168 25.6235 121.395 25.7092C121.623 25.7968 121.849 25.8861 122.069 25.9809C122.225 26.0448 122.411 26.1104 122.624 26.1815C122.837 26.2526 122.966 26.3821 123.013 26.5718C123.028 26.6502 123.021 26.7541 122.99 26.8799C122.864 27.4015 122.642 27.8756 122.327 28.3004Z" fill="#1E1B4B"/>
<path d="M134.288 27.3541C134.303 27.48 134.312 27.6076 134.312 27.7334V28.1127C134.326 28.2859 134.332 28.4647 134.325 28.6452C134.317 28.8275 134.257 28.988 134.148 29.1302C134.037 29.3035 133.935 29.3873 133.841 29.3782C133.746 29.3709 133.611 29.3582 133.438 29.3436C132.981 29.3126 132.532 29.3071 132.092 29.3308C131.649 29.3545 131.202 29.3509 130.745 29.3199C130.586 29.3199 130.468 29.2889 130.39 29.2251C130.312 29.1466 130.264 29.0591 130.248 28.9643C130.232 28.8695 130.224 28.7674 130.224 28.6561C130.224 28.6251 130.217 28.6014 130.201 28.585C129.98 28.8385 129.72 29.0427 129.42 29.2014C129.01 29.4074 128.572 29.5004 128.108 29.4858C127.643 29.4694 127.19 29.4147 126.748 29.3199C126.306 29.2251 125.882 29.0919 125.472 28.9169C125.063 28.7437 124.724 28.4756 124.457 28.1109C124.251 27.8264 124.102 27.4945 124.007 27.1153C123.707 26.1196 123.605 25.1021 123.7 24.0591C123.794 23.016 124.078 22.0386 124.551 21.1214C124.772 20.7111 125.025 20.3209 125.308 19.9489C125.592 19.5787 125.938 19.2742 126.349 19.0371C126.854 18.7216 127.418 18.5594 128.04 18.5521C128.663 18.5448 129.241 18.6742 129.778 18.9423C129.857 18.9733 129.928 19.0098 129.991 19.0481C130.055 19.0882 130.126 19.1319 130.204 19.1775C130.315 18.7034 130.614 18.4591 131.103 18.4427C131.939 18.3952 132.758 18.4189 133.562 18.5138C133.671 18.5302 133.779 18.5484 133.881 18.5721C133.982 18.5958 134.073 18.656 134.152 18.749C134.341 19.0025 134.416 19.3216 134.376 19.7082C134.336 20.0948 134.308 20.4303 134.292 20.7147C134.292 21.125 134.288 21.5408 134.281 21.9584C134.274 22.376 134.268 22.7917 134.268 23.202C134.252 23.8968 134.248 24.5842 134.257 25.2626C134.265 25.9409 134.277 26.6357 134.292 27.3468L134.288 27.3541ZM129.727 24.7958C129.853 24.6535 129.928 24.4803 129.951 24.2742C129.975 24.07 129.979 23.8712 129.962 23.6816C129.946 23.6196 129.935 23.5594 129.928 23.5047C129.92 23.45 129.9 23.3898 129.868 23.3278C129.837 23.264 129.797 23.2093 129.749 23.1619C129.702 23.1145 129.655 23.0744 129.607 23.0434C129.292 22.8537 128.965 22.7625 128.626 22.7717C128.288 22.779 127.984 22.9102 127.716 23.1619C127.605 23.2731 127.516 23.3953 127.445 23.5284C127.374 23.6634 127.34 23.8092 127.34 23.9661C127.34 24.2505 127.431 24.4912 127.611 24.6882C127.793 24.8851 128.017 25.0237 128.284 25.1021C128.63 25.1805 128.97 25.1568 129.3 25.031C129.378 25 129.449 24.9726 129.513 24.9489C129.576 24.9252 129.638 24.8815 129.702 24.8195L129.726 24.7958H129.727Z" fill="#1E1B4B"/>
<path d="M138.674 29.5911C138.241 29.5838 137.812 29.5711 137.386 29.5547C137.227 29.5547 137.067 29.5437 136.902 29.52C136.736 29.4963 136.574 29.4598 136.418 29.4142C136.259 29.3668 136.117 29.2957 135.992 29.2009C135.866 29.1061 135.771 28.9803 135.708 28.8216C135.613 28.601 135.569 28.3749 135.579 28.1469C135.586 27.919 135.599 27.6929 135.613 27.4722C135.628 27.2516 135.626 27.0382 135.602 26.8322C135.579 26.6279 135.566 26.4146 135.566 26.1921C135.58 25.687 135.593 25.1746 135.602 24.6531C135.609 24.1315 135.622 23.6191 135.637 23.114C135.668 22.0874 135.699 21.0735 135.731 20.0706C135.762 19.0677 135.793 18.0538 135.826 17.0272C135.826 16.8849 135.833 16.739 135.85 16.5895C135.864 16.44 135.904 16.3087 135.968 16.1993C136.046 16.0899 136.137 16.0188 136.239 15.9859C136.341 15.9549 136.448 15.9312 136.558 15.9148C136.967 15.8528 137.38 15.8127 137.799 15.7963C138.216 15.7817 138.631 15.789 139.04 15.82C139.386 15.851 139.626 15.9932 139.761 16.2467C139.896 16.5002 139.97 16.8776 139.985 17.3846C139.999 17.9371 140.012 18.4696 140.019 18.9838C140.027 19.498 140.016 20.0305 139.985 20.583C139.954 21.2139 139.934 21.8467 139.925 22.4776C139.917 23.1086 139.921 23.7413 139.937 24.3722C139.937 24.5309 139.948 24.6804 139.972 24.8227C139.996 24.9649 140.047 25.0998 140.125 25.2256C140.219 25.3369 140.334 25.4116 140.467 25.4499C140.6 25.4901 140.731 25.5174 140.856 25.532C140.998 25.5484 141.137 25.5484 141.27 25.532C141.402 25.5174 141.541 25.5083 141.683 25.5083C141.808 25.5247 141.93 25.5521 142.049 25.5922C142.167 25.6323 142.258 25.7071 142.32 25.8165C142.351 25.8639 142.367 25.9149 142.367 25.9696C142.367 26.0243 142.374 26.0845 142.391 26.1465C142.469 26.9671 142.431 27.7895 142.272 28.6101C142.241 28.7687 142.191 28.9183 142.12 29.0605C142.049 29.2027 141.95 29.3212 141.825 29.4161C141.652 29.5419 141.466 29.613 141.27 29.6294C141.073 29.644 140.871 29.644 140.667 29.6294H139.981C139.539 29.613 139.102 29.6021 138.669 29.5948L138.674 29.5911Z" fill="#1E1B4B"/>
<path d="M144.476 19.8686C145.281 19.7902 146.1 19.7665 146.935 19.7975C147.281 19.8285 147.521 19.9324 147.656 20.1056C147.791 20.2789 147.865 20.5487 147.88 20.9116C148.005 23.5648 147.982 26.2089 147.809 28.8457C147.809 28.9405 147.802 29.0317 147.785 29.1174C147.769 29.2049 147.722 29.2797 147.643 29.3417C147.596 29.3727 147.541 29.3928 147.478 29.4001C147.414 29.4074 147.352 29.4201 147.288 29.4365C146.721 29.4675 146.155 29.4803 145.587 29.473C145.019 29.4657 144.46 29.4365 143.909 29.3891C143.798 29.3891 143.719 29.3745 143.672 29.3417C143.625 29.3107 143.594 29.2669 143.577 29.2122C143.561 29.1575 143.537 29.0974 143.506 29.0354C143.459 28.8147 143.435 28.5886 143.435 28.3607V27.6623C143.483 26.4934 143.53 25.33 143.577 24.1684C143.625 23.0087 143.672 21.8434 143.719 20.6746C143.719 20.5652 143.727 20.4576 143.743 20.3555C143.758 20.2533 143.805 20.1622 143.885 20.0838C143.965 20.0053 144.054 19.9543 144.156 19.9306C144.258 19.9069 144.365 19.8868 144.475 19.8704L144.476 19.8686ZM144.242 15.9134C144.493 15.835 144.742 15.7912 144.986 15.7839C145.23 15.7766 145.487 15.7803 145.754 15.7949C145.991 15.8113 146.224 15.8113 146.451 15.7949C146.679 15.7803 146.904 15.7876 147.125 15.8186C147.267 15.835 147.405 15.8623 147.538 15.9024C147.672 15.9426 147.778 16.0246 147.856 16.1504C147.887 16.2143 147.907 16.2799 147.914 16.351C147.922 16.4222 147.934 16.4969 147.951 16.5753V17.1552C147.951 17.3521 147.958 17.5546 147.974 17.7588C147.974 17.9174 147.958 18.036 147.927 18.1144C147.849 18.2566 147.718 18.3441 147.538 18.3751C147.356 18.4061 147.179 18.4152 147.006 18.3988C146.628 18.3678 146.249 18.3551 145.872 18.3624C145.494 18.3697 145.115 18.3897 144.737 18.4225C144.642 18.4389 144.544 18.4462 144.442 18.4462C144.34 18.4462 144.249 18.4225 144.171 18.3751C144.012 18.2967 143.907 18.1782 143.852 18.0195C143.798 17.8609 143.769 17.6968 143.769 17.5217C143.752 17.3175 143.745 17.1187 143.745 16.9291C143.745 16.7394 143.759 16.5498 143.792 16.3601C143.792 16.3127 143.807 16.2416 143.839 16.1468C143.887 16.0684 143.945 16.0137 144.016 15.9809C144.087 15.9499 144.162 15.9262 144.24 15.9097L144.242 15.9134Z" fill="#1E1B4B"/>
<path d="M159.772 27.3541C159.786 27.48 159.795 27.6076 159.795 27.7334V28.1127C159.81 28.2859 159.815 28.4647 159.808 28.6452C159.801 28.8275 159.741 28.988 159.632 29.1302C159.521 29.3035 159.419 29.3873 159.324 29.3782C159.229 29.3709 159.095 29.3582 158.922 29.3436C158.465 29.3126 158.015 29.3071 157.575 29.3308C157.133 29.3545 156.685 29.3509 156.228 29.3199C156.07 29.3199 155.952 29.2889 155.873 29.2251C155.795 29.1466 155.748 29.0591 155.731 28.9643C155.715 28.8695 155.708 28.7674 155.708 28.6561C155.708 28.6251 155.7 28.6014 155.684 28.585C155.464 28.8385 155.204 29.0427 154.903 29.2014C154.494 29.4074 154.055 29.5004 153.591 29.4858C153.127 29.4694 152.674 29.4147 152.231 29.3199C151.789 29.2251 151.365 29.0919 150.956 28.9169C150.546 28.7437 150.208 28.4756 149.94 28.1109C149.734 27.8264 149.585 27.4945 149.491 27.1153C149.19 26.1196 149.088 25.1021 149.183 24.0591C149.278 23.016 149.562 22.0386 150.035 21.1214C150.255 20.7111 150.508 20.3209 150.792 19.9489C151.076 19.5787 151.422 19.2742 151.833 19.0371C152.337 18.7216 152.901 18.5594 153.524 18.5521C154.146 18.5448 154.725 18.6742 155.262 18.9423C155.34 18.9733 155.411 19.0098 155.475 19.0481C155.538 19.0882 155.609 19.1319 155.688 19.1775C155.799 18.7034 156.097 18.4591 156.587 18.4427C157.422 18.3952 158.241 18.4189 159.046 18.5138C159.155 18.5302 159.262 18.5484 159.364 18.5721C159.466 18.5958 159.557 18.656 159.635 18.749C159.824 19.0025 159.899 19.3216 159.859 19.7082C159.819 20.0948 159.792 20.4303 159.775 20.7147C159.775 21.125 159.772 21.5408 159.764 21.9584C159.757 22.376 159.752 22.7917 159.752 23.202C159.735 23.8968 159.732 24.5842 159.741 25.2626C159.748 25.9409 159.761 26.6357 159.775 27.3468L159.772 27.3541ZM155.209 24.7958C155.335 24.6535 155.409 24.4803 155.433 24.2742C155.456 24.07 155.46 23.8712 155.444 23.6816C155.427 23.6196 155.416 23.5594 155.409 23.5047C155.402 23.45 155.382 23.3898 155.349 23.3278C155.318 23.264 155.278 23.2093 155.231 23.1619C155.184 23.1145 155.136 23.0744 155.089 23.0434C154.774 22.8537 154.446 22.7625 154.108 22.7717C153.769 22.779 153.465 22.9102 153.198 23.1619C153.087 23.2731 152.998 23.3953 152.927 23.5284C152.856 23.6634 152.821 23.8092 152.821 23.9661C152.821 24.2505 152.912 24.4912 153.092 24.6882C153.274 24.8851 153.498 25.0237 153.766 25.1021C154.112 25.1805 154.452 25.1568 154.781 25.031C154.86 25 154.931 24.9726 154.994 24.9489C155.058 24.9252 155.12 24.8815 155.183 24.8195L155.207 24.7958H155.209Z" fill="#1E1B4B"/>
</svg>
