<svg width="160" height="41" viewBox="0 0 160 41" fill="none" xmlns="http://www.w3.org/2000/svg">
<path d="M50.4431 38.4263C50.472 38.4311 50.5022 38.4348 50.5323 38.4396C50.4467 35.3988 50.361 29.2365 50.2753 26.6648C50.2609 26.2452 49.9942 25.8751 49.5973 25.7352C49.058 25.5447 48.3293 25.1794 47.6982 24.4704C47.1831 23.8905 46.9092 23.2816 46.7632 22.8174C46.6582 22.4871 46.7306 22.1266 46.9526 21.8589L46.9852 21.8191C47.253 21.4948 47.2965 21.0402 47.0938 20.6725L43.7445 14.5813C43.5659 14.257 43.1002 14.257 42.9229 14.5813L39.5736 20.6725C39.4337 20.9269 39.4119 21.2211 39.5 21.4851C39.5591 21.6648 39.7063 21.801 39.8825 21.8661C39.9138 21.8782 39.944 21.889 39.973 21.8987C40.9635 22.2495 41.6259 23.1514 41.6597 24.1955L42.0783 36.7612C42.0831 36.9204 42.0723 37.0771 42.0482 37.2303C41.72 37.1953 41.393 37.1627 41.0648 37.1314C41.0854 37.0217 41.0962 36.9096 41.0926 36.7926C40.9526 32.604 40.8127 28.4155 40.6739 24.2269C40.6522 23.583 40.236 23.0224 39.6291 22.8066C38.8099 22.516 37.7071 21.959 36.7516 20.8859C35.9637 20.0009 35.5487 19.0713 35.3255 18.3636C35.1674 17.8632 35.2808 17.3159 35.615 16.912L35.6657 16.8517C36.0735 16.3585 36.1399 15.6665 35.831 15.1058L30.7323 5.83406C30.6997 5.77498 30.6599 5.72313 30.6165 5.67732V3.20926C30.6165 3.20926 31.5201 3.65537 32.2416 3.45161C32.9631 3.24785 33.8801 2.1157 34.9104 2.6028C34.9454 2.61968 34.9165 0.934124 33.9645 0.832846C33.0126 0.731568 32.2465 1.23314 31.4055 0.869017C30.0241 0.371066 29.562 1.38988 29.562 1.38988V5.7171C29.533 5.75207 29.5053 5.78944 29.4824 5.83164L24.3836 15.1034C24.0748 15.6641 24.1411 16.3561 24.5489 16.8493L24.5996 16.9095C24.935 17.3134 25.0472 17.8608 24.8892 18.3612C24.666 19.0689 24.2509 19.9997 23.4631 20.8835C22.5075 21.9566 21.406 22.5136 20.5855 22.8042C19.9775 23.02 19.5612 23.5806 19.5407 24.2245C19.4008 28.413 19.2608 32.6016 19.122 36.7902C19.1184 36.8915 19.1257 36.9903 19.1414 37.0868C18.8349 37.1145 18.5297 37.1447 18.2232 37.1748C18.2051 37.0374 18.1954 36.8987 18.2003 36.7576L18.6189 24.1919C18.6539 23.1466 19.3163 22.2459 20.3056 21.8951C20.3358 21.8842 20.366 21.8734 20.3961 21.8625C20.5735 21.7962 20.7195 21.66 20.7786 21.4815C20.8667 21.2175 20.8449 20.9221 20.705 20.6689L17.3557 14.5777C17.1772 14.2534 16.7114 14.2534 16.5341 14.5777L13.1848 20.6689C12.9821 21.0378 13.0256 21.4924 13.2934 21.8155L13.326 21.8553C13.5468 22.1229 13.6192 22.4822 13.5154 22.8138C13.3682 23.278 13.0955 23.8869 12.5803 24.4668C11.9493 25.1758 11.2206 25.5423 10.6813 25.7316C10.2856 25.8714 10.0177 26.2416 10.0032 26.6612C9.91879 29.2076 9.83313 35.2722 9.74867 38.3431C6.51281 38.9122 3.30229 39.6175 0.130371 40.4639C13.9232 37.9489 28.002 37.0362 41.9818 38.1586C45.3781 38.4251 48.8191 38.8013 52.1973 39.2787C54.6683 39.6212 57.1295 40.0347 59.5932 40.4639C56.5745 39.6573 53.5209 38.9773 50.4443 38.4227L50.4431 38.4263ZM23.6923 29.427C23.6887 29.4439 23.6851 29.4596 23.6814 29.4765H23.6802C23.527 30.0371 23.0155 30.4495 22.4062 30.4495C21.6762 30.4495 21.0838 29.8575 21.0838 29.128C21.0838 29.081 21.0862 29.0352 21.0911 28.9894C21.0995 28.9098 21.1152 28.8326 21.1369 28.7579C21.2479 28.1297 21.5327 27.1374 22.306 26.2006C23.6296 24.597 25.4538 24.2835 26.0486 24.216C26.0534 24.216 26.0595 24.216 26.0643 24.2136C26.1053 24.2088 26.1391 24.2052 26.1669 24.2028C26.4902 24.2028 26.752 24.4644 26.752 24.7875C26.752 24.9768 26.6603 25.1432 26.5216 25.2493H26.5228C26.5143 25.2565 26.5059 25.2638 26.4974 25.2698C26.495 25.271 26.4938 25.2722 26.4914 25.2746C26.0112 25.6158 25.4321 26.0957 24.8361 26.9228C24.0977 27.9476 23.8455 28.7518 23.7008 29.3812C23.6983 29.3969 23.6935 29.4114 23.6899 29.4258L23.6923 29.427ZM36.1037 36.7637C35.206 36.7154 34.3072 36.6781 33.4083 36.6503L32.8763 34.9286C32.7954 34.667 32.8714 34.3848 33.0657 34.1919C33.6207 33.6409 33.9537 32.932 33.9537 32.1579C33.9537 31.496 33.71 30.7714 33.2925 30.1239C33.2358 30.0371 33.2467 29.9214 33.3178 29.8454C33.7305 29.4089 33.9235 28.5662 33.6931 27.9706C33.5929 27.7101 33.3432 27.3207 33.0416 27.3255C32.9426 27.3267 32.7894 27.3713 32.39 27.9706C32.2428 28.1912 32.1174 28.3781 32.0172 28.5421C31.9533 28.6469 31.8182 28.6819 31.7096 28.6228C31.227 28.3588 30.6913 28.2008 30.1254 28.2008C29.6006 28.2008 29.0999 28.3371 28.645 28.5674C28.5389 28.6204 28.4098 28.5843 28.347 28.4842C28.2529 28.3347 28.1407 28.1647 28.0104 27.9706C27.6098 27.3713 27.4578 27.3267 27.3589 27.3255C27.0573 27.3207 26.8075 27.7113 26.7074 27.9706C26.4914 28.5276 26.6471 29.3004 27.0066 29.755C27.0717 29.837 27.0766 29.9503 27.0175 30.0371C26.565 30.7051 26.2984 31.4659 26.2984 32.1579C26.2984 32.985 26.6796 33.7386 27.3046 34.3041C27.5169 34.4958 27.6026 34.7899 27.5182 35.0624L27.0331 36.631C26.0715 36.6539 25.1088 36.6901 24.1484 36.7371V29.8261C24.4874 26.6166 27.2708 24.2293 30.3776 24.3583C33.3058 24.4801 35.7888 26.8071 36.1025 29.8261V36.7637H36.1037ZM37.8049 30.4495C37.1956 30.4495 36.684 30.0371 36.5308 29.4753H36.5296C36.526 29.4596 36.5223 29.4427 36.5187 29.4258C36.5151 29.4114 36.5115 29.3957 36.5079 29.3812C36.3631 28.7518 36.1109 27.9476 35.3725 26.9228C34.7765 26.0957 34.1974 25.6158 33.7172 25.2746C33.7148 25.2734 33.7136 25.2722 33.7112 25.2698C33.7027 25.2638 33.6943 25.2577 33.6858 25.2517H33.687C33.5483 25.1432 33.4566 24.9768 33.4566 24.7875C33.4566 24.4644 33.7184 24.2028 34.0418 24.2028C34.0695 24.2052 34.1045 24.2088 34.1443 24.2136C34.1491 24.2136 34.1552 24.2136 34.16 24.216C34.756 24.2835 36.579 24.597 37.9026 26.2006C38.676 27.1374 38.9607 28.1309 39.0717 28.7579C39.0934 28.8326 39.1091 28.9098 39.1175 28.9894C39.1224 29.0352 39.1248 29.081 39.1248 29.128C39.1248 29.8575 38.5324 30.4495 37.8024 30.4495H37.8049Z" fill="#FFAF45"/>
<path d="M70.4869 19.5827C70.4706 20.3413 70.4833 21.0908 70.5233 21.8329C70.5616 22.5751 70.567 23.3246 70.5343 24.0831C70.5033 24.8727 70.4906 25.6586 70.4997 26.4391C70.507 27.2214 70.5106 28.0146 70.5106 28.8188C70.5106 29.0084 70.4942 29.2017 70.4633 29.3987C70.4323 29.5956 70.345 29.7579 70.203 29.8837C70.0774 29.9949 69.9355 30.0697 69.7772 30.108C69.6188 30.1481 69.4532 30.1682 69.2803 30.1682C69.1074 30.1682 68.9327 30.1609 68.7598 30.1445C68.5869 30.1299 68.4285 30.1208 68.2866 30.1208C68.161 30.1208 68.019 30.1317 67.8607 30.1572C67.7024 30.1809 67.5531 30.1846 67.4112 30.1682C67.2692 30.1518 67.1345 30.1135 67.009 30.0497C66.8834 29.9877 66.796 29.8837 66.7487 29.7415C66.7178 29.6631 66.6977 29.5755 66.6886 29.4807C66.6814 29.3859 66.6759 29.3002 66.6759 29.22C66.6595 28.8735 66.645 28.5325 66.6286 28.2024C66.6122 27.8706 66.6049 27.5387 66.6049 27.2068C66.6049 26.9387 66.6177 26.6743 66.6413 26.4136C66.665 26.1528 66.6613 25.8884 66.6286 25.6203C66.5976 25.3049 66.594 24.9858 66.6177 24.6612C66.6413 24.3384 66.6522 24.0175 66.6522 23.702C66.6522 23.6236 66.645 23.5671 66.6286 23.5361C66.5649 23.4577 66.4903 23.4376 66.4047 23.4759C66.3174 23.516 66.2355 23.578 66.1572 23.6656C66.0789 23.7531 66.008 23.8424 65.9443 23.9373C65.8806 24.0321 65.8423 24.1032 65.826 24.1506C65.7004 24.3877 65.5584 24.6247 65.4001 24.8618C65.3218 24.9876 65.2272 25.0751 65.1162 25.1225C65.0052 25.1535 64.9032 25.1426 64.8086 25.0861C64.714 25.0314 64.6266 24.9566 64.5483 24.8618C64.501 24.8144 64.4373 24.6922 64.3591 24.4952C64.2808 24.2983 64.1862 24.0959 64.0751 23.8917C63.9641 23.6874 63.8549 23.5215 63.7439 23.3938C63.6329 23.268 63.531 23.2516 63.4363 23.3464C63.42 23.3628 63.3963 23.4248 63.3654 23.5361C63.3344 23.8515 63.3381 24.1597 63.3763 24.4606C63.4163 24.7615 63.4272 25.0678 63.4127 25.3851C63.3963 25.7006 63.3999 26.0051 63.4236 26.2969C63.4473 26.5886 63.46 26.8932 63.46 27.2086C63.46 27.8724 63.4363 28.5434 63.389 29.2218C63.389 29.3002 63.3854 29.3877 63.3763 29.4825C63.369 29.5774 63.349 29.6649 63.318 29.7433C63.2707 29.8855 63.1834 29.9877 63.0578 30.0515C62.9322 30.1153 62.7975 30.1536 62.6556 30.17C62.5136 30.1846 62.3644 30.1828 62.206 30.1591C62.0477 30.1354 61.9057 30.1226 61.7801 30.1226C61.6382 30.1226 61.4799 30.1299 61.307 30.1463C61.1341 30.1609 60.9593 30.17 60.7864 30.17C60.6135 30.17 60.4443 30.1499 60.2787 30.1098C60.113 30.0715 59.9747 29.9949 59.8655 29.8855C59.7236 29.7597 59.6417 29.5974 59.618 29.4005C59.5944 29.2035 59.5816 29.0103 59.5816 28.8206V26.4409C59.5816 25.6586 59.5652 24.8745 59.5343 24.085C59.5034 23.3264 59.5106 22.5769 59.558 21.8347C59.6053 21.0926 59.6126 20.3431 59.5816 19.5845C59.5816 19.2217 59.5944 18.8661 59.618 18.5196C59.6417 18.1731 59.669 17.8176 59.6999 17.4529C59.7145 17.327 59.7381 17.2012 59.7709 17.0736C59.8018 16.9477 59.8655 16.8456 59.9602 16.7654C60.0384 16.687 60.1331 16.6432 60.2441 16.6359C60.3533 16.6286 60.4643 16.6232 60.5753 16.6232H61.7328C62.1114 16.6232 62.4972 16.6633 62.8922 16.7417C63.0177 16.7727 63.1324 16.8128 63.2343 16.8602C63.3362 16.9076 63.4272 16.9787 63.5055 17.0736C63.5528 17.121 63.5765 17.1684 63.5765 17.2158C63.6547 17.2942 63.7184 17.3781 63.7657 17.4638C63.8131 17.5513 63.8604 17.6407 63.9077 17.7355C64.0023 17.9087 64.1006 18.0838 64.2025 18.257C64.3045 18.4303 64.4027 18.6053 64.4974 18.7785C64.5283 18.857 64.5811 18.9481 64.6503 19.0502C64.7212 19.1524 64.8195 19.2034 64.9451 19.2034C65.0543 19.2034 65.1653 19.1396 65.2763 19.0138C65.3874 18.888 65.4656 18.7858 65.5129 18.7056C65.6385 18.5324 65.7404 18.35 65.8205 18.1604C65.8988 17.9707 65.9934 17.7811 66.1044 17.5914C66.2154 17.4182 66.341 17.2523 66.483 17.0936C66.6249 16.9368 66.7978 16.8256 67.0035 16.7617C67.3821 16.6359 67.7915 16.5812 68.232 16.5958C68.6724 16.6122 69.0983 16.6195 69.5078 16.6195C69.6024 16.6195 69.7044 16.6232 69.8154 16.6323C69.9246 16.6396 70.0192 16.6833 70.0993 16.7617C70.1939 16.8402 70.2576 16.9441 70.2886 17.0699C70.3195 17.1957 70.3432 17.3234 70.3595 17.4492C70.3905 17.8121 70.4196 18.1677 70.4433 18.516C70.4669 18.8643 70.4778 19.218 70.4778 19.5809L70.4869 19.5827Z" fill="#FFAF45"/>
<path d="M82.3533 28.0858C82.3678 28.2116 82.3769 28.3393 82.3769 28.4651V28.8444C82.3915 29.0176 82.397 29.1963 82.3897 29.3769C82.3824 29.5592 82.3223 29.7197 82.2131 29.8619C82.1021 30.0352 82.0002 30.119 81.9056 30.1099C81.8109 30.1026 81.6762 30.0899 81.5033 30.0753C81.0465 30.0443 80.597 30.0388 80.1566 30.0625C79.7143 30.0862 79.2666 30.0826 78.8098 30.0516C78.6514 30.0516 78.5331 30.0206 78.4549 29.9567C78.3766 29.8783 78.3293 29.7908 78.3129 29.696C78.2965 29.6012 78.2893 29.499 78.2893 29.3878C78.2893 29.3568 78.282 29.3331 78.2656 29.3167C78.0454 29.5702 77.7851 29.7744 77.4848 29.933C77.0753 30.1391 76.6367 30.2321 76.1726 30.2175C75.7085 30.2011 75.2553 30.1464 74.8131 30.0516C74.3708 29.9567 73.9468 29.8236 73.5373 29.6486C73.1278 29.4753 72.7893 29.2073 72.5217 28.8426C72.3161 28.5581 72.1668 28.2262 72.0722 27.8469C71.7719 26.8513 71.67 25.8338 71.7646 24.7907C71.8593 23.7477 72.1432 22.7703 72.6164 21.8531C72.8366 21.4428 73.0896 21.0526 73.3735 20.6806C73.6574 20.3104 74.0032 20.0059 74.4145 19.7688C74.9186 19.4533 75.4828 19.291 76.1053 19.2837C76.7277 19.2765 77.3065 19.4059 77.8434 19.674C77.9216 19.705 77.9926 19.7414 78.0563 19.7797C78.12 19.8199 78.191 19.8636 78.2692 19.9092C78.3803 19.4351 78.6787 19.1908 79.1683 19.1743C80.0037 19.1269 80.8227 19.1506 81.6271 19.2455C81.7363 19.2619 81.8437 19.2801 81.9456 19.3038C82.0475 19.3275 82.1385 19.3877 82.2168 19.4807C82.4061 19.7342 82.4807 20.0533 82.4406 20.4399C82.4006 20.8264 82.3733 21.162 82.3569 21.4464C82.3569 21.8567 82.3533 22.2725 82.346 22.6901C82.3387 23.1076 82.3333 23.5234 82.3333 23.9337C82.3169 24.6284 82.3132 25.3159 82.3223 25.9943C82.3296 26.6726 82.3424 27.3674 82.3569 28.0785L82.3533 28.0858ZM77.7924 25.5274C77.918 25.3852 77.9926 25.212 78.0163 25.0059C78.0399 24.8017 78.0436 24.6029 78.0272 24.4133C78.0108 24.3513 77.9999 24.2911 77.9926 24.2364C77.9853 24.1817 77.9653 24.1215 77.9325 24.0595C77.9016 23.9957 77.8616 23.941 77.8142 23.8936C77.7669 23.8462 77.7196 23.806 77.6723 23.775C77.3574 23.5854 77.0298 23.4942 76.6913 23.5033C76.3528 23.5106 76.0489 23.6419 75.7813 23.8936C75.6703 24.0048 75.5811 24.127 75.5101 24.2601C75.4392 24.395 75.4046 24.5409 75.4046 24.6977C75.4046 24.9822 75.4956 25.2229 75.6758 25.4199C75.8578 25.6168 76.0816 25.7554 76.3492 25.8338C76.695 25.9122 77.0353 25.8885 77.3647 25.7627C77.443 25.7317 77.5139 25.7043 77.5776 25.6806C77.6413 25.6569 77.7032 25.6131 77.7669 25.5511L77.7906 25.5274H77.7924Z" fill="#FFAF45"/>
<path d="M86.8816 25.717C86.6377 25.6222 86.3884 25.5201 86.1372 25.4089C85.4129 25.0624 84.8141 24.6029 84.3409 24.0358C84.0406 23.6893 83.8641 23.3136 83.8095 22.9106C83.7549 22.5077 83.7895 22.1138 83.915 21.7272C84.0406 21.3406 84.2536 20.9814 84.5539 20.6495C84.8523 20.3176 85.2072 20.0423 85.6167 19.8198C85.8206 19.7104 86.039 19.6229 86.2665 19.559C86.494 19.497 86.7269 19.4405 86.9635 19.3931C87.484 19.2983 88.0155 19.2545 88.5596 19.2636C89.1038 19.2709 89.628 19.3475 90.1321 19.4879C90.4779 19.5827 90.8055 19.7213 91.1131 19.9019C91.4207 20.0842 91.6918 20.2976 91.9284 20.5419C92.165 20.7863 92.3543 21.0598 92.4963 21.3588C92.6382 21.6597 92.7238 21.9588 92.7565 22.2597C92.7875 22.4019 92.7565 22.5204 92.6619 22.6152C92.6146 22.6462 92.5272 22.6791 92.4016 22.7101C92.1486 22.7739 91.9011 22.8286 91.6572 22.876C91.4134 22.9234 91.164 22.9781 90.9129 23.0419C90.8346 23.0584 90.7436 23.0729 90.6417 23.0894C90.5398 23.1058 90.4288 23.1203 90.3105 23.1368C90.1922 23.1532 90.0811 23.1568 89.9792 23.1477C89.8773 23.1404 89.7936 23.1204 89.7317 23.0894C89.6844 23.0729 89.6298 23.0182 89.5661 22.9234C89.4405 22.7028 89.2621 22.5405 89.0347 22.4384C88.8053 22.3362 88.5651 22.3399 88.3139 22.4493C88.2357 22.4803 88.172 22.5277 88.1247 22.5915C88.0464 22.7174 88.061 22.8523 88.172 22.9945C88.2502 23.1058 88.3685 23.1842 88.5269 23.2316C88.6688 23.31 88.8144 23.3811 88.9637 23.4449C89.1129 23.5088 89.2676 23.5635 89.4241 23.6109C89.5825 23.6583 89.7353 23.713 89.8846 23.7768C90.0338 23.8406 90.1885 23.9026 90.345 23.9665C90.7236 24.0777 91.0694 24.2582 91.3861 24.5117C91.5116 24.5901 91.6299 24.6849 91.741 24.7962C91.8502 24.9074 91.9539 25.0168 92.0485 25.128C92.0795 25.1754 92.1195 25.2466 92.1668 25.3414C92.2142 25.4362 92.2651 25.542 92.3197 25.6605C92.3743 25.779 92.4216 25.8939 92.4617 26.0033C92.5017 26.1146 92.5217 26.193 92.5217 26.2404C92.5836 26.6197 92.5891 26.9789 92.5327 27.3181C92.4781 27.6572 92.3561 28.0092 92.1668 28.3721C92.0085 28.6565 91.8156 28.9173 91.5881 29.1543C91.3588 29.3914 91.0876 29.5956 90.7727 29.7707C90.5671 29.8819 90.3505 29.9676 90.123 30.0314C89.8937 30.0953 89.6625 30.15 89.4259 30.1974C88.354 30.387 87.2984 30.3542 86.2592 30.1026C85.5494 29.9129 84.9506 29.5573 84.4629 29.0376C83.9751 28.5161 83.6985 27.949 83.6348 27.3327C83.6348 27.2707 83.6384 27.2032 83.6475 27.1321C83.6548 27.061 83.6912 27.0099 83.7531 26.9789C83.784 26.9479 83.8204 26.9278 83.8586 26.9205C83.8968 26.9132 83.9405 26.9005 83.9878 26.8841C84.239 26.8221 84.4883 26.7619 84.7322 26.7072C84.9761 26.6525 85.2254 26.6014 85.4766 26.554C85.6185 26.523 85.8187 26.4829 86.079 26.4355C86.3393 26.3881 86.5322 26.4045 86.6578 26.4829C86.7051 26.5139 86.7597 26.5777 86.8234 26.6725C86.9653 26.8932 87.1455 27.0755 87.3676 27.2178C87.5878 27.36 87.8316 27.3837 88.101 27.2889C88.3212 27.2105 88.4395 27.0755 88.4559 26.8859C88.4868 26.7127 88.4322 26.5704 88.2903 26.4592C88.2266 26.3972 88.1647 26.3443 88.101 26.306C88.0373 26.2659 87.9663 26.2313 87.8881 26.2003L87.6041 26.058C87.3675 25.9322 87.1273 25.821 86.8834 25.7261L86.8816 25.717Z" fill="#FFAF45"/>
<path d="M101.809 25.1718C101.998 25.345 102.147 25.5474 102.258 25.7754C102.368 26.0051 102.462 26.2367 102.542 26.4738C102.637 26.7582 102.715 27.05 102.779 27.3509C102.841 27.6517 102.857 27.9581 102.826 28.2754C102.795 28.496 102.715 28.7531 102.59 29.0449C102.464 29.3367 102.282 29.5464 102.045 29.6722C101.636 29.8928 101.194 30.0241 100.722 30.0624C100.249 30.1025 99.7758 30.1135 99.3045 30.0989C98.8003 30.0843 98.2998 30.0515 97.803 30.0041C97.3061 29.9567 96.8293 29.8472 96.3725 29.6722C95.9466 29.499 95.5844 29.2929 95.2841 29.0558C94.6544 28.5671 94.2049 27.9781 93.9373 27.2907C93.6698 26.6032 93.5515 25.8975 93.5824 25.1718C93.597 24.9511 93.6097 24.725 93.6188 24.4971C93.6261 24.2691 93.6534 24.043 93.7007 23.8224C93.779 23.3647 93.8973 22.9033 94.0556 22.4365C94.2122 21.9715 94.4488 21.5412 94.7654 21.1455C95.033 20.8136 95.3606 20.5255 95.7464 20.2811C96.1322 20.0368 96.5454 19.8344 96.9876 19.6775C97.7921 19.3931 98.642 19.2545 99.5411 19.2636C100.44 19.2709 101.29 19.4168 102.095 19.7012C102.173 19.7322 102.251 19.7687 102.331 19.807C102.409 19.8471 102.488 19.8909 102.568 19.9365C102.71 20.0477 102.804 20.1772 102.852 20.3267C102.899 20.4762 102.919 20.6349 102.91 20.8008C102.903 20.9668 102.879 21.1327 102.839 21.2986C102.799 21.4646 102.764 21.6178 102.733 21.76C102.655 22.1229 102.551 22.4712 102.426 22.8012C102.3 23.1331 102.165 23.4723 102.024 23.8206C101.96 23.9938 101.882 24.1214 101.787 24.1998C101.676 24.2947 101.558 24.3421 101.432 24.3421C101.306 24.3421 101.179 24.3111 101.053 24.2473C100.928 24.1834 100.8 24.1123 100.675 24.0339C100.549 23.9555 100.438 23.8917 100.344 23.8443C100.202 23.7804 100.06 23.7257 99.9178 23.6783C99.7758 23.6309 99.6266 23.5999 99.4683 23.5835C99.1207 23.5361 98.8386 23.6236 98.6165 23.8443C98.5219 23.9555 98.4545 24.0777 98.4163 24.2108C98.3763 24.3457 98.349 24.4752 98.3326 24.601C98.3162 24.8545 98.3472 25.1025 98.4272 25.3468C98.5055 25.5912 98.6547 25.7772 98.8768 25.903C99.0661 26.0142 99.2699 26.0489 99.4919 26.0088C99.7121 25.9686 99.9251 25.903 100.131 25.8082C100.225 25.7608 100.344 25.6824 100.486 25.5711C100.628 25.4617 100.777 25.3578 100.935 25.2629C101.092 25.1681 101.25 25.1007 101.408 25.0624C101.565 25.0241 101.7 25.0587 101.811 25.1681L101.809 25.1718Z" fill="#FFAF45"/>
<path d="M111.784 21.4774C111.799 21.5084 111.815 21.5376 111.832 21.5613C111.846 21.585 111.863 21.6124 111.879 21.6434C112.052 22.0391 112.177 22.4402 112.258 22.8505C112.336 23.2608 112.383 23.6766 112.4 24.0942C112.414 24.5136 112.407 24.9311 112.376 25.3487C112.345 25.7663 112.305 26.1821 112.258 26.5924C112.227 26.9552 112.167 27.3145 112.081 27.6701C111.994 28.0256 111.857 28.3484 111.668 28.642C111.479 28.9337 111.231 29.1945 110.924 29.4243C110.616 29.654 110.234 29.8309 109.777 29.9567C109.147 30.099 108.532 30.161 107.933 30.1464C107.538 30.161 107.138 30.1227 106.728 30.0278C106.492 29.9969 106.263 29.9494 106.042 29.8856C105.822 29.8236 105.609 29.7361 105.404 29.6249C105.103 29.4516 104.845 29.2456 104.623 29.0085C104.403 28.7715 104.221 28.5198 104.079 28.2499C103.858 27.8706 103.693 27.4731 103.582 27.0537C103.471 26.6361 103.4 26.2131 103.369 25.7864C103.338 25.3761 103.331 24.9621 103.345 24.5427C103.36 24.1252 103.416 23.7185 103.511 23.3228C103.667 22.7393 103.869 22.1539 104.113 21.5704C104.357 20.9869 104.756 20.5055 105.307 20.1262C105.638 19.9056 106.017 19.736 106.443 19.6174C106.869 19.4989 107.294 19.4314 107.719 19.4169C108.175 19.4023 108.608 19.4132 109.018 19.4515C109.427 19.4916 109.837 19.6211 110.246 19.8417C110.592 20.0478 110.893 20.2921 111.146 20.5766C111.397 20.8611 111.61 21.162 111.784 21.4774ZM107.342 23.4669C107.311 23.6565 107.294 23.8498 107.294 24.0467C107.294 24.2437 107.302 24.437 107.318 24.6266V25.8812C107.333 25.9596 107.342 26.0398 107.342 26.1182C107.342 26.1967 107.356 26.2769 107.389 26.3553C107.451 26.5285 107.569 26.6398 107.744 26.6872C107.839 26.7182 107.944 26.7309 108.063 26.7237C108.181 26.7164 108.279 26.6799 108.357 26.6179L108.499 26.4757C108.608 26.3334 108.679 26.1675 108.712 25.9778C108.743 25.7882 108.767 25.6077 108.783 25.4326C108.845 24.8017 108.831 24.1215 108.736 23.3958C108.705 23.2371 108.665 23.1277 108.618 23.0639C108.554 22.9526 108.468 22.8779 108.357 22.8396C108.246 22.8013 108.133 22.7885 108.015 22.8031C107.897 22.8195 107.786 22.8578 107.684 22.9216C107.582 22.9855 107.507 23.0639 107.46 23.1587C107.396 23.2845 107.358 23.3885 107.342 23.4669Z" fill="#FFAF45"/>
<path d="M122.328 29.0321C122.027 29.4424 121.651 29.7907 121.194 30.0734C120.784 30.3104 120.338 30.4764 119.858 30.5712C119.377 30.666 118.888 30.6897 118.393 30.6423C117.898 30.5949 117.423 30.4727 116.975 30.2758C116.525 30.0788 116.136 29.8144 115.805 29.4825C115.362 29.0248 115.064 28.4997 114.906 27.907C114.747 27.3144 114.645 26.7199 114.598 26.1182C114.582 25.9285 114.567 25.7042 114.551 25.4435C114.534 25.1827 114.523 24.9147 114.516 24.6375C114.509 24.3621 114.5 24.0923 114.493 23.8315C114.485 23.5707 114.48 23.3464 114.48 23.1568C114.274 23.1568 114.074 23.1495 113.877 23.1331C113.681 23.1167 113.502 23.0383 113.346 22.896C113.251 22.8176 113.188 22.7191 113.157 22.6006C113.126 22.4821 113.102 22.3599 113.086 22.2341C113.069 22.0773 113.062 21.946 113.062 21.8439V20.9084C113.062 20.6878 113.082 20.427 113.122 20.1261C113.16 19.8271 113.284 19.6046 113.488 19.4624C113.597 19.384 113.735 19.3329 113.901 19.3092C114.067 19.2855 114.236 19.2745 114.409 19.2745V18.3628C114.409 18.0546 114.425 17.6717 114.456 17.214C114.456 17.0882 114.472 16.9532 114.503 16.811C114.534 16.6688 114.614 16.5739 114.74 16.5265C114.882 16.4645 115.031 16.4353 115.19 16.4445C115.348 16.4518 115.504 16.4554 115.663 16.4554C116.072 16.4718 116.485 16.4627 116.904 16.4317C117.321 16.4007 117.736 16.4007 118.145 16.4317C118.334 16.4481 118.487 16.5028 118.606 16.5976C118.724 16.6925 118.815 16.811 118.877 16.9532C118.941 17.0955 118.979 17.2541 118.995 17.4273C119.012 17.6006 119.019 17.7756 119.019 17.9489C119.002 18.1859 118.995 18.423 118.995 18.66V19.3712H119.587C119.681 19.3712 119.776 19.3785 119.871 19.3949C119.965 19.4113 120.053 19.4496 120.131 19.5134C120.209 19.5918 120.266 19.683 120.296 19.7851C120.327 19.8872 120.344 20.0021 120.344 20.1279C120.358 20.3012 120.371 20.4471 120.378 20.5656C120.386 20.6841 120.391 20.7953 120.391 20.8975V21.667C120.391 21.8402 120.378 22.0153 120.355 22.1885C120.331 22.3617 120.271 22.5204 120.178 22.6626C120.005 22.8833 119.82 23.0182 119.623 23.0656C119.426 23.113 119.194 23.1367 118.926 23.1367V24.3804C118.926 24.5299 118.93 24.6885 118.939 24.8545C118.946 25.0204 118.953 25.1827 118.962 25.3395C118.97 25.4982 118.973 25.624 118.973 25.7188C118.99 25.8446 118.993 25.9832 118.986 26.1328C118.979 26.2823 119.03 26.3972 119.139 26.4756C119.281 26.6014 119.403 26.605 119.505 26.4883C119.607 26.3698 119.714 26.2713 119.823 26.1929C119.949 26.0981 120.091 26.0635 120.249 26.0872C120.407 26.1109 120.557 26.1455 120.699 26.1929C120.935 26.2713 121.168 26.3552 121.396 26.4409C121.623 26.5285 121.849 26.6178 122.069 26.7126C122.226 26.7765 122.411 26.8421 122.624 26.9132C122.837 26.9843 122.966 27.1138 123.014 27.3034C123.028 27.3819 123.021 27.4858 122.99 27.6116C122.864 28.1331 122.642 28.6073 122.328 29.0321Z" fill="#F3F4F6"/>
<path d="M134.288 28.0858C134.303 28.2116 134.312 28.3393 134.312 28.4651V28.8444C134.327 29.0176 134.332 29.1963 134.325 29.3769C134.317 29.5592 134.257 29.7197 134.148 29.8619C134.037 30.0352 133.935 30.119 133.841 30.1099C133.746 30.1026 133.611 30.0899 133.438 30.0753C132.982 30.0443 132.532 30.0388 132.092 30.0625C131.649 30.0862 131.202 30.0826 130.745 30.0516C130.586 30.0516 130.468 30.0206 130.39 29.9567C130.312 29.8783 130.264 29.7908 130.248 29.696C130.232 29.6012 130.224 29.499 130.224 29.3878C130.224 29.3568 130.217 29.3331 130.201 29.3167C129.98 29.5702 129.72 29.7744 129.42 29.933C129.01 30.1391 128.572 30.2321 128.108 30.2175C127.644 30.2011 127.19 30.1464 126.748 30.0516C126.306 29.9567 125.882 29.8236 125.472 29.6486C125.063 29.4753 124.724 29.2073 124.457 28.8426C124.251 28.5581 124.102 28.2262 124.007 27.8469C123.707 26.8513 123.605 25.8338 123.7 24.7907C123.794 23.7477 124.078 22.7703 124.551 21.8531C124.772 21.4428 125.025 21.0526 125.309 20.6806C125.592 20.3104 125.938 20.0059 126.35 19.7688C126.854 19.4533 127.418 19.291 128.04 19.2837C128.663 19.2765 129.242 19.4059 129.778 19.674C129.857 19.705 129.928 19.7414 129.991 19.7797C130.055 19.8199 130.126 19.8636 130.204 19.9092C130.315 19.4351 130.614 19.1908 131.103 19.1743C131.939 19.1269 132.758 19.1506 133.562 19.2455C133.671 19.2619 133.779 19.2801 133.881 19.3038C133.983 19.3275 134.074 19.3877 134.152 19.4807C134.341 19.7342 134.416 20.0533 134.376 20.4399C134.336 20.8264 134.308 21.162 134.292 21.4464C134.292 21.8567 134.288 22.2725 134.281 22.6901C134.274 23.1076 134.268 23.5234 134.268 23.9337C134.252 24.6284 134.248 25.3159 134.257 25.9943C134.265 26.6726 134.277 27.3674 134.292 28.0785L134.288 28.0858ZM129.727 25.5274C129.853 25.3852 129.928 25.212 129.951 25.0059C129.975 24.8017 129.979 24.6029 129.962 24.4133C129.946 24.3513 129.935 24.2911 129.928 24.2364C129.92 24.1817 129.9 24.1215 129.868 24.0595C129.837 23.9957 129.797 23.941 129.749 23.8936C129.702 23.8462 129.655 23.806 129.607 23.775C129.292 23.5854 128.965 23.4942 128.626 23.5033C128.288 23.5106 127.984 23.6419 127.716 23.8936C127.605 24.0048 127.516 24.127 127.445 24.2601C127.374 24.395 127.34 24.5409 127.34 24.6977C127.34 24.9822 127.431 25.2229 127.611 25.4199C127.793 25.6168 128.017 25.7554 128.284 25.8338C128.63 25.9122 128.97 25.8885 129.3 25.7627C129.378 25.7317 129.449 25.7043 129.513 25.6806C129.576 25.6569 129.638 25.6131 129.702 25.5511L129.726 25.5274H129.727Z" fill="#F3F4F6"/>
<path d="M138.674 30.3233C138.241 30.316 137.812 30.3032 137.386 30.2868C137.228 30.2868 137.067 30.2759 136.902 30.2522C136.736 30.2285 136.574 30.192 136.418 30.1464C136.259 30.099 136.117 30.0279 135.992 29.9331C135.866 29.8383 135.772 29.7124 135.708 29.5538C135.613 29.3331 135.57 29.107 135.579 28.8791C135.586 28.6512 135.599 28.425 135.613 28.2044C135.628 27.9837 135.626 27.7704 135.602 27.5643C135.579 27.3601 135.566 27.1468 135.566 26.9243C135.58 26.4192 135.593 25.9068 135.602 25.3852C135.61 24.8637 135.622 24.3513 135.637 23.8462C135.668 22.8196 135.699 21.8057 135.732 20.8028C135.762 19.7998 135.793 18.786 135.826 17.7593C135.826 17.6171 135.833 17.4712 135.85 17.3217C135.864 17.1722 135.904 17.0409 135.968 16.9315C136.046 16.8221 136.137 16.7509 136.239 16.7181C136.341 16.6871 136.449 16.6634 136.558 16.647C136.967 16.585 137.38 16.5449 137.799 16.5285C138.216 16.5139 138.631 16.5212 139.04 16.5522C139.386 16.5832 139.626 16.7254 139.761 16.9789C139.896 17.2323 139.97 17.6098 139.985 18.1167C139.999 18.6693 140.012 19.2017 140.019 19.716C140.027 20.2302 140.016 20.7627 139.985 21.3152C139.954 21.9461 139.934 22.5789 139.925 23.2098C139.917 23.8407 139.921 24.4735 139.938 25.1044C139.938 25.2631 139.948 25.4126 139.972 25.5548C139.996 25.6971 140.047 25.832 140.125 25.9578C140.22 26.0691 140.334 26.1438 140.467 26.1821C140.6 26.2222 140.731 26.2496 140.857 26.2642C140.999 26.2806 141.137 26.2806 141.27 26.2642C141.403 26.2496 141.541 26.2405 141.683 26.2405C141.808 26.2569 141.93 26.2842 142.049 26.3244C142.167 26.3645 142.258 26.4392 142.32 26.5486C142.351 26.5961 142.367 26.6471 142.367 26.7018C142.367 26.7565 142.374 26.8167 142.391 26.8787C142.469 27.6993 142.431 28.5217 142.273 29.3423C142.242 29.5009 142.191 29.6504 142.12 29.7927C142.049 29.9349 141.95 30.0534 141.825 30.1482C141.652 30.2741 141.466 30.3452 141.27 30.3616C141.073 30.3762 140.871 30.3762 140.667 30.3616H139.981C139.539 30.3452 139.102 30.3342 138.669 30.327L138.674 30.3233Z" fill="#F3F4F6"/>
<path d="M144.477 20.6003C145.281 20.5219 146.1 20.4982 146.935 20.5292C147.281 20.5602 147.521 20.6641 147.656 20.8373C147.791 21.0106 147.865 21.2804 147.88 21.6433C148.006 24.2965 147.982 26.9406 147.809 29.5774C147.809 29.6722 147.802 29.7634 147.785 29.8491C147.769 29.9366 147.722 30.0114 147.643 30.0734C147.596 30.1044 147.541 30.1245 147.478 30.1317C147.414 30.139 147.352 30.1518 147.288 30.1682C146.721 30.1992 146.155 30.212 145.587 30.2047C145.019 30.1974 144.46 30.1682 143.909 30.1208C143.798 30.1208 143.719 30.1062 143.672 30.0734C143.625 30.0424 143.594 29.9986 143.578 29.9439C143.561 29.8892 143.537 29.829 143.507 29.767C143.459 29.5464 143.436 29.3203 143.436 29.0923V28.3939C143.483 27.2251 143.53 26.0617 143.578 24.9001C143.625 23.7404 143.672 22.5751 143.719 21.4063C143.719 21.2968 143.727 21.1893 143.743 21.0871C143.758 20.985 143.805 20.8939 143.885 20.8154C143.965 20.737 144.054 20.686 144.156 20.6623C144.258 20.6386 144.366 20.6185 144.475 20.6021L144.477 20.6003ZM144.242 16.6451C144.493 16.5667 144.742 16.5229 144.986 16.5156C145.23 16.5083 145.487 16.512 145.754 16.5266C145.991 16.543 146.224 16.543 146.451 16.5266C146.679 16.512 146.904 16.5193 147.125 16.5503C147.267 16.5667 147.405 16.594 147.538 16.6341C147.672 16.6743 147.778 16.7563 147.856 16.8821C147.887 16.946 147.907 17.0116 147.915 17.0827C147.922 17.1538 147.935 17.2286 147.951 17.307V17.8869C147.951 18.0838 147.958 18.2862 147.975 18.4905C147.975 18.6491 147.958 18.7676 147.927 18.8461C147.849 18.9883 147.718 19.0758 147.538 19.1068C147.356 19.1378 147.179 19.1469 147.006 19.1305C146.628 19.0995 146.249 19.0868 145.873 19.0941C145.494 19.1013 145.115 19.1214 144.737 19.1542C144.642 19.1706 144.544 19.1779 144.442 19.1779C144.34 19.1779 144.249 19.1542 144.171 19.1068C144.012 19.0284 143.907 18.9099 143.852 18.7512C143.798 18.5926 143.769 18.4285 143.769 18.2534C143.752 18.0492 143.745 17.8504 143.745 17.6608C143.745 17.4711 143.76 17.2815 143.792 17.0918C143.792 17.0444 143.807 16.9733 143.84 16.8785C143.887 16.8001 143.945 16.7454 144.016 16.7126C144.087 16.6816 144.162 16.6578 144.24 16.6414L144.242 16.6451Z" fill="#F3F4F6"/>
<path d="M159.772 28.0858C159.786 28.2116 159.795 28.3393 159.795 28.4651V28.8444C159.81 29.0176 159.815 29.1963 159.808 29.3769C159.801 29.5592 159.741 29.7197 159.632 29.8619C159.521 30.0352 159.419 30.119 159.324 30.1099C159.229 30.1026 159.095 30.0899 158.922 30.0753C158.465 30.0443 158.015 30.0388 157.575 30.0625C157.133 30.0862 156.685 30.0826 156.228 30.0516C156.07 30.0516 155.952 30.0206 155.873 29.9567C155.795 29.8783 155.748 29.7908 155.731 29.696C155.715 29.6012 155.708 29.499 155.708 29.3878C155.708 29.3568 155.7 29.3331 155.684 29.3167C155.464 29.5702 155.204 29.7744 154.903 29.933C154.494 30.1391 154.055 30.2321 153.591 30.2175C153.127 30.2011 152.674 30.1464 152.232 30.0516C151.789 29.9567 151.365 29.8236 150.956 29.6486C150.546 29.4753 150.208 29.2073 149.94 28.8426C149.735 28.5581 149.585 28.2262 149.491 27.8469C149.19 26.8513 149.088 25.8338 149.183 24.7907C149.278 23.7477 149.562 22.7703 150.035 21.8531C150.255 21.4428 150.508 21.0526 150.792 20.6806C151.076 20.3104 151.422 20.0059 151.833 19.7688C152.337 19.4533 152.901 19.291 153.524 19.2837C154.146 19.2765 154.725 19.4059 155.262 19.674C155.34 19.705 155.411 19.7414 155.475 19.7797C155.538 19.8199 155.609 19.8636 155.688 19.9092C155.799 19.4351 156.097 19.1908 156.587 19.1743C157.422 19.1269 158.241 19.1506 159.046 19.2455C159.155 19.2619 159.262 19.2801 159.364 19.3038C159.466 19.3275 159.557 19.3877 159.635 19.4807C159.825 19.7342 159.899 20.0533 159.859 20.4399C159.819 20.8264 159.792 21.162 159.775 21.4464C159.775 21.8567 159.772 22.2725 159.764 22.6901C159.757 23.1076 159.752 23.5234 159.752 23.9337C159.735 24.6284 159.732 25.3159 159.741 25.9943C159.748 26.6726 159.761 27.3674 159.775 28.0785L159.772 28.0858ZM155.209 25.5274C155.335 25.3852 155.409 25.212 155.433 25.0059C155.457 24.8017 155.46 24.6029 155.444 24.4133C155.427 24.3513 155.417 24.2911 155.409 24.2364C155.402 24.1817 155.382 24.1215 155.349 24.0595C155.318 23.9957 155.278 23.941 155.231 23.8936C155.184 23.8462 155.136 23.806 155.089 23.775C154.774 23.5854 154.446 23.4942 154.108 23.5033C153.769 23.5106 153.465 23.6419 153.198 23.8936C153.087 24.0048 152.998 24.127 152.927 24.2601C152.856 24.395 152.821 24.5409 152.821 24.6977C152.821 24.9822 152.912 25.2229 153.092 25.4199C153.274 25.6168 153.498 25.7554 153.766 25.8338C154.112 25.9122 154.452 25.8885 154.781 25.7627C154.86 25.7317 154.931 25.7043 154.994 25.6806C155.058 25.6569 155.12 25.6131 155.184 25.5511L155.207 25.5274H155.209Z" fill="#F3F4F6"/>
</svg>
