<svg width="326" height="241" viewBox="0 0 326 241" fill="none" xmlns="http://www.w3.org/2000/svg">
<g clip-path="url(#clip0_4123_2587)">
<path d="M265.932 177.993C266.074 178.015 266.222 178.033 266.369 178.055C265.95 163.697 265.53 134.599 265.111 122.455C265.04 120.474 263.734 118.726 261.79 118.065C259.149 117.166 255.579 115.441 252.489 112.093C249.966 109.355 248.624 106.48 247.909 104.288C247.395 102.728 247.75 101.025 248.837 99.7615L248.997 99.5736C250.309 98.0421 250.521 95.8957 249.528 94.1593L233.125 65.3969C232.25 63.8654 229.969 63.8654 229.101 65.3969L212.697 94.1593C212.012 95.3606 211.905 96.7497 212.337 97.9965C212.626 98.8448 213.347 99.4882 214.21 99.7956C214.363 99.8525 214.511 99.9038 214.653 99.9493C219.504 101.606 222.748 105.865 222.914 110.795L224.964 170.13C224.988 170.882 224.935 171.622 224.817 172.345C223.209 172.18 221.608 172.026 220.001 171.878C220.101 171.36 220.154 170.831 220.137 170.278C219.451 150.5 218.766 130.721 218.086 110.943C217.98 107.903 215.941 105.255 212.969 104.236C208.956 102.864 203.556 100.234 198.876 95.167C195.017 90.9881 192.984 86.5986 191.891 83.2567C191.117 80.894 191.672 78.3092 193.309 76.402L193.557 76.1173C195.555 73.7888 195.88 70.5208 194.367 67.8734L169.395 24.0922C169.235 23.8132 169.04 23.5684 168.828 23.3521V11.6979C168.828 11.6979 173.254 13.8045 176.787 12.8423C180.321 11.8801 184.812 6.53415 189.858 8.83423C190.03 8.91394 189.888 0.954744 185.225 0.47651C180.563 -0.00172493 176.811 2.36668 172.692 0.647308C165.926 -1.70401 163.663 3.1068 163.663 3.1068V23.5399C163.521 23.7051 163.385 23.8815 163.273 24.0808L138.301 67.8621C136.788 70.5094 137.113 73.7774 139.111 76.1059L139.359 76.3906C141.002 78.2978 141.551 80.8826 140.777 83.2453C139.684 86.5872 137.651 90.9824 133.793 95.1556C129.113 100.223 123.717 102.853 119.699 104.225C116.721 105.244 114.682 107.891 114.582 110.932C113.897 130.71 113.211 150.488 112.532 170.267C112.514 170.745 112.549 171.212 112.626 171.667C111.125 171.798 109.63 171.941 108.129 172.083C108.041 171.434 107.993 170.779 108.017 170.113L110.067 110.778C110.239 105.842 113.483 101.589 118.328 99.9323C118.476 99.881 118.624 99.8298 118.772 99.7785C119.64 99.4654 120.355 98.8221 120.645 97.9795C121.076 96.7326 120.97 95.3378 120.284 94.1422L103.881 65.3798C103.006 63.8483 100.725 63.8483 99.8565 65.3798L83.4528 94.1422C82.46 95.8843 82.6728 98.0307 83.9846 99.5565L84.1441 99.7444C85.2255 101.008 85.58 102.705 85.0719 104.271C84.3509 106.462 83.0155 109.338 80.4923 112.076C77.4018 115.424 73.8327 117.154 71.1913 118.048C69.2532 118.709 67.9413 120.456 67.8704 122.438C67.4568 134.462 67.0372 163.099 66.6236 177.6C50.7753 180.287 35.0512 183.618 19.5161 187.614C87.0691 175.738 156.023 171.428 224.492 176.729C241.126 177.987 257.979 179.763 274.524 182.018C286.626 183.635 298.681 185.588 310.747 187.614C295.962 183.806 281.006 180.594 265.938 177.976L265.932 177.993ZM134.915 135.498C134.898 135.578 134.88 135.652 134.862 135.732H134.856C134.106 138.379 131.6 140.326 128.616 140.326C125.041 140.326 122.14 137.531 122.14 134.086C122.14 133.864 122.152 133.648 122.175 133.431C122.217 133.056 122.293 132.691 122.4 132.338C122.943 129.372 124.338 124.687 128.126 120.263C134.608 112.691 143.543 111.211 146.456 110.892C146.479 110.892 146.509 110.892 146.533 110.88C146.733 110.858 146.899 110.841 147.035 110.829C148.619 110.829 149.901 112.065 149.901 113.59C149.901 114.484 149.452 115.27 148.772 115.771H148.778C148.737 115.805 148.695 115.839 148.654 115.868C148.642 115.873 148.636 115.879 148.624 115.89C146.273 117.502 143.436 119.768 140.517 123.673C136.901 128.512 135.666 132.31 134.957 135.282C134.945 135.356 134.921 135.424 134.903 135.492L134.915 135.498ZM195.702 170.142C191.306 169.914 186.904 169.737 182.501 169.606L179.895 161.477C179.5 160.241 179.872 158.909 180.823 157.998C183.541 155.396 185.172 152.048 185.172 148.393C185.172 145.268 183.979 141.846 181.934 138.789C181.656 138.379 181.71 137.832 182.058 137.474C184.079 135.413 185.025 131.433 183.896 128.621C183.405 127.391 182.182 125.552 180.705 125.575C180.22 125.58 179.47 125.791 177.514 128.621C176.793 129.663 176.179 130.545 175.688 131.319C175.375 131.815 174.713 131.98 174.181 131.701C171.818 130.454 169.194 129.708 166.423 129.708C163.852 129.708 161.4 130.351 159.172 131.439C158.652 131.689 158.02 131.519 157.713 131.046C157.252 130.34 156.702 129.537 156.064 128.621C154.102 125.791 153.358 125.58 152.873 125.575C151.396 125.552 150.173 127.397 149.682 128.621C148.624 131.251 149.387 134.9 151.148 137.047C151.467 137.434 151.49 137.969 151.201 138.379C148.985 141.533 147.679 145.125 147.679 148.393C147.679 152.299 149.546 155.857 152.607 158.527C153.647 159.433 154.067 160.822 153.653 162.108L151.278 169.515C146.568 169.624 141.853 169.794 137.149 170.016V137.383C138.809 122.227 152.442 110.954 167.658 111.564C181.999 112.139 194.16 123.127 195.696 137.383V170.142H195.702ZM204.034 140.326C201.05 140.326 198.545 138.379 197.794 135.726H197.788C197.771 135.652 197.753 135.572 197.735 135.492C197.717 135.424 197.7 135.35 197.682 135.282C196.973 132.31 195.738 128.512 192.121 123.673C189.202 119.768 186.366 117.502 184.014 115.89C184.002 115.885 183.996 115.879 183.985 115.868C183.943 115.839 183.902 115.811 183.86 115.782H183.866C183.187 115.27 182.738 114.484 182.738 113.59C182.738 112.065 184.02 110.829 185.604 110.829C185.74 110.841 185.911 110.858 186.106 110.88C186.13 110.88 186.159 110.88 186.183 110.892C189.102 111.211 198.031 112.691 204.513 120.263C208.301 124.687 209.695 129.378 210.239 132.338C210.345 132.691 210.422 133.056 210.463 133.431C210.487 133.648 210.499 133.864 210.499 134.086C210.499 137.531 207.597 140.326 204.022 140.326H204.034Z" fill="#FFAF45"/>
<path d="M35.7074 206.396C35.6542 208.765 35.6956 211.105 35.8256 213.422C35.9496 215.739 35.9674 218.079 35.861 220.447C35.7606 222.912 35.7192 225.366 35.7487 227.803C35.7724 230.245 35.7842 232.722 35.7842 235.233C35.7842 235.825 35.731 236.428 35.6306 237.043C35.5301 237.658 35.2465 238.165 34.7855 238.558C34.3778 238.905 33.9169 239.138 33.4028 239.258C32.8887 239.383 32.351 239.446 31.7896 239.446C31.2283 239.446 30.661 239.423 30.0996 239.372C29.5382 239.326 29.0242 239.298 28.5632 239.298C28.1555 239.298 27.6946 239.332 27.1805 239.412C26.6664 239.486 26.1819 239.497 25.721 239.446C25.26 239.394 24.8228 239.275 24.415 239.076C24.0073 238.882 23.7237 238.558 23.57 238.113C23.4696 237.869 23.4046 237.595 23.375 237.299C23.3514 237.003 23.3337 236.736 23.3337 236.485C23.2805 235.403 23.2332 234.339 23.18 233.308C23.1269 232.272 23.1032 231.236 23.1032 230.2C23.1032 229.363 23.1446 228.537 23.2214 227.723C23.2982 226.909 23.2864 226.084 23.18 225.247C23.0796 224.262 23.0678 223.265 23.1446 222.252C23.2214 221.244 23.2569 220.242 23.2569 219.257C23.2569 219.013 23.2332 218.836 23.18 218.739C22.9732 218.494 22.7309 218.432 22.4532 218.551C22.1696 218.677 21.9037 218.87 21.6496 219.143C21.3955 219.417 21.165 219.696 20.9582 219.992C20.7514 220.288 20.6273 220.51 20.5741 220.658C20.1664 221.398 19.7055 222.138 19.1914 222.878C18.9373 223.271 18.63 223.544 18.2696 223.692C17.9091 223.789 17.5782 223.755 17.2709 223.579C16.9636 223.408 16.68 223.174 16.4259 222.878C16.2723 222.73 16.0655 222.349 15.8114 221.734C15.5573 221.119 15.25 220.487 14.8895 219.849C14.5291 219.212 14.1745 218.694 13.8141 218.295C13.4536 217.902 13.1227 217.851 12.8154 218.147C12.7623 218.198 12.6854 218.392 12.585 218.739C12.4845 219.724 12.4964 220.686 12.6204 221.626C12.7504 222.565 12.7859 223.522 12.7386 224.512C12.6854 225.497 12.6973 226.448 12.7741 227.359C12.8509 228.27 12.8923 229.221 12.8923 230.205C12.8923 232.278 12.8154 234.373 12.6618 236.491C12.6618 236.736 12.65 237.009 12.6204 237.305C12.5968 237.601 12.5318 237.874 12.4314 238.119C12.2777 238.563 11.9941 238.882 11.5864 239.081C11.1786 239.281 10.7413 239.4 10.2804 239.451C9.81952 239.497 9.33498 239.491 8.82088 239.417C8.30679 239.343 7.84588 239.303 7.43815 239.303C6.97724 239.303 6.46314 239.326 5.90178 239.377C5.34041 239.423 4.77314 239.451 4.21177 239.451C3.6504 239.451 3.10086 239.389 2.56313 239.263C2.0254 239.144 1.5763 238.905 1.22176 238.563C0.760846 238.17 0.494936 237.664 0.418117 237.049C0.341298 236.434 0.299935 235.83 0.299935 235.238V227.809C0.299935 225.366 0.246753 222.918 0.146298 220.453C0.0458426 218.085 0.0694791 215.745 0.223116 213.427C0.376753 211.11 0.40039 208.77 0.299935 206.402C0.299935 205.269 0.341298 204.159 0.418117 203.077C0.494936 201.995 0.583572 200.885 0.684027 199.747C0.7313 199.354 0.808119 198.961 0.914483 198.562C1.01494 198.169 1.22176 197.851 1.52903 197.6C1.78312 197.355 2.0904 197.219 2.45085 197.196C2.8054 197.173 3.16586 197.156 3.52631 197.156H7.28451C8.51361 197.156 9.76634 197.281 11.0486 197.526C11.4563 197.623 11.8286 197.748 12.1595 197.896C12.4904 198.044 12.7859 198.266 13.04 198.562C13.1936 198.71 13.2704 198.858 13.2704 199.006C13.5245 199.251 13.7314 199.513 13.885 199.781C14.0386 200.054 14.1923 200.333 14.3459 200.629C14.6532 201.17 14.9723 201.716 15.3032 202.257C15.6341 202.798 15.9532 203.345 16.2605 203.886C16.3609 204.13 16.5323 204.415 16.7568 204.734C16.9873 205.053 17.3064 205.212 17.7141 205.212C18.0687 205.212 18.4291 205.013 18.7896 204.62C19.15 204.227 19.4041 203.908 19.5578 203.658C19.9655 203.117 20.2964 202.548 20.5564 201.955C20.8105 201.363 21.1178 200.771 21.4782 200.179C21.8387 199.638 22.2464 199.12 22.7073 198.625C23.1682 198.135 23.7296 197.788 24.3973 197.589C25.6264 197.196 26.956 197.025 28.386 197.071C29.816 197.122 31.1987 197.145 32.5283 197.145C32.8355 197.145 33.1665 197.156 33.5269 197.185C33.8815 197.207 34.1887 197.344 34.4487 197.589C34.756 197.834 34.9628 198.158 35.0633 198.551C35.1637 198.944 35.2406 199.342 35.2937 199.735C35.3942 200.868 35.4887 201.978 35.5656 203.066C35.6424 204.153 35.6778 205.258 35.6778 206.391L35.7074 206.396Z" fill="#FFAF45"/>
<path d="M74.2346 232.944C74.2819 233.337 74.3114 233.735 74.3114 234.128V235.312C74.3587 235.853 74.3764 236.411 74.3528 236.975C74.3292 237.544 74.1342 238.045 73.7796 238.489C73.4192 239.03 73.0883 239.292 72.781 239.263C72.4737 239.241 72.0364 239.201 71.4751 239.155C69.9919 239.058 68.5323 239.041 67.1023 239.115C65.6664 239.189 64.2128 239.178 62.7296 239.081C62.2155 239.081 61.8314 238.984 61.5773 238.785C61.3232 238.54 61.1696 238.267 61.1164 237.971C61.0632 237.675 61.0396 237.356 61.0396 237.009C61.0396 236.912 61.0159 236.838 60.9627 236.787C60.2477 237.578 59.4027 238.216 58.4277 238.711C57.0982 239.355 55.6741 239.645 54.1673 239.599C52.6604 239.548 51.1891 239.377 49.7532 239.081C48.3172 238.785 46.9404 238.37 45.6109 237.823C44.2813 237.282 43.1822 236.445 42.3136 235.307C41.6458 234.418 41.1613 233.382 40.854 232.198C39.879 229.09 39.5481 225.913 39.8554 222.656C40.1627 219.4 41.0845 216.348 42.6209 213.484C43.3359 212.203 44.1572 210.985 45.079 209.824C46.0009 208.668 47.1236 207.717 48.4591 206.977C50.0959 205.992 51.9277 205.485 53.9486 205.462C55.9695 205.44 57.8486 205.844 59.5918 206.681C59.8459 206.778 60.0764 206.891 60.2832 207.011C60.49 207.136 60.7205 207.273 60.9746 207.415C61.335 205.935 62.3041 205.172 63.8937 205.121C66.606 204.973 69.2651 205.047 71.8769 205.343C72.2314 205.394 72.5801 205.451 72.911 205.525C73.2419 205.599 73.5373 205.787 73.7914 206.077C74.406 206.869 74.6483 207.865 74.5183 209.072C74.3883 210.279 74.2996 211.327 74.2464 212.215C74.2464 213.496 74.2346 214.794 74.211 216.098C74.1874 217.401 74.1696 218.699 74.1696 219.98C74.1164 222.149 74.1046 224.296 74.1342 226.414C74.1578 228.532 74.1992 230.701 74.2464 232.921L74.2346 232.944ZM59.4264 224.956C59.8341 224.512 60.0764 223.971 60.1532 223.328C60.23 222.69 60.2418 222.07 60.1887 221.478C60.1355 221.284 60.1 221.096 60.0764 220.925C60.0527 220.755 59.9877 220.567 59.8814 220.373C59.7809 220.174 59.6509 220.003 59.4973 219.855C59.3437 219.707 59.19 219.582 59.0364 219.485C58.0141 218.893 56.9505 218.608 55.8514 218.637C54.7523 218.659 53.7654 219.069 52.8968 219.855C52.5363 220.202 52.2468 220.584 52.0163 220.999C51.7859 221.421 51.6736 221.876 51.6736 222.366C51.6736 223.254 51.9691 224.005 52.5541 224.62C53.145 225.235 53.8718 225.668 54.7404 225.913C55.8632 226.158 56.9682 226.084 58.0377 225.691C58.2918 225.594 58.5223 225.508 58.7291 225.434C58.9359 225.36 59.1368 225.224 59.3436 225.03L59.4205 224.956H59.4264Z" fill="#FFAF45"/>
<path d="M88.9366 225.549C88.1448 225.253 87.3353 224.934 86.5198 224.586C84.168 223.505 82.2239 222.07 80.6875 220.299C79.7125 219.218 79.1393 218.045 78.9621 216.787C78.7848 215.528 78.8971 214.299 79.3048 213.092C79.7125 211.885 80.4039 210.763 81.3789 209.727C82.348 208.691 83.5003 207.831 84.8298 207.137C85.4916 206.795 86.2007 206.522 86.9394 206.322C87.678 206.129 88.4344 205.952 89.2026 205.804C90.8926 205.508 92.618 205.372 94.3848 205.4C96.1517 205.423 97.8535 205.662 99.4903 206.1C100.613 206.396 101.677 206.829 102.675 207.393C103.674 207.962 104.554 208.628 105.323 209.391C106.091 210.154 106.705 211.008 107.166 211.942C107.627 212.881 107.905 213.815 108.011 214.754C108.112 215.198 108.011 215.568 107.704 215.864C107.55 215.961 107.267 216.064 106.859 216.16C106.038 216.36 105.234 216.531 104.442 216.679C103.65 216.827 102.841 216.997 102.025 217.197C101.771 217.248 101.476 217.293 101.145 217.345C100.814 217.396 100.454 217.441 100.069 217.493C99.6853 217.544 99.3249 217.555 98.994 217.527C98.663 217.504 98.3912 217.441 98.1903 217.345C98.0367 217.293 97.8594 217.123 97.6526 216.827C97.2449 216.138 96.6658 215.631 95.9271 215.312C95.1826 214.993 94.4026 215.005 93.5871 215.346C93.333 215.443 93.1262 215.591 92.9726 215.79C92.7185 216.183 92.7658 216.605 93.1262 217.049C93.3803 217.396 93.7644 217.641 94.2785 217.789C94.7394 218.034 95.2121 218.256 95.6967 218.455C96.1812 218.654 96.6835 218.825 97.1917 218.973C97.7058 219.121 98.2021 219.292 98.6867 219.491C99.1712 219.69 99.6735 219.884 100.182 220.083C101.411 220.43 102.534 220.994 103.562 221.785C103.969 222.03 104.354 222.326 104.714 222.674C105.069 223.021 105.405 223.362 105.713 223.71C105.813 223.858 105.943 224.08 106.097 224.376C106.25 224.672 106.416 225.002 106.593 225.372C106.77 225.742 106.924 226.101 107.054 226.442C107.184 226.79 107.249 227.035 107.249 227.183C107.45 228.367 107.468 229.488 107.284 230.547C107.107 231.606 106.711 232.705 106.097 233.838C105.583 234.726 104.956 235.54 104.218 236.28C103.473 237.021 102.593 237.658 101.57 238.205C100.903 238.552 100.199 238.82 99.4608 239.019C98.7162 239.218 97.9658 239.389 97.1976 239.537C93.7171 240.129 90.2898 240.027 86.9157 239.241C84.6112 238.649 82.6671 237.539 81.0834 235.916C79.4998 234.288 78.6016 232.517 78.3948 230.593C78.3948 230.399 78.4066 230.189 78.4361 229.967C78.4598 229.745 78.578 229.585 78.7789 229.488C78.8793 229.392 78.9975 229.329 79.1216 229.306C79.2457 229.283 79.3875 229.244 79.5411 229.192C80.3566 228.999 81.1662 228.811 81.958 228.64C82.7498 228.469 83.5593 228.31 84.3748 228.162C84.8357 228.065 85.4857 227.94 86.3307 227.792C87.1757 227.644 87.8021 227.695 88.2098 227.94C88.3635 228.037 88.5407 228.236 88.7476 228.532C89.2085 229.221 89.7935 229.79 90.5144 230.234C91.2294 230.678 92.0212 230.752 92.8958 230.456C93.6108 230.211 93.9948 229.79 94.048 229.198C94.1485 228.657 93.9712 228.213 93.5103 227.866C93.3035 227.672 93.1026 227.507 92.8958 227.388C92.6889 227.262 92.4585 227.154 92.2044 227.057L91.2826 226.613C90.5144 226.22 89.7344 225.873 88.9426 225.577L88.9366 225.549Z" fill="#FFAF45"/>
<path d="M137.403 223.846C138.018 224.387 138.502 225.019 138.863 225.73C139.217 226.448 139.525 227.171 139.785 227.911C140.092 228.799 140.346 229.71 140.553 230.649C140.754 231.589 140.807 232.545 140.706 233.536C140.606 234.225 140.346 235.028 139.938 235.938C139.53 236.849 138.94 237.504 138.171 237.897C136.842 238.586 135.406 238.996 133.875 239.115C132.339 239.241 130.803 239.275 129.272 239.229C127.635 239.184 126.01 239.081 124.397 238.933C122.784 238.785 121.236 238.443 119.753 237.897C118.37 237.356 117.194 236.713 116.219 235.973C114.174 234.447 112.715 232.608 111.846 230.462C110.978 228.315 110.594 226.112 110.694 223.846C110.741 223.157 110.783 222.451 110.812 221.739C110.836 221.028 110.924 220.322 111.078 219.633C111.332 218.204 111.716 216.764 112.23 215.306C112.739 213.854 113.507 212.511 114.535 211.275C115.404 210.239 116.467 209.339 117.72 208.577C118.973 207.814 120.314 207.182 121.75 206.692C124.362 205.804 127.121 205.371 130.04 205.4C132.96 205.423 135.719 205.878 138.331 206.766C138.585 206.863 138.839 206.977 139.099 207.096C139.353 207.222 139.607 207.358 139.867 207.501C140.328 207.848 140.635 208.252 140.789 208.719C140.943 209.186 141.008 209.681 140.978 210.199C140.955 210.717 140.878 211.235 140.748 211.753C140.618 212.272 140.505 212.75 140.405 213.194C140.151 214.327 139.814 215.414 139.406 216.445C138.999 217.481 138.561 218.54 138.1 219.627C137.894 220.168 137.64 220.567 137.332 220.811C136.972 221.107 136.588 221.256 136.18 221.256C135.772 221.256 135.359 221.159 134.951 220.959C134.543 220.76 134.13 220.538 133.722 220.293C133.314 220.049 132.954 219.849 132.646 219.701C132.185 219.502 131.725 219.331 131.264 219.183C130.803 219.035 130.318 218.938 129.804 218.887C128.675 218.739 127.759 219.012 127.039 219.701C126.731 220.049 126.513 220.43 126.389 220.846C126.259 221.267 126.17 221.671 126.117 222.064C126.064 222.855 126.164 223.63 126.424 224.392C126.678 225.155 127.163 225.736 127.884 226.129C128.498 226.476 129.16 226.584 129.881 226.459C130.596 226.334 131.287 226.129 131.955 225.833C132.262 225.685 132.646 225.44 133.107 225.093C133.568 224.751 134.053 224.427 134.567 224.131C135.075 223.835 135.589 223.624 136.103 223.504C136.611 223.385 137.049 223.493 137.409 223.835L137.403 223.846Z" fill="#FFAF45"/>
<path d="M169.791 212.312C169.838 212.408 169.891 212.5 169.945 212.574C169.992 212.648 170.045 212.733 170.098 212.83C170.66 214.065 171.067 215.318 171.327 216.599C171.581 217.88 171.735 219.178 171.788 220.482C171.835 221.791 171.812 223.095 171.711 224.398C171.611 225.702 171.481 227 171.327 228.281C171.227 229.414 171.032 230.536 170.754 231.646C170.47 232.756 170.027 233.764 169.413 234.681C168.798 235.591 167.995 236.406 166.996 237.123C165.997 237.84 164.756 238.393 163.273 238.785C161.229 239.229 159.231 239.423 157.287 239.377C156.005 239.423 154.705 239.303 153.375 239.007C152.607 238.911 151.863 238.763 151.148 238.563C150.433 238.37 149.741 238.096 149.074 237.749C148.099 237.208 147.259 236.565 146.539 235.825C145.824 235.085 145.233 234.299 144.772 233.456C144.057 232.272 143.519 231.031 143.159 229.722C142.798 228.418 142.568 227.097 142.467 225.765C142.367 224.484 142.343 223.192 142.39 221.882C142.438 220.578 142.621 219.309 142.928 218.073C143.436 216.251 144.092 214.424 144.884 212.602C145.676 210.78 146.97 209.277 148.76 208.093C149.836 207.404 151.065 206.875 152.448 206.505C153.83 206.134 155.213 205.924 156.59 205.878C158.073 205.833 159.48 205.867 160.809 205.986C162.139 206.112 163.468 206.516 164.798 207.205C165.92 207.848 166.895 208.611 167.717 209.499C168.532 210.387 169.224 211.327 169.791 212.312ZM155.367 218.523C155.266 219.115 155.213 219.719 155.213 220.333C155.213 220.948 155.237 221.552 155.29 222.144V226.061C155.337 226.306 155.367 226.556 155.367 226.801C155.367 227.046 155.414 227.296 155.52 227.541C155.721 228.082 156.105 228.429 156.673 228.577C156.98 228.674 157.323 228.714 157.707 228.691C158.091 228.668 158.41 228.555 158.664 228.361L159.125 227.917C159.48 227.473 159.71 226.955 159.816 226.363C159.917 225.771 159.994 225.207 160.047 224.66C160.248 222.69 160.2 220.567 159.893 218.301C159.793 217.806 159.663 217.464 159.509 217.265C159.302 216.918 159.025 216.684 158.664 216.565C158.304 216.445 157.937 216.405 157.553 216.451C157.169 216.502 156.809 216.621 156.478 216.821C156.147 217.02 155.905 217.265 155.751 217.561C155.544 217.954 155.42 218.278 155.367 218.523Z" fill="#FFAF45"/>
<path d="M204.023 235.899C203.048 237.18 201.825 238.267 200.341 239.15C199.012 239.89 197.564 240.408 196.004 240.704C194.444 241 192.855 241.074 191.247 240.926C189.64 240.778 188.098 240.397 186.644 239.782C185.185 239.167 183.92 238.341 182.844 237.305C181.409 235.876 180.439 234.236 179.925 232.386C179.411 230.536 179.08 228.68 178.927 226.801C178.874 226.209 178.826 225.509 178.773 224.695C178.72 223.88 178.684 223.044 178.661 222.178C178.637 221.318 178.608 220.476 178.584 219.662C178.56 218.848 178.543 218.147 178.543 217.555C177.875 217.555 177.225 217.532 176.587 217.481C175.949 217.43 175.369 217.185 174.861 216.741C174.554 216.496 174.347 216.189 174.247 215.819C174.146 215.449 174.069 215.067 174.016 214.674C173.963 214.185 173.939 213.775 173.939 213.456V210.535C173.939 209.847 174.004 209.032 174.134 208.093C174.259 207.159 174.66 206.465 175.322 206.021C175.677 205.776 176.126 205.616 176.664 205.542C177.201 205.468 177.751 205.434 178.312 205.434V202.588C178.312 201.625 178.365 200.43 178.466 199.001C178.466 198.608 178.519 198.187 178.619 197.743C178.72 197.299 178.98 197.002 179.388 196.854C179.849 196.661 180.333 196.57 180.847 196.598C181.361 196.621 181.869 196.632 182.384 196.632C183.713 196.684 185.054 196.655 186.414 196.558C187.767 196.462 189.114 196.462 190.444 196.558C191.058 196.61 191.555 196.78 191.939 197.077C192.323 197.373 192.618 197.743 192.819 198.187C193.026 198.631 193.15 199.126 193.203 199.667C193.256 200.208 193.28 200.754 193.28 201.295C193.227 202.035 193.203 202.775 193.203 203.516V205.736H195.124C195.431 205.736 195.738 205.759 196.045 205.81C196.353 205.861 196.636 205.981 196.89 206.18C197.145 206.425 197.328 206.71 197.428 207.028C197.529 207.347 197.582 207.706 197.582 208.099C197.629 208.64 197.67 209.095 197.694 209.465C197.718 209.835 197.735 210.182 197.735 210.501V212.904C197.735 213.445 197.694 213.991 197.617 214.532C197.54 215.073 197.345 215.568 197.044 216.012C196.483 216.701 195.88 217.123 195.242 217.271C194.604 217.419 193.847 217.493 192.979 217.493V221.375C192.979 221.842 192.99 222.338 193.02 222.856C193.044 223.374 193.067 223.88 193.097 224.37C193.12 224.865 193.132 225.258 193.132 225.554C193.185 225.947 193.197 226.38 193.174 226.847C193.15 227.313 193.315 227.672 193.67 227.917C194.131 228.31 194.527 228.321 194.858 227.957C195.189 227.587 195.537 227.279 195.892 227.034C196.3 226.738 196.76 226.63 197.275 226.704C197.789 226.778 198.273 226.886 198.734 227.034C199.502 227.279 200.259 227.541 200.997 227.809C201.736 228.082 202.469 228.361 203.184 228.657C203.692 228.856 204.295 229.061 204.986 229.283C205.677 229.505 206.097 229.91 206.25 230.502C206.298 230.747 206.274 231.071 206.174 231.464C205.766 233.092 205.045 234.572 204.023 235.899Z" fill="#F3F4F6"/>
<path d="M242.857 232.944C242.905 233.337 242.934 233.735 242.934 234.128V235.312C242.981 235.853 242.999 236.411 242.975 236.975C242.952 237.544 242.757 238.045 242.402 238.489C242.042 239.03 241.711 239.292 241.404 239.263C241.096 239.241 240.659 239.201 240.098 239.155C238.615 239.058 237.155 239.041 235.725 239.115C234.289 239.189 232.835 239.178 231.352 239.081C230.838 239.081 230.454 238.984 230.2 238.785C229.946 238.54 229.792 238.267 229.739 237.971C229.686 237.675 229.662 237.356 229.662 237.009C229.662 236.912 229.639 236.838 229.585 236.787C228.87 237.578 228.025 238.216 227.05 238.711C225.721 239.355 224.297 239.645 222.79 239.599C221.283 239.548 219.812 239.377 218.376 239.081C216.94 238.785 215.563 238.37 214.234 237.823C212.904 237.282 211.805 236.445 210.936 235.307C210.269 234.418 209.784 233.382 209.477 232.198C208.502 229.09 208.171 225.913 208.478 222.656C208.785 219.4 209.707 216.348 211.244 213.484C211.959 212.203 212.78 210.985 213.702 209.824C214.624 208.668 215.746 207.717 217.082 206.977C218.719 205.992 220.55 205.485 222.571 205.462C224.592 205.44 226.471 205.844 228.215 206.681C228.469 206.778 228.699 206.891 228.906 207.011C229.113 207.136 229.343 207.273 229.597 207.415C229.958 205.935 230.927 205.172 232.516 205.121C235.229 204.973 237.888 205.047 240.5 205.343C240.854 205.394 241.203 205.451 241.534 205.525C241.865 205.599 242.16 205.787 242.414 206.077C243.029 206.869 243.271 207.865 243.141 209.072C243.011 210.279 242.922 211.327 242.869 212.215C242.869 213.496 242.857 214.794 242.834 216.098C242.81 217.401 242.792 218.699 242.792 219.98C242.739 222.149 242.727 224.296 242.757 226.414C242.78 228.532 242.822 230.701 242.869 232.921L242.857 232.944ZM228.049 224.956C228.457 224.512 228.699 223.971 228.776 223.328C228.853 222.69 228.865 222.07 228.811 221.478C228.758 221.284 228.723 221.096 228.699 220.925C228.675 220.755 228.61 220.567 228.504 220.373C228.404 220.174 228.274 220.003 228.12 219.855C227.966 219.707 227.813 219.582 227.659 219.485C226.637 218.893 225.573 218.608 224.474 218.637C223.375 218.659 222.388 219.069 221.519 219.855C221.159 220.202 220.869 220.584 220.639 220.999C220.409 221.421 220.296 221.876 220.296 222.366C220.296 223.254 220.592 224.005 221.177 224.62C221.768 225.235 222.494 225.668 223.363 225.913C224.486 226.158 225.591 226.084 226.66 225.691C226.915 225.594 227.145 225.508 227.352 225.434C227.559 225.36 227.76 225.224 227.966 225.03L228.043 224.956H228.049Z" fill="#F3F4F6"/>
<path d="M257.098 239.93C255.692 239.907 254.297 239.867 252.915 239.816C252.401 239.816 251.881 239.782 251.343 239.708C250.805 239.634 250.279 239.52 249.771 239.377C249.257 239.229 248.796 239.007 248.388 238.711C247.98 238.415 247.673 238.022 247.466 237.527C247.159 236.838 247.017 236.132 247.047 235.42C247.07 234.709 247.112 234.003 247.159 233.314C247.206 232.625 247.2 231.959 247.124 231.316C247.047 230.678 247.005 230.012 247.005 229.317C247.053 227.74 247.094 226.14 247.124 224.512C247.147 222.884 247.189 221.284 247.236 219.707C247.336 216.502 247.437 213.336 247.543 210.205C247.644 207.074 247.744 203.908 247.85 200.703C247.85 200.259 247.874 199.803 247.927 199.337C247.975 198.87 248.105 198.46 248.311 198.118C248.565 197.777 248.861 197.555 249.192 197.452C249.523 197.355 249.871 197.281 250.226 197.23C251.556 197.036 252.897 196.911 254.256 196.86C255.609 196.814 256.956 196.837 258.286 196.934C259.409 197.031 260.189 197.475 260.626 198.266C261.063 199.058 261.306 200.236 261.353 201.819C261.4 203.544 261.441 205.206 261.465 206.812C261.489 208.417 261.453 210.08 261.353 211.805C261.252 213.775 261.187 215.75 261.158 217.72C261.134 219.69 261.146 221.666 261.199 223.635C261.199 224.131 261.235 224.598 261.311 225.042C261.388 225.486 261.554 225.907 261.808 226.3C262.115 226.647 262.487 226.881 262.919 227C263.35 227.125 263.776 227.211 264.183 227.256C264.644 227.308 265.093 227.308 265.525 227.256C265.956 227.211 266.405 227.182 266.866 227.182C267.274 227.234 267.67 227.319 268.054 227.444C268.438 227.569 268.733 227.803 268.934 228.144C269.035 228.293 269.088 228.452 269.088 228.623C269.088 228.794 269.111 228.981 269.165 229.175C269.419 231.737 269.295 234.305 268.781 236.867C268.68 237.362 268.515 237.829 268.284 238.273C268.054 238.717 267.735 239.087 267.327 239.383C266.766 239.776 266.163 239.998 265.525 240.049C264.886 240.095 264.231 240.095 263.569 240.049H261.341C259.905 239.998 258.487 239.964 257.081 239.941L257.098 239.93Z" fill="#F3F4F6"/>
<path d="M275.937 209.573C278.548 209.328 281.207 209.254 283.92 209.351C285.042 209.448 285.822 209.772 286.26 210.313C286.697 210.854 286.939 211.696 286.987 212.829C287.394 221.113 287.317 229.368 286.756 237.601C286.756 237.897 286.732 238.182 286.679 238.449C286.626 238.722 286.472 238.956 286.218 239.149C286.065 239.246 285.887 239.309 285.681 239.332C285.474 239.354 285.273 239.394 285.066 239.445C283.222 239.542 281.385 239.582 279.541 239.559C277.697 239.537 275.883 239.445 274.093 239.297C273.732 239.297 273.478 239.252 273.325 239.149C273.171 239.053 273.071 238.916 273.017 238.745C272.964 238.574 272.887 238.387 272.787 238.193C272.633 237.504 272.557 236.798 272.557 236.086V233.906C272.71 230.257 272.864 226.624 273.017 222.998C273.171 219.377 273.325 215.739 273.478 212.089C273.478 211.748 273.502 211.412 273.555 211.093C273.602 210.774 273.756 210.49 274.016 210.245C274.276 210 274.566 209.84 274.897 209.766C275.227 209.692 275.576 209.63 275.931 209.579L275.937 209.573ZM275.174 197.224C275.99 196.979 276.799 196.843 277.591 196.82C278.383 196.797 279.216 196.809 280.085 196.854C280.853 196.905 281.609 196.905 282.348 196.854C283.087 196.809 283.819 196.831 284.534 196.928C284.995 196.979 285.444 197.065 285.876 197.19C286.313 197.315 286.656 197.571 286.91 197.964C287.01 198.164 287.075 198.369 287.099 198.591C287.123 198.813 287.164 199.046 287.217 199.291V201.101C287.217 201.716 287.241 202.348 287.294 202.986C287.294 203.481 287.241 203.851 287.14 204.096C286.886 204.54 286.461 204.813 285.876 204.91C285.285 205.007 284.712 205.035 284.15 204.984C282.921 204.887 281.692 204.847 280.469 204.87C279.24 204.893 278.011 204.956 276.782 205.058C276.474 205.109 276.155 205.132 275.824 205.132C275.493 205.132 275.198 205.058 274.944 204.91C274.43 204.665 274.087 204.295 273.91 203.8C273.732 203.305 273.638 202.792 273.638 202.246C273.585 201.608 273.561 200.987 273.561 200.395C273.561 199.803 273.608 199.211 273.715 198.619C273.715 198.471 273.762 198.249 273.868 197.953C274.022 197.708 274.211 197.537 274.442 197.435C274.672 197.338 274.914 197.264 275.168 197.213L275.174 197.224Z" fill="#F3F4F6"/>
<path d="M325.597 232.944C325.644 233.337 325.674 233.735 325.674 234.128V235.312C325.721 235.853 325.739 236.411 325.715 236.975C325.691 237.544 325.496 238.045 325.142 238.489C324.781 239.03 324.45 239.292 324.143 239.263C323.836 239.241 323.399 239.201 322.837 239.155C321.354 239.058 319.894 239.041 318.464 239.115C317.028 239.189 315.575 239.178 314.092 239.081C313.578 239.081 313.193 238.984 312.939 238.785C312.685 238.54 312.532 238.267 312.478 237.971C312.425 237.675 312.402 237.356 312.402 237.009C312.402 236.912 312.378 236.838 312.325 236.787C311.61 237.578 310.765 238.216 309.79 238.711C308.46 239.355 307.036 239.645 305.529 239.599C304.022 239.548 302.551 239.377 301.115 239.081C299.679 238.785 298.302 238.37 296.973 237.823C295.643 237.282 294.544 236.445 293.676 235.307C293.008 234.418 292.523 233.382 292.216 232.198C291.241 229.09 290.91 225.913 291.217 222.656C291.525 219.4 292.447 216.348 293.983 213.484C294.698 212.203 295.519 210.985 296.441 209.824C297.363 208.668 298.486 207.717 299.821 206.977C301.458 205.992 303.29 205.485 305.311 205.462C307.332 205.44 309.211 205.844 310.954 206.681C311.208 206.778 311.438 206.891 311.645 207.011C311.852 207.136 312.083 207.273 312.337 207.415C312.697 205.935 313.666 205.172 315.256 205.121C317.968 204.973 320.627 205.047 323.239 205.343C323.593 205.394 323.942 205.451 324.273 205.525C324.604 205.599 324.899 205.787 325.153 206.077C325.768 206.869 326.01 207.865 325.88 209.072C325.75 210.279 325.662 211.327 325.609 212.215C325.609 213.496 325.597 214.794 325.573 216.098C325.549 217.401 325.532 218.699 325.532 219.98C325.479 222.149 325.467 224.296 325.496 226.414C325.52 228.532 325.561 230.701 325.609 232.921L325.597 232.944ZM310.783 224.956C311.19 224.512 311.433 223.971 311.509 223.328C311.586 222.69 311.598 222.07 311.545 221.478C311.492 221.284 311.456 221.096 311.433 220.925C311.409 220.755 311.344 220.567 311.238 220.373C311.137 220.174 311.007 220.003 310.853 219.855C310.7 219.707 310.546 219.582 310.393 219.485C309.37 218.893 308.307 218.608 307.208 218.637C306.108 218.659 305.122 219.069 304.253 219.855C303.893 220.202 303.603 220.584 303.373 220.999C303.142 221.421 303.03 221.876 303.03 222.366C303.03 223.254 303.325 224.005 303.91 224.62C304.501 225.235 305.228 225.668 306.097 225.913C307.219 226.158 308.324 226.084 309.394 225.691C309.648 225.594 309.878 225.508 310.085 225.434C310.292 225.36 310.493 225.224 310.7 225.03L310.777 224.956H310.783Z" fill="#F3F4F6"/>
</g>
<defs>
<clipPath id="clip0_4123_2587">
<rect width="325.829" height="241" fill="white" transform="translate(0.0856934)"/>
</clipPath>
</defs>
</svg>
