<svg width="81" height="74" viewBox="0 0 81 74" fill="none" xmlns="http://www.w3.org/2000/svg">
<path d="M0.503492 28.7798C-0.306811 35.7744 5.40823 43.722 10.2851 50.5326C15.1619 57.3433 19.2005 63.0168 24.7923 67.3506C30.3842 71.6843 37.4586 74.5961 43.3263 72.9685C49.1941 71.341 53.8551 65.174 60.4819 60.4593C67.1086 55.7446 75.6302 52.4002 78.8856 46.5872C82.1521 40.6217 80.0816 32.1057 74.9315 26.9617C69.9338 21.8293 61.8565 20.0688 55.0884 15.0327C48.3203 9.99661 42.8615 1.68487 36.5216 0.285713C30.3343 -1.10192 23.2658 4.42304 15.9521 10.1596C8.79098 15.9076 1.38456 21.8672 0.503492 28.7798Z" fill="#FFAF45"/>
</svg>
