<svg width="216" height="194" viewBox="0 0 216 194" fill="none" xmlns="http://www.w3.org/2000/svg">
<path d="M4.13496 141.596C13.0959 160.425 38.8571 169.74 60.8844 177.76C82.9117 185.78 101.205 192.505 121.064 193.078C140.924 193.651 162.055 187.998 173.304 173.279C184.552 158.56 185.917 134.775 194.153 111.015C202.389 87.2547 217.201 63.445 215.817 43.097C214.22 22.3505 196.133 4.99097 176.053 1.60353C156.348 -2.03297 134.65 8.30262 110.938 8.12797C87.2267 7.95331 61.5016 -2.73159 44.4439 5.33764C27.7621 13.1578 19.7477 39.7321 11.4861 67.2778C3.60046 94.5744 -4.53241 122.842 4.13496 141.596Z" fill="#FFAF45"/>
</svg>
