<svg width="117" height="114" viewBox="0 0 117 114" fill="none" xmlns="http://www.w3.org/2000/svg">
<path d="M2.52529 25.7304C-2.35573 35.6397 1.90399 50.3938 5.52385 63.0263C9.14371 75.6588 12.1237 86.1696 18.1046 95.5185C24.0856 104.867 33.006 112.896 42.534 113.581C52.062 114.266 62.1975 107.608 74.4729 104.131C86.7482 100.653 101.102 100.199 108.974 93.3236C116.943 86.2285 118.368 72.5539 113.466 62.2403C108.784 52.024 97.7753 45.1687 90.4261 34.1624C83.077 23.1562 79.3877 7.99893 70.756 2.59257C62.3436 -2.71645 48.9888 1.7254 35.1601 6.35072C21.5508 11.0734 7.46769 15.9795 2.52529 25.7304Z" fill="#FFAF45"/>
</svg>
